<?xml version="1.0" encoding="UTF-8" standalone="no"?>
<!DOCTYPE svg PUBLIC "-//W3C//DTD SVG 1.0//EN"
"http://www.w3.org/TR/2001/REC-SVG-20010904/DTD/svg10.dtd">
<!-- Created with Sodipodi ("http://www.sodipodi.com/") -->
<svg
   id="svg602"
   sodipodi:version="0.34"
   xmlns="http://www.w3.org/2000/svg"
   xmlns:sodipodi="http://sodipodi.sourceforge.net/DTD/sodipodi-0.dtd"
   xmlns:xlink="http://www.w3.org/1999/xlink"
   width="24pt"
   height="24pt"
   xml:space="preserve"
   sodipodi:docbase="/home/nix/source/QCADesigner/pixmaps"
   sodipodi:docname="/home/nix/source/QCADesigner/pixmaps/bus_output.svg"><defs
   id="defs604" /><sodipodi:namedview
   id="base"
   gridspacingy="0.5pt"
   gridspacingx="0.5pt"
   snaptogrid="true"
   showgrid="true"
   snaptoguides="true"
   gridtolerance="6pt"
   guidetolerance="0.05pt"
   borderlayer="top" /><path
   style="font-size:12;fill:#ffff00;fill-rule:evenodd;stroke:#9c7a00;stroke-width:0.375;stroke-linecap:round;stroke-linejoin:round;stroke-dasharray:none;stroke-opacity:1;fill-opacity:1;"
   d="M 29.375 16.25 C 29.375 15 28.75 14.375 27.5 14.375 C 26.875 14.375 26.87931 14.39826 26.25 14.375 C 25.625 14.375 25.15342 13.69886 25 13.125 C 24.79545 12.35791 23.85228 8.698861 23.75 8.125 C 23.75 7.5 23.125 6.875 22.5 6.875 C 21.875 6.875 2.482853 6.870389 1.875 6.875 C 1.25 6.875 0.625 7.5 0.625 8.125 C 0.625 8.75 0.636331 19.35264 0.625 20 C 0.636331 20.60264 1.25 21.25 1.875 21.25 C 2.5 21.25 4.375 21.25 4.375 21.25 C 4.375 21.25 4.375 18.75 6.875 18.75 C 9.375 18.75 9.375 21.25 9.375 21.25 L 15.625 21.25 C 15.625 21.25 15.625 18.75 18.125 18.75 C 20.625 18.75 20.625 21.25 20.625 21.25 L 28.08368 21.25 C 28.70868 21.25 29.33368 20.625 29.375 19.97122 C 29.42614 18.74388 29.375 16.875 29.375 16.25 z "
   id="Bus Outline"
   sodipodi:nodetypes="ccccccccccccccccccc" /><path
   sodipodi:type="arc"
   style="fill-rule:evenodd;stroke:#000000;fill:#666666;fill-opacity:1;stroke-opacity:1;stroke-width:0.3;stroke-linejoin:round;stroke-linecap:round;stroke-dasharray:none;"
   id="Rear Tire Outline"
   d="M 11.25 25 A 2.5 2.5 0 1 0 6.25 25 A 2.5 2.5 0 1 0  11.25 25 z"
   sodipodi:cx="8.75"
   sodipodi:cy="25"
   sodipodi:rx="2.5"
   sodipodi:ry="2.5"
   transform="translate(-1.875,-3.75)" /><path
   sodipodi:type="arc"
   style="fill-rule:evenodd;stroke:#000000;fill:#666666;fill-opacity:1;stroke-opacity:1;stroke-width:0.3;stroke-linejoin:round;stroke-linecap:round;stroke-dasharray:none;"
   id="Front Tire Outline"
   d="M 11.25 25 A 2.5 2.5 0 1 0 6.25 25 A 2.5 2.5 0 1 0  11.25 25 z"
   sodipodi:cx="8.75"
   sodipodi:cy="25"
   sodipodi:rx="2.5"
   sodipodi:ry="2.5"
   transform="translate(9.374999,-3.75)" /><path
   sodipodi:type="arc"
   style="fill-rule:evenodd;stroke:#000000;fill:#191919;fill-opacity:1;stroke-opacity:1;stroke-width:0.4687;stroke-linejoin:round;stroke-linecap:round;stroke-dasharray:none;"
   id="Rear Wheel Outline"
   d="M 13.125 25.9375 A 1.5625 1.5625 0 1 0 10 25.9375 A 1.5625 1.5625 0 1 0  13.125 25.9375 z"
   sodipodi:cx="11.5625"
   sodipodi:cy="25.9375"
   sodipodi:rx="1.5625"
   sodipodi:ry="1.5625"
   transform="matrix(0.4,0,0,0.399998,2.250001,10.87504)" /><path
   sodipodi:type="arc"
   style="fill-rule:evenodd;stroke:#000000;fill:#191919;fill-opacity:1;stroke-opacity:1;stroke-width:0.4687;stroke-linejoin:round;stroke-linecap:round;stroke-dasharray:none;"
   id="Front Wheel Outline"
   d="M 13.125 25.9375 A 1.5625 1.5625 0 1 0 10 25.9375 A 1.5625 1.5625 0 1 0  13.125 25.9375 z"
   sodipodi:cx="11.5625"
   sodipodi:cy="25.9375"
   sodipodi:rx="1.5625"
   sodipodi:ry="1.5625"
   transform="matrix(0.400001,0,0,0.399999,13.49999,10.87503)" /><path
   style="font-size:12;fill:#00ffff;fill-rule:evenodd;stroke:#9c7a00;stroke-width:0.375;stroke-linejoin:round;stroke-linecap:round;fill-opacity:1;stroke-opacity:1;"
   d="M 3.125 10 L 4.375 10 C 5 10 5.625 10.625 5.625 11.25 C 5.625 11.875 5.625 11.875 5.625 12.5 C 5.625 13.125 5 13.75 4.375 13.75 C 3.75 13.75 3.75 13.75 3.125 13.75 C 2.5 13.75 1.875 13.125 1.875 12.5 C 1.875 11.875 1.875 11.875 1.875 11.25 C 1.875 10.625 2.5 10 3.125 10 z "
   id="Window[0]"
   sodipodi:nodetypes="ccccccccc" /><path
   style="font-size:12;fill:#00ffff;fill-rule:evenodd;stroke:#9c7a00;stroke-width:0.375;stroke-linejoin:round;stroke-linecap:round;fill-opacity:1;stroke-opacity:1;"
   d="M 8.124999 9.999999 L 9.374999 9.999999 C 9.999999 9.999999 10.625 10.625 10.625 11.25 C 10.625 11.875 10.625 11.875 10.625 12.5 C 10.625 13.125 9.999999 13.75 9.374999 13.75 C 8.75 13.75 8.75 13.75 8.124999 13.75 C 7.499999 13.75 6.874999 13.125 6.874999 12.5 C 6.874999 11.875 6.874999 11.875 6.874999 11.25 C 6.874999 10.625 7.499999 9.999999 8.124999 9.999999 z "
   id="Window[1]"
   sodipodi:nodetypes="ccccccccc" /><path
   style="font-size:12;fill:#00ffff;fill-rule:evenodd;stroke:#9c7a00;stroke-width:0.375;stroke-linejoin:round;stroke-linecap:round;fill-opacity:1;stroke-opacity:1;"
   d="M 13.125 10 L 14.375 10 C 15 10 15.625 10.625 15.625 11.25 C 15.625 11.875 15.625 11.875 15.625 12.5 C 15.625 13.125 15 13.75 14.375 13.75 C 13.75 13.75 13.75 13.75 13.125 13.75 C 12.5 13.75 11.875 13.125 11.875 12.5 C 11.875 11.875 11.875 11.875 11.875 11.25 C 11.875 10.625 12.5 10 13.125 10 z "
   id="Window[2]"
   sodipodi:nodetypes="ccccccccc" /><path
   style="font-size:12;fill:#00ffff;fill-rule:evenodd;stroke:#9c7a00;stroke-width:0.375;stroke-linejoin:round;stroke-linecap:round;fill-opacity:1;stroke-opacity:1;"
   d="M 18.125 10 L 19.375 10 C 20 10 20.625 10.625 20.625 11.25 C 20.625 11.875 20.625 11.875 20.625 12.5 C 20.625 13.125 20 13.75 19.375 13.75 C 18.75 13.75 18.75 13.75 18.125 13.75 C 17.5 13.75 16.875 13.125 16.875 12.5 C 16.875 11.875 16.875 11.875 16.875 11.25 C 16.875 10.625 17.5 10 18.125 10 z "
   id="Window[3]"
   sodipodi:nodetypes="ccccccccc" /><path
   style="font-size:12;fill:#00ffff;fill-rule:evenodd;stroke:#9c7a00;stroke-width:0.375;stroke-linecap:round;stroke-linejoin:round;"
   d="M 22.5 13.125 L 23.75 13.125 C 24.375 13.125 24.375 13.75 24.375 14.375 C 24.375 15 24.375 18.75 24.375 19.375 C 24.375 20 24.375 20.625 23.75 20.625 C 23.125 20.625 23.125 20.625 22.5 20.625 C 21.875 20.625 21.875 20 21.875 19.375 C 21.875 18.75 21.875 15 21.875 14.375 C 21.875 13.75 21.875 13.125 22.5 13.125 z "
   id="Door"
   sodipodi:nodetypes="ccccccccc" /></svg>
