<?xml version="1.0" encoding="UTF-8" standalone="no"?>
<!DOCTYPE svg PUBLIC "-//W3C//DTD SVG 20010904//EN"
"http://www.w3.org/TR/2001/REC-SVG-20010904/DTD/svg10.dtd">
<!-- Created with Sodipodi ("http://www.sodipodi.com/") -->
<svg
   xmlns="http://www.w3.org/2000/svg"
   xmlns:sodipodi="http://sodipodi.sourceforge.net/DTD/sodipodi-0.dtd"
   xmlns:inkscape="http://www.inkscape.org/namespaces/inkscape"
   xmlns:xlink="http://www.w3.org/1999/xlink"
   id="svg602"
   sodipodi:version="0.34"
   width="30pt"
   height="30pt"
   xml:space="preserve"
   sodipodi:docname="graph_data_bin.svg"
   inkscape:version="0.37"><defs
   id="defs604" /><sodipodi:namedview
   id="base"
   inkscape:zoom="10.3333333"
   inkscape:cx="15"
   inkscape:cy="15"
   inkscape:window-width="400"
   inkscape:window-height="501"
   inkscape:window-x="121"
   inkscape:window-y="34" /><g
   id="Binary Honeycomb"><path
   style="font-size:12;fill:#3f3f3f;fill-rule:evenodd;stroke:#000000;stroke-width:0.625;stroke-linecap:round;stroke-linejoin:round;"
   d="M 1.8145162 18.629031 L 6.0332662 28.669354 L 31.345766 28.669354 L 35.564516 18.629031 L 31.345766 8.5887088 L 6.0332662 8.5887088 L 1.8145162 18.629031 z "
   id="Honeycomb"
   sodipodi:nodetypes="ccccccc"
   transform="translate(6.048441e-2,0)" /><path
   transform="translate(2.148628e-2,0.184704)"
   style="font-size:12;font-weight:normal;fill:#ffff00;stroke-width:1;font-family:Bitstream Vera Serif;text-anchor:middle;"
   d="M 7.276365 22.40234 C 7.874022 22.40234 8.321287 22.07421 8.618162 21.41796 C 8.915037 20.76171 9.063475 19.77148 9.063475 18.44726 C 9.063475 17.11913 8.915037 16.12695 8.618162 15.4707 C 8.321287 14.81445 7.874022 14.48632 7.276365 14.48632 C 6.678709 14.48632 6.231443 14.81445 5.934568 15.4707 C 5.637693 16.12695 5.489256 17.11913 5.489256 18.44726 C 5.489256 19.77148 5.637693 20.76171 5.934568 21.41796 C 6.231443 22.07421 6.678709 22.40234 7.276365 22.40234 z M 7.276365 22.98242 C 6.327147 22.98242 5.584959 22.58398 5.049803 21.7871 C 4.518553 20.99023 4.252928 19.87695 4.252928 18.44726 C 4.252928 17.01367 4.518553 15.89843 5.049803 15.10156 C 5.584959 14.30468 6.327147 13.90624 7.276365 13.90624 C 8.22949 13.90624 8.971678 14.30468 9.502928 15.10156 C 10.03418 15.89843 10.2998 17.01367 10.2998 18.44726 C 10.2998 19.87695 10.03418 20.99023 9.502928 21.7871 C 8.971678 22.58398 8.22949 22.98242 7.276365 22.98242 z M 12.80176 22.81249 L 12.80176 22.1914 L 14.32519 22.1914 L 14.32519 14.91406 L 12.56152 16.05663 L 12.56152 15.28906 L 14.69433 13.90624 L 15.50293 13.90624 L 15.50293 22.1914 L 17.02637 22.1914 L 17.02637 22.81249 L 12.80176 22.81249 z M 20.43652 22.81249 L 20.43652 22.1914 L 21.95996 22.1914 L 21.95996 14.91406 L 20.19629 16.05663 L 20.19629 15.28906 L 22.3291 13.90624 L 23.13769 13.90624 L 23.13769 22.1914 L 24.66113 22.1914 L 24.66113 22.81249 L 20.43652 22.81249 z M 30.18066 22.40234 C 30.77832 22.40234 31.22558 22.07421 31.52246 21.41796 C 31.81933 20.76171 31.96777 19.77148 31.96777 18.44726 C 31.96777 17.11913 31.81933 16.12695 31.52246 15.4707 C 31.22558 14.81445 30.77832 14.48632 30.18066 14.48632 C 29.58301 14.48632 29.13574 14.81445 28.83887 15.4707 C 28.54199 16.12695 28.39355 17.11913 28.39355 18.44726 C 28.39355 19.77148 28.54199 20.76171 28.83887 21.41796 C 29.13574 22.07421 29.58301 22.40234 30.18066 22.40234 z M 30.18066 22.98242 C 29.23144 22.98242 28.48926 22.58398 27.9541 21.7871 C 27.42285 20.99023 27.15722 19.87695 27.15722 18.44726 C 27.15722 17.01367 27.42285 15.89843 27.9541 15.10156 C 28.48926 14.30468 29.23144 13.90624 30.18066 13.90624 C 31.13379 13.90624 31.87597 14.30468 32.40722 15.10156 C 32.93847 15.89843 33.2041 17.01367 33.2041 18.44726 C 33.2041 19.87695 32.93847 20.99023 32.40722 21.7871 C 31.87597 22.58398 31.13379 22.98242 30.18066 22.98242 z "
   id="bin:0110" /></g></svg>
