<?xml version="1.0" encoding="UTF-8" standalone="no"?>
<!DOCTYPE svg PUBLIC "-//W3C//DTD SVG 20010904//EN"
"http://www.w3.org/TR/2001/REC-SVG-20010904/DTD/svg10.dtd">
<!-- Created with Sodipodi ("http://www.sodipodi.com/") -->
<svg
   xmlns="http://www.w3.org/2000/svg"
   xmlns:sodipodi="http://sodipodi.sourceforge.net/DTD/sodipodi-0.dtd"
   xmlns:xlink="http://www.w3.org/1999/xlink"
   id="svg602"
   sodipodi:version="0.34"
   width="30pt"
   height="30pt"
   xml:space="preserve"
   sodipodi:docname="/home/nix/source/QCADesigner/pixmaps/q_cell_alt.svg"
   sodipodi:docbase="/home/nix/source/QCADesigner/pixmaps/"><defs
   id="defs604" /><sodipodi:namedview
   id="base" /><g
   id="Cross Cell"
   transform="matrix(2,0,0,2,6.07352,9.693033)"><path
   style="font-size:12;fill:#00ffff;fill-opacity:0.2471;fill-rule:evenodd;stroke:#000000;stroke-width:0.0469;stroke-linecap:round;stroke-linejoin:round;"
   d="M 0 2.5 L 7 9.5 L 21 9.5 L 14 2.5 L 0 2.5 z "
   id="cellLidBot"
   sodipodi:nodetypes="cccccc"
   transform="matrix(0.833625,0,0,0.833625,-2.414825,0.777169)" /><path
   style="font-size:12;fill:#00ffff;fill-opacity:0.2471;fill-rule:evenodd;stroke:#000000;stroke-width:0.0469;"
   d="M 0 -0.5 L 0 2.5 L 14 2.5 L 14 -0.5 L 0 -0.5 z "
   id="cellWallN"
   sodipodi:nodetypes="cccccc"
   transform="matrix(0.833625,0,0,0.833625,-2.414825,0.777169)" /><path
   style="font-size:12;fill:#00ffff;fill-opacity:0.2471;fill-rule:evenodd;stroke:#000000;stroke-width:0.0469;stroke-linecap:round;stroke-linejoin:round;"
   d="M 14 -0.5 L 21 6.5 L 21 9.5 L 14 2.5 L 14 -0.5 z "
   id="cellWallE"
   transform="matrix(0.833625,0,0,0.833625,-2.414825,0.777169)" /><g
   id="Dot"><path
   style="font-size:12;fill:#00ff00;fill-opacity:0.5;fill-rule:evenodd;stroke:#000000;stroke-width:0.0375;stroke-linecap:round;stroke-linejoin:round;"
   d="M 7.59979 5.362108 L 9.65577 3.674018 L 9.09066 3.111322 L 7.840224 3.111322 L 5.784243 4.799411 L 0.337606 3.111322 L -0.91283 3.111322 L -0.347721 3.674018 L 5.098916 5.362108 L 3.042931 7.050197 L 3.60804 7.612894 L 4.858478 7.612894 L 6.914462 5.924804 L 12.3611 7.612894 L 13.61154 7.612894 L 13.04643 7.050197 L 7.59979 5.362108 z "
   id="Bottom Lid"
   sodipodi:nodetypes="cccccccccccccccc" /><path
   style="fill:#00ff00;fill-opacity:0.5;fill-rule:evenodd;stroke:#000000;stroke-width:0.0375;stroke-linecap:round;stroke-linejoin:round;"
   d="M -0.91283 1.444082 L 0.337606 1.444082 L 0.337606 3.111322 L -0.91283 3.111322 L -0.91283 1.444082 z "
   id="WallNW:N"
   sodipodi:nodetypes="cccc" /><path
   style="fill:#00ff00;fill-opacity:0.5;fill-rule:evenodd;stroke:#000000;stroke-width:0.0375;stroke-linecap:round;stroke-linejoin:round;"
   d="M 7.840223 1.444082 L 9.09066 1.444082 L 9.09066 3.111322 L 7.840224 3.111322 L 7.840223 1.444082 z "
   id="WallNE:N"
   sodipodi:nodetypes="cccc" /><path
   style="fill:#00ff00;fill-opacity:0.5;fill-rule:evenodd;stroke:#000000;stroke-width:0.0375;stroke-linecap:round;stroke-linejoin:round;"
   d="M 0.337606 1.444082 L 5.784243 3.132172 L 5.784243 4.799411 L 0.337606 3.111322 L 0.337606 1.444082 z "
   id="WallNW:Top"
   sodipodi:nodetypes="cccc" /><path
   style="fill:#00ff00;fill-opacity:0.5;fill-rule:evenodd;stroke:#000000;stroke-width:0.0375;stroke-linecap:round;stroke-linejoin:round;"
   d="M 7.840224 3.111322 L 5.784243 4.799411 L 5.784243 3.132172 L 7.840223 1.444082 L 7.840224 3.111322 z "
   id="WallNE:Top"
   sodipodi:nodetypes="cccc" /><path
   style="fill:#00ff00;fill-opacity:0.5;fill-rule:evenodd;stroke:#000000;stroke-width:0.0375;stroke-linecap:round;stroke-linejoin:round;"
   d="M 9.65577 2.006779 L 9.09066 1.444082 L 9.09066 3.111322 L 9.65577 3.674018 L 9.65577 2.006779 z "
   id="WallNE:E"
   sodipodi:nodetypes="cccc" /><path
   style="fill:#00ff00;fill-opacity:0.5;fill-rule:evenodd;stroke:#000000;stroke-width:0.0375;stroke-linecap:round;stroke-linejoin:round;"
   d="M -0.91283 1.444082 L -0.347721 2.006779 L -0.347721 3.674018 L -0.91283 3.111322 L -0.91283 1.444082 z "
   id="WallNW:W"
   sodipodi:nodetypes="cccc" /><path
   style="fill:#00ff00;fill-opacity:0.5;fill-rule:evenodd;stroke:#000000;stroke-width:0.0375;stroke-linecap:round;stroke-linejoin:round;"
   d="M -0.347721 3.674018 L 5.098916 5.362108 L 5.098915 3.694866 L -0.347721 2.006779 L -0.347721 3.674018 z "
   id="WallNW:Bottom"
   sodipodi:nodetypes="cccc" /><path
   style="fill:#00ff00;fill-opacity:0.5;fill-rule:evenodd;stroke:#000000;stroke-width:0.0375;stroke-linecap:round;stroke-linejoin:round;"
   d="M 7.59979 5.362108 L 9.65577 3.674018 L 9.65577 2.006779 L 7.599789 3.694866 L 7.59979 5.362108 z "
   id="WallNE:Bottom"
   sodipodi:nodetypes="cccc" /><path
   style="fill:#00ff00;fill-opacity:0.5;fill-rule:evenodd;stroke:#000000;stroke-width:0.0375;stroke-linecap:round;stroke-linejoin:round;"
   d="M 13.04643 7.050197 L 7.59979 5.362108 L 7.599789 3.694866 L 13.04643 5.382953 L 13.04643 7.050197 z "
   id="WallSE:Top"
   sodipodi:nodetypes="cccc" /><path
   style="fill:#00ff00;fill-opacity:0.5;fill-rule:evenodd;stroke:#000000;stroke-width:0.0375;stroke-linecap:round;stroke-linejoin:round;"
   d="M 5.098915 3.694866 L 3.042931 5.382953 L 3.042931 7.050197 L 5.098916 5.362108 L 5.098915 3.694866 z "
   id="WallSW:Top"
   sodipodi:nodetypes="cccc" /><path
   style="fill:#00ff00;fill-opacity:0.5;fill-rule:evenodd;stroke:#000000;stroke-width:0.0375;stroke-linecap:round;stroke-linejoin:round;"
   d="M 13.61154 7.612894 L 13.04643 7.050197 L 13.04643 5.382953 L 13.61154 5.945649 L 13.61154 7.612894 z "
   id="WallSE:E"
   sodipodi:nodetypes="cccc" /><path
   style="fill:#00ff00;fill-opacity:0.5;fill-rule:evenodd;stroke:#000000;stroke-width:0.0375;stroke-linecap:round;stroke-linejoin:round;"
   d="M 3.042931 7.050197 L 3.60804 7.612894 L 3.60804 5.945649 L 3.042931 5.382953 L 3.042931 7.050197 z "
   id="WallSW:W" /><path
   style="fill:#00ff00;fill-opacity:0.5;fill-rule:evenodd;stroke:#000000;stroke-width:0.0375;stroke-linecap:round;stroke-linejoin:round;"
   d="M 12.3611 7.612894 L 13.61154 7.612894 L 13.61154 5.945649 L 12.3611 5.945649 L 12.3611 7.612894 z "
   id="WallSE:S"
   sodipodi:nodetypes="cccc" /><path
   style="fill:#00ff00;fill-opacity:0.5;fill-rule:evenodd;stroke:#000000;stroke-width:0.0375;stroke-linecap:round;stroke-linejoin:round;"
   d="M 12.3611 7.612894 L 6.914462 5.924804 L 6.914462 4.25756 L 12.3611 5.945649 L 12.3611 7.612894 z "
   id="WallSE:Bottom"
   sodipodi:nodetypes="cccc" /><path
   style="fill:#00ff00;fill-opacity:0.5;fill-rule:evenodd;stroke:#000000;stroke-width:0.0375;stroke-linecap:round;stroke-linejoin:round;"
   d="M 4.858478 7.612894 L 3.60804 7.612894 L 3.60804 5.945649 L 4.858478 5.945649 L 4.858478 7.612894 z "
   id="WallSW:S"
   sodipodi:nodetypes="cccc" /><path
   style="fill:#00ff00;fill-opacity:0.5;fill-rule:evenodd;stroke:#000000;stroke-width:0.0375;stroke-linecap:round;stroke-linejoin:round;"
   d="M 4.858478 5.945649 L 6.914462 4.25756 L 6.914462 5.924804 L 4.858478 7.612894 L 4.858478 5.945649 z "
   id="WallSW:Bottom"
   sodipodi:nodetypes="cccc" /><path
   style="font-size:12;fill:#00ff00;fill-opacity:0.5;fill-rule:evenodd;stroke:#000000;stroke-width:0.0375;stroke-linecap:round;stroke-linejoin:round;"
   d="M 12.3611 5.945649 L 13.61154 5.945649 L 13.04643 5.382953 L 7.599789 3.694866 L 9.65577 2.006779 L 9.09066 1.444082 L 7.840223 1.444082 L 5.784243 3.132172 L 0.337606 1.444082 L -0.91283 1.444082 L -0.347721 2.006779 L 5.098915 3.694866 L 3.042931 5.382953 L 3.60804 5.945649 L 4.858478 5.945649 L 6.914462 4.25756 L 12.3611 5.945649 z "
   id="Top Lid"
   sodipodi:nodetypes="cccccccccccccccc" /></g><path
   style="font-size:12;fill:#00ffff;fill-opacity:0.2471;fill-rule:evenodd;stroke:#000000;stroke-width:0.0469;stroke-linecap:round;stroke-linejoin:round;"
   d="M 0 -0.5 L 7 6.5 L 7 9.5 L 0 2.5 L 0 -0.5 z "
   id="cellWallW"
   transform="matrix(0.833625,0,0,0.833625,-2.414825,0.777169)" /><path
   style="font-size:12;fill:#00ffff;fill-opacity:0.2471;fill-rule:evenodd;stroke:#000000;stroke-width:0.0469;stroke-linecap:round;stroke-linejoin:round;"
   d="M 7 6.5 L 7 9.5 L 21 9.5 L 21 6.5 L 7 6.5 z "
   id="cellWallS"
   transform="matrix(0.833625,0,0,0.833625,-2.414825,0.777169)" /><path
   style="font-size:12;fill:#00ffff;fill-opacity:0.25;fill-rule:evenodd;stroke:#000000;stroke-width:0.0469;stroke-linecap:round;stroke-linejoin:round;"
   d="M 0 -0.5 L 7 6.5 L 21 6.5 L 14 -0.5 L 0 -0.5 z "
   id="cellLidTop"
   sodipodi:nodetypes="cccccc"
   transform="matrix(0.833625,0,0,0.833625,-2.414825,0.777169)" /></g></svg>
