<?xml version="1.0" encoding="UTF-8" standalone="no"?>
<!DOCTYPE svg PUBLIC "-//W3C//DTD SVG 20010904//EN"
"http://www.w3.org/TR/2001/REC-SVG-20010904/DTD/svg10.dtd">
<!-- Created with Sodipodi ("http://www.sodipodi.com/") -->
<svg
   xmlns="http://www.w3.org/2000/svg"
   xmlns:sodipodi="http://sodipodi.sourceforge.net/DTD/sodipodi-0.dtd"
   xmlns:inkscape="http://www.inkscape.org/namespaces/inkscape"
   xmlns:xlink="http://www.w3.org/1999/xlink"
   id="svg602"
   sodipodi:version="0.34"
   width="30pt"
   height="30pt"
   xml:space="preserve"
   sodipodi:docname="/home/nix/tmp/QCADesigner/pixmaps/graph_data_dec.svg"
   inkscape:version="0.37"
   sodipodi:docbase="/home/nix/tmp/QCADesigner/pixmaps"><defs
   id="defs604" /><sodipodi:namedview
   id="base"
   inkscape:zoom="10.3333333"
   inkscape:cx="15"
   inkscape:cy="15"
   inkscape:window-width="400"
   inkscape:window-height="501"
   inkscape:window-x="121"
   inkscape:window-y="34" /><g
   id="Decimal Honeycomb"><path
   style="font-size:12;fill:#3f3f3f;fill-rule:evenodd;stroke:#000000;stroke-width:0.625;stroke-linecap:round;stroke-linejoin:round;"
   d="M 1.8145162 18.629031 L 6.0332662 28.669354 L 31.345766 28.669354 L 35.564516 18.629031 L 31.345766 8.5887088 L 6.0332662 8.5887088 L 1.8145162 18.629031 z "
   id="Honeycomb"
   sodipodi:nodetypes="ccccccc"
   transform="translate(6.048441e-2,0)" /><path
   transform="translate(0.153476,0.569546)"
   style="font-size:12;font-weight:normal;fill:#ffff00;stroke-width:1;font-family:Bitstream Vera Serif;text-anchor:middle;"
   d="M 5.307461 15.76554 L 4.651211 15.76554 L 4.651211 14.20695 C 5.06918 13.98429 5.489101 13.81437 5.910976 13.69718 C 6.336758 13.57999 6.752773 13.5214 7.159023 13.5214 C 8.06918 13.5214 8.78793 13.7421 9.315273 14.18351 C 9.842617 14.62492 10.10629 15.22453 10.10629 15.98234 C 10.10629 16.83781 9.508633 17.86124 8.31332 19.05265 C 8.21957 19.14249 8.149258 19.21085 8.102383 19.25773 L 5.893398 21.46671 L 9.543789 21.46671 L 9.543789 20.38859 L 10.22934 20.38859 L 10.22934 22.42765 L 4.586758 22.42765 L 4.586758 21.78898 L 7.241055 19.14054 C 7.826992 18.5546 8.244961 18.01749 8.494961 17.52921 C 8.744961 17.03703 8.869961 16.5214 8.869961 15.98234 C 8.869961 15.39249 8.715664 14.93156 8.40707 14.59953 C 8.102383 14.26749 7.680508 14.10148 7.141445 14.10148 C 6.582851 14.10148 6.151211 14.24015 5.846523 14.51749 C 5.541836 14.79484 5.362148 15.21085 5.307461 15.76554 z M 15.59652 19.46281 L 15.59652 14.81046 L 12.60824 19.46281 L 15.59652 19.46281 z M 18.17465 22.42765 L 14.19027 22.42765 L 14.19027 21.80656 L 15.59652 21.80656 L 15.59652 20.08976 L 11.77621 20.08976 L 11.77621 19.45109 L 15.60824 13.5214 L 16.7684 13.5214 L 16.7684 19.46281 L 18.43832 19.46281 L 18.43832 20.08976 L 16.7684 20.08976 L 16.7684 21.80656 L 18.17465 21.80656 L 18.17465 22.42765 z M 22.85629 22.01749 C 23.45395 22.01749 23.90121 21.68937 24.19809 21.03312 C 24.49496 20.37687 24.6434 19.38663 24.6434 18.06242 C 24.6434 16.73429 24.49496 15.7421 24.19809 15.08585 C 23.90121 14.4296 23.45395 14.10148 22.85629 14.10148 C 22.25863 14.10148 21.81137 14.4296 21.51449 15.08585 C 21.21762 15.7421 21.06918 16.73429 21.06918 18.06242 C 21.06918 19.38663 21.21762 20.37687 21.51449 21.03312 C 21.81137 21.68937 22.25863 22.01749 22.85629 22.01749 z M 22.85629 22.59757 C 21.90707 22.59757 21.16488 22.19913 20.62973 21.40226 C 20.09848 20.60538 19.83285 19.4921 19.83285 18.06242 C 19.83285 16.62882 20.09848 15.51359 20.62973 14.71671 C 21.16488 13.91984 21.90707 13.5214 22.85629 13.5214 C 23.80941 13.5214 24.5516 13.91984 25.08285 14.71671 C 25.6141 15.51359 25.87973 16.62882 25.87973 18.06242 C 25.87973 19.4921 25.6141 20.60538 25.08285 21.40226 C 24.5516 22.19913 23.80941 22.59757 22.85629 22.59757 z M 28.38168 22.42765 L 28.38168 21.80656 L 29.90512 21.80656 L 29.90512 14.52921 L 28.14145 15.67179 L 28.14145 14.90421 L 30.27426 13.5214 L 31.08285 13.5214 L 31.08285 21.80656 L 32.60629 21.80656 L 32.60629 22.42765 L 28.38168 22.42765 z "
   id="dec:2401" /></g></svg>
