<?xml version="1.0" encoding="UTF-8" standalone="no"?>
<!DOCTYPE svg PUBLIC "-//W3C//DTD SVG 20010904//EN"
"http://www.w3.org/TR/2001/REC-SVG-20010904/DTD/svg10.dtd">
<!-- Created with Sodipodi ("http://www.sodipodi.com/") -->
<svg
   xmlns="http://www.w3.org/2000/svg"
   xmlns:sodipodi="http://sodipodi.sourceforge.net/DTD/sodipodi-0.dtd"
   xmlns:inkscape="http://www.inkscape.org/namespaces/inkscape"
   xmlns:xlink="http://www.w3.org/1999/xlink"
   id="svg602"
   sodipodi:version="0.34"
   width="30pt"
   height="30pt"
   xml:space="preserve"
   sodipodi:docname="/home/nix/tmp/QCADesigner/pixmaps/graph_data_hex.svg"
   inkscape:version="0.37"
   sodipodi:docbase="/home/nix/tmp/QCADesigner/pixmaps"><defs
   id="defs604" /><sodipodi:namedview
   id="base"
   inkscape:zoom="10.3333333"
   inkscape:cx="15"
   inkscape:cy="15"
   inkscape:window-width="400"
   inkscape:window-height="501"
   inkscape:window-x="121"
   inkscape:window-y="34" /><g
   id="Hexadecimal Honeycomb"><path
   style="font-size:12;fill:#3f3f3f;fill-rule:evenodd;stroke:#000000;stroke-width:0.625;stroke-linecap:round;stroke-linejoin:round;"
   d="M 1.8145162 18.629031 L 6.0332662 28.669354 L 31.345766 28.669354 L 35.564516 18.629031 L 31.345766 8.5887088 L 6.0332662 8.5887088 L 1.8145162 18.629031 z "
   id="Honeycomb"
   sodipodi:nodetypes="ccccccc"
   transform="translate(6.048441e-2,0)" /><path
   transform="translate(-0.171397,0.605053)"
   style="font-size:12;font-weight:normal;fill:#ffff00;stroke-width:1;font-family:Bitstream Vera Serif;text-anchor:middle;"
   d="M 4.668467 15.73004 L 4.012217 15.73004 L 4.012217 14.17144 C 4.430185 13.94879 4.850107 13.77886 5.271982 13.66168 C 5.697763 13.54449 6.113779 13.4859 6.520029 13.4859 C 7.430185 13.4859 8.148935 13.7066 8.676279 14.148 C 9.203623 14.58941 9.467295 15.18902 9.467295 15.94683 C 9.467295 16.8023 8.869638 17.82574 7.674326 19.01715 C 7.580576 19.10699 7.510263 19.17535 7.463388 19.22222 L 5.254404 21.43121 L 8.904795 21.43121 L 8.904795 20.35308 L 9.590342 20.35308 L 9.590342 22.39215 L 3.947763 22.39215 L 3.947763 21.75347 L 6.60206 19.10504 C 7.187998 18.5191 7.605967 17.98199 7.855967 17.49371 C 8.105967 17.00152 8.230967 16.4859 8.230967 15.94683 C 8.230967 15.35699 8.07667 14.89605 7.768076 14.56402 C 7.463388 14.23199 7.041513 14.06597 6.502451 14.06597 C 5.943857 14.06597 5.512217 14.20465 5.207529 14.48199 C 4.902842 14.75933 4.723154 15.17535 4.668467 15.73004 z M 13.17042 19.22222 L 16.38136 19.22222 L 14.77589 15.06207 L 13.17042 19.22222 z M 10.69776 22.39215 L 10.69776 21.77105 L 11.46534 21.77105 L 14.58253 13.6441 L 15.5669 13.6441 L 18.68995 21.77105 L 19.55128 21.77105 L 19.55128 22.39215 L 16.36964 22.39215 L 16.36964 21.77105 L 17.34229 21.77105 L 16.60987 19.84918 L 12.93019 19.84918 L 12.19776 21.77105 L 13.1587 21.77105 L 13.1587 22.39215 L 10.69776 22.39215 z M 21.13917 22.39215 L 21.13917 21.77105 L 22.66261 21.77105 L 22.66261 14.49371 L 20.89894 15.63629 L 20.89894 14.86871 L 23.03175 13.4859 L 23.84034 13.4859 L 23.84034 21.77105 L 25.36378 21.77105 L 25.36378 22.39215 L 21.13917 22.39215 z M 32.68214 18.47222 C 32.42042 18.76519 32.11964 18.98394 31.77979 19.12847 C 31.43995 19.273 31.05714 19.34527 30.63136 19.34527 C 29.76417 19.34527 29.07862 19.08355 28.57472 18.56011 C 28.07472 18.03668 27.82472 17.32183 27.82472 16.41558 C 27.82472 15.52886 28.0962 14.81988 28.63917 14.28863 C 29.18604 13.75347 29.91456 13.4859 30.82472 13.4859 C 31.813 13.4859 32.57081 13.85504 33.09815 14.59332 C 33.6294 15.32769 33.89503 16.37847 33.89503 17.74566 C 33.89503 19.27691 33.58058 20.46246 32.95167 21.3023 C 32.32276 22.14215 31.438 22.56207 30.29737 22.56207 C 29.98878 22.56207 29.66456 22.53277 29.32472 22.47418 C 28.98487 22.41558 28.63722 22.32769 28.28175 22.2105 L 28.28175 20.75738 L 28.938 20.75738 C 28.98878 21.15191 29.14112 21.45465 29.39503 21.66558 C 29.64894 21.87652 29.98878 21.98199 30.41456 21.98199 C 31.17237 21.98199 31.73683 21.69683 32.10792 21.12652 C 32.47901 20.5523 32.67042 19.66754 32.68214 18.47222 z M 30.77784 14.06597 C 30.22315 14.06597 29.79737 14.2691 29.5005 14.67535 C 29.20753 15.07769 29.06104 15.65777 29.06104 16.41558 C 29.06104 17.1734 29.20753 17.75543 29.5005 18.16168 C 29.79737 18.56793 30.22315 18.77105 30.77784 18.77105 C 31.33253 18.77105 31.75636 18.57574 32.04933 18.18511 C 32.3462 17.79058 32.49464 17.22418 32.49464 16.4859 C 32.49464 15.70855 32.3462 15.1109 32.04933 14.69293 C 31.75245 14.27496 31.32862 14.06597 30.77784 14.06597 z "
   id="hex:2A19" /></g></svg>
