<?xml version="1.0" encoding="UTF-8" standalone="no"?>
<!DOCTYPE svg PUBLIC "-//W3C//DTD SVG 20010904//EN"
"http://www.w3.org/TR/2001/REC-SVG-20010904/DTD/svg10.dtd">
<!-- Created with Sodipodi ("http://www.sodipodi.com/") -->
<svg
   xmlns="http://www.w3.org/2000/svg"
   xmlns:sodipodi="http://sodipodi.sourceforge.net/DTD/sodipodi-0.dtd"
   xmlns:xlink="http://www.w3.org/1999/xlink"
   id="svg602"
   sodipodi:version="0.34"
   width="30pt"
   height="30pt"
   xml:space="preserve"
   sodipodi:docname="q_cell_array.svg"><defs
   id="defs604" /><sodipodi:namedview
   id="base" /><g
   id="g741"
   transform="translate(6.153584e-3,-7.152557e-6)"><g
   id="g662"
   transform="matrix(1.66725,0,0,1.66725,14.52512,11.24738)"
   style="font-size:12;"><path
   style="font-size:12;fill:#00ffff;fill-rule:evenodd;stroke:#000000;stroke-width:0.0469;stroke-linejoin:round;stroke-linecap:round;fill-opacity:0.2471;stroke-opacity:1;stroke-dasharray:none;"
   d="M 0 2.5 L 7 9.5 L 21 9.5 L 14 2.5 L 0 2.5 z "
   id="path663"
   sodipodi:nodetypes="cccccc" /><path
   style="font-size:12;fill:#00ffff;fill-rule:evenodd;stroke:#000000;stroke-width:0.0469;fill-opacity:0.2471;stroke-opacity:1;stroke-dasharray:none;"
   d="M 0 -0.5 L 0 2.5 L 14 2.5 L 14 -0.5 L 0 -0.5 z "
   id="path664"
   sodipodi:nodetypes="cccccc" /><path
   style="font-size:12;fill:#00ffff;fill-rule:evenodd;stroke:#000000;stroke-width:0.0469;stroke-linejoin:round;stroke-linecap:round;fill-opacity:0.2471;stroke-opacity:1;stroke-dasharray:none;"
   d="M 14 -0.5 L 21 6.5 L 21 9.5 L 14 2.5 L 14 -0.5 z "
   id="path665" /><g
   id="g666"
   transform="translate(8,0)"
   style="fill:#00ff00;fill-opacity:0.5;stroke:#000000;stroke-opacity:1;stroke-width:0.0469;stroke-dasharray:none;stroke-linejoin:round;stroke-linecap:round;"><path
   style="fill:#00ff00;fill-rule:evenodd;stroke:#000000;stroke-opacity:1;stroke-width:0.0469;stroke-linejoin:round;stroke-linecap:round;fill-opacity:0.5;stroke-dasharray:none;"
   d="M 4.5 2.6 C 6.5 2.6 6.5 3.5 6.5 3.5 C 6.5 3.5 6.5 4.4 4.5 4.4 C 2.5 4.4 2.5 3.5 2.5 3.5 C 2.5 3.5 2.5 2.6 4.5 2.6 z "
   id="path667"
   sodipodi:nodetypes="ccccc" /><path
   style="font-size:12;fill:#00ff00;fill-rule:evenodd;stroke:#000000;stroke-width:0.0469;stroke-linecap:round;stroke-linejoin:round;fill-opacity:0.5;stroke-opacity:1;stroke-dasharray:none;"
   d="M 2.5 1.5 C 2.5 1.5 2.5 0.6 4.5 0.6 C 6.5 0.6 6.5 1.5 6.5 1.5 L 6.5 3.5 C 6.5 3.5 6.5 2.6 4.5 2.6 C 2.5 2.6 2.5 3.5 2.5 3.5 z "
   id="path668"
   sodipodi:nodetypes="ccccccc" /><path
   style="font-size:12;fill:#00ff00;fill-rule:evenodd;stroke:#000000;stroke-width:0.0469;stroke-linecap:round;stroke-linejoin:round;fill-opacity:0.5;stroke-opacity:1;stroke-dasharray:none;"
   d="M 2.5 1.5 C 2.5 1.5 2.5 2.4 4.5 2.4 C 6.5 2.4 6.5 1.5 6.5 1.5 L 6.5 3.5 C 6.5 3.5 6.5 4.4 4.5 4.4 C 2.5 4.4 2.5 3.5 2.5 3.5 z "
   id="path669"
   sodipodi:nodetypes="ccccccc" /><path
   style="fill:#00ff00;fill-rule:evenodd;stroke:#000000;stroke-opacity:1;stroke-width:0.0469;stroke-linejoin:round;stroke-linecap:round;fill-opacity:0.5;stroke-dasharray:none;"
   d="M 4.5 0.6 C 6.5 0.6 6.5 1.5 6.5 1.5 C 6.5 1.5 6.5 2.4 4.5 2.4 C 2.5 2.4 2.5 1.5 2.5 1.5 C 2.5 1.5 2.5 0.6 4.5 0.6 z "
   id="path670"
   sodipodi:nodetypes="ccccc" /></g><g
   id="g671"
   style="fill:#00ff00;fill-opacity:0.5;stroke:#000000;stroke-opacity:1;stroke-width:0.0469;stroke-dasharray:none;stroke-linejoin:round;stroke-linecap:round;"><path
   style="fill:#00ff00;fill-rule:evenodd;stroke:#000000;stroke-opacity:1;stroke-width:0.0469;stroke-linejoin:round;stroke-linecap:round;fill-opacity:0.5;stroke-dasharray:none;"
   d="M 4.5 2.6 C 6.5 2.6 6.5 3.5 6.5 3.5 C 6.5 3.5 6.5 4.4 4.5 4.4 C 2.5 4.4 2.5 3.5 2.5 3.5 C 2.5 3.5 2.5 2.6 4.5 2.6 z "
   id="path672"
   sodipodi:nodetypes="ccccc" /><path
   style="font-size:12;fill:#00ff00;fill-rule:evenodd;stroke:#000000;stroke-width:0.0469;stroke-linecap:round;stroke-linejoin:round;fill-opacity:0.5;stroke-opacity:1;stroke-dasharray:none;"
   d="M 2.5 1.5 C 2.5 1.5 2.5 0.6 4.5 0.6 C 6.5 0.6 6.5 1.5 6.5 1.5 L 6.5 3.5 C 6.5 3.5 6.5 2.6 4.5 2.6 C 2.5 2.6 2.5 3.5 2.5 3.5 z "
   id="path673"
   sodipodi:nodetypes="ccccccc" /><path
   style="font-size:12;fill:#00ff00;fill-rule:evenodd;stroke:#000000;stroke-width:0.0469;stroke-linecap:round;stroke-linejoin:round;fill-opacity:0.5;stroke-opacity:1;stroke-dasharray:none;"
   d="M 2.5 1.5 C 2.5 1.5 2.5 2.4 4.5 2.4 C 6.5 2.4 6.5 1.5 6.5 1.5 L 6.5 3.5 C 6.5 3.5 6.5 4.4 4.5 4.4 C 2.5 4.4 2.5 3.5 2.5 3.5 z "
   id="path674"
   sodipodi:nodetypes="ccccccc" /><path
   style="fill:#00ff00;fill-rule:evenodd;stroke:#000000;stroke-opacity:1;stroke-width:0.0469;stroke-linejoin:round;stroke-linecap:round;fill-opacity:0.5;stroke-dasharray:none;"
   d="M 4.5 0.6 C 6.5 0.6 6.5 1.5 6.5 1.5 C 6.5 1.5 6.5 2.4 4.5 2.4 C 2.5 2.4 2.5 1.5 2.5 1.5 C 2.5 1.5 2.5 0.6 4.5 0.6 z "
   id="path675"
   sodipodi:nodetypes="ccccc" /></g><g
   id="g676"
   transform="translate(12,4)"
   style="fill:#00ff00;fill-opacity:0.5;stroke:#000000;stroke-opacity:1;stroke-width:0.0469;stroke-dasharray:none;stroke-linejoin:round;stroke-linecap:round;"><path
   style="fill:#00ff00;fill-rule:evenodd;stroke:#000000;stroke-opacity:1;stroke-width:0.0469;stroke-linejoin:round;stroke-linecap:round;fill-opacity:0.5;stroke-dasharray:none;"
   d="M 4.5 2.6 C 6.5 2.6 6.5 3.5 6.5 3.5 C 6.5 3.5 6.5 4.4 4.5 4.4 C 2.5 4.4 2.5 3.5 2.5 3.5 C 2.5 3.5 2.5 2.6 4.5 2.6 z "
   id="path677"
   sodipodi:nodetypes="ccccc" /><path
   style="font-size:12;fill:#00ff00;fill-rule:evenodd;stroke:#000000;stroke-width:0.0469;stroke-linecap:round;stroke-linejoin:round;fill-opacity:0.5;stroke-opacity:1;stroke-dasharray:none;"
   d="M 2.5 1.5 C 2.5 1.5 2.5 0.6 4.5 0.6 C 6.5 0.6 6.5 1.5 6.5 1.5 L 6.5 3.5 C 6.5 3.5 6.5 2.6 4.5 2.6 C 2.5 2.6 2.5 3.5 2.5 3.5 z "
   id="path678"
   sodipodi:nodetypes="ccccccc" /><path
   style="font-size:12;fill:#00ff00;fill-rule:evenodd;stroke:#000000;stroke-width:0.0469;stroke-linecap:round;stroke-linejoin:round;fill-opacity:0.5;stroke-opacity:1;stroke-dasharray:none;"
   d="M 2.5 1.5 C 2.5 1.5 2.5 2.4 4.5 2.4 C 6.5 2.4 6.5 1.5 6.5 1.5 L 6.5 3.5 C 6.5 3.5 6.5 4.4 4.5 4.4 C 2.5 4.4 2.5 3.5 2.5 3.5 z "
   id="path679"
   sodipodi:nodetypes="ccccccc" /><path
   style="fill:#00ff00;fill-rule:evenodd;stroke:#000000;stroke-opacity:1;stroke-width:0.0469;stroke-linejoin:round;stroke-linecap:round;fill-opacity:0.5;stroke-dasharray:none;"
   d="M 4.5 0.6 C 6.5 0.6 6.5 1.5 6.5 1.5 C 6.5 1.5 6.5 2.4 4.5 2.4 C 2.5 2.4 2.5 1.5 2.5 1.5 C 2.5 1.5 2.5 0.6 4.5 0.6 z "
   id="path680"
   sodipodi:nodetypes="ccccc" /></g><g
   id="g681"
   transform="translate(4,4)"
   style="fill:#00ff00;fill-opacity:0.5;stroke:#000000;stroke-opacity:1;stroke-width:0.0469;stroke-dasharray:none;stroke-linejoin:round;stroke-linecap:round;"><path
   style="fill:#00ff00;fill-rule:evenodd;stroke:#000000;stroke-opacity:1;stroke-width:0.0469;stroke-linejoin:round;stroke-linecap:round;fill-opacity:0.5;stroke-dasharray:none;"
   d="M 4.5 2.6 C 6.5 2.6 6.5 3.5 6.5 3.5 C 6.5 3.5 6.5 4.4 4.5 4.4 C 2.5 4.4 2.5 3.5 2.5 3.5 C 2.5 3.5 2.5 2.6 4.5 2.6 z "
   id="path682"
   sodipodi:nodetypes="ccccc" /><path
   style="font-size:12;fill:#00ff00;fill-rule:evenodd;stroke:#000000;stroke-width:0.0469;stroke-linecap:round;stroke-linejoin:round;fill-opacity:0.5;stroke-opacity:1;stroke-dasharray:none;"
   d="M 2.5 1.5 C 2.5 1.5 2.5 0.6 4.5 0.6 C 6.5 0.6 6.5 1.5 6.5 1.5 L 6.5 3.5 C 6.5 3.5 6.5 2.6 4.5 2.6 C 2.5 2.6 2.5 3.5 2.5 3.5 z "
   id="path683"
   sodipodi:nodetypes="ccccccc" /><path
   style="font-size:12;fill:#00ff00;fill-rule:evenodd;stroke:#000000;stroke-width:0.0469;stroke-linecap:round;stroke-linejoin:round;fill-opacity:0.5;stroke-opacity:1;stroke-dasharray:none;"
   d="M 2.5 1.5 C 2.5 1.5 2.5 2.4 4.5 2.4 C 6.5 2.4 6.5 1.5 6.5 1.5 L 6.5 3.5 C 6.5 3.5 6.5 4.4 4.5 4.4 C 2.5 4.4 2.5 3.5 2.5 3.5 z "
   id="path684"
   sodipodi:nodetypes="ccccccc" /><path
   style="fill:#00ff00;fill-rule:evenodd;stroke:#000000;stroke-opacity:1;stroke-width:0.0469;stroke-linejoin:round;stroke-linecap:round;fill-opacity:0.5;stroke-dasharray:none;"
   d="M 4.5 0.6 C 6.5 0.6 6.5 1.5 6.5 1.5 C 6.5 1.5 6.5 2.4 4.5 2.4 C 2.5 2.4 2.5 1.5 2.5 1.5 C 2.5 1.5 2.5 0.6 4.5 0.6 z "
   id="path685"
   sodipodi:nodetypes="ccccc" /></g><path
   style="font-size:12;fill:#00ffff;fill-rule:evenodd;stroke:#000000;stroke-width:0.0469;stroke-linejoin:round;stroke-linecap:round;fill-opacity:0.2471;stroke-opacity:1;stroke-dasharray:none;"
   d="M 0 -0.5 L 7 6.5 L 7 9.5 L 0 2.5 L 0 -0.5 z "
   id="path686" /><path
   style="font-size:12;fill:#00ffff;fill-rule:evenodd;stroke:#000000;stroke-width:0.0469;stroke-linejoin:round;stroke-linecap:round;fill-opacity:0.2471;stroke-opacity:1;stroke-dasharray:none;"
   d="M 7 6.5 L 7 9.5 L 21 9.5 L 21 6.5 L 7 6.5 z "
   id="path687" /><path
   style="font-size:12;fill:#00ffff;fill-rule:evenodd;stroke:#000000;stroke-width:0.0469;stroke-linejoin:round;stroke-linecap:round;fill-opacity:0.25;stroke-opacity:1;stroke-dasharray:none;"
   d="M 0 -0.5 L 7 6.5 L 21 6.5 L 14 -0.5 L 0 -0.5 z "
   id="path688"
   sodipodi:nodetypes="cccccc" /></g><g
   id="cell"
   transform="matrix(1.66725,0,0,1.66725,-12.04968,11.24738)"
   style="font-size:12;"><path
   style="font-size:12;fill:#00ffff;fill-rule:evenodd;stroke:#000000;stroke-width:0.0469;stroke-linejoin:round;stroke-linecap:round;fill-opacity:0.2471;stroke-opacity:1;stroke-dasharray:none;"
   d="M 0 2.5 L 7 9.5 L 21 9.5 L 14 2.5 L 0 2.5 z "
   id="cellLidBot"
   sodipodi:nodetypes="cccccc" /><path
   style="font-size:12;fill:#00ffff;fill-rule:evenodd;stroke:#000000;stroke-width:0.0469;fill-opacity:0.2471;stroke-opacity:1;stroke-dasharray:none;"
   d="M 0 -0.5 L 0 2.5 L 14 2.5 L 14 -0.5 L 0 -0.5 z "
   id="cellWallN"
   sodipodi:nodetypes="cccccc" /><path
   style="font-size:12;fill:#00ffff;fill-rule:evenodd;stroke:#000000;stroke-width:0.0469;stroke-linejoin:round;stroke-linecap:round;fill-opacity:0.2471;stroke-opacity:1;stroke-dasharray:none;"
   d="M 14 -0.5 L 21 6.5 L 21 9.5 L 14 2.5 L 14 -0.5 z "
   id="cellWallE" /><g
   id="Dot2"
   transform="translate(8,0)"
   style="fill:#00ff00;fill-opacity:0.5;stroke:#000000;stroke-opacity:1;stroke-width:0.0469;stroke-dasharray:none;stroke-linejoin:round;stroke-linecap:round;"><path
   style="fill:#00ff00;fill-rule:evenodd;stroke:#000000;stroke-opacity:1;stroke-width:0.0469;stroke-linejoin:round;stroke-linecap:round;fill-opacity:0.5;stroke-dasharray:none;"
   d="M 4.5 2.6 C 6.5 2.6 6.5 3.5 6.5 3.5 C 6.5 3.5 6.5 4.4 4.5 4.4 C 2.5 4.4 2.5 3.5 2.5 3.5 C 2.5 3.5 2.5 2.6 4.5 2.6 z "
   id="path619"
   sodipodi:nodetypes="ccccc" /><path
   style="font-size:12;fill:#00ff00;fill-rule:evenodd;stroke:#000000;stroke-width:0.0469;stroke-linecap:round;stroke-linejoin:round;fill-opacity:0.5;stroke-opacity:1;stroke-dasharray:none;"
   d="M 2.5 1.5 C 2.5 1.5 2.5 0.6 4.5 0.6 C 6.5 0.6 6.5 1.5 6.5 1.5 L 6.5 3.5 C 6.5 3.5 6.5 2.6 4.5 2.6 C 2.5 2.6 2.5 3.5 2.5 3.5 z "
   id="path620"
   sodipodi:nodetypes="ccccccc" /><path
   style="font-size:12;fill:#00ff00;fill-rule:evenodd;stroke:#000000;stroke-width:0.0469;stroke-linecap:round;stroke-linejoin:round;fill-opacity:0.5;stroke-opacity:1;stroke-dasharray:none;"
   d="M 2.5 1.5 C 2.5 1.5 2.5 2.4 4.5 2.4 C 6.5 2.4 6.5 1.5 6.5 1.5 L 6.5 3.5 C 6.5 3.5 6.5 4.4 4.5 4.4 C 2.5 4.4 2.5 3.5 2.5 3.5 z "
   id="path621"
   sodipodi:nodetypes="ccccccc" /><path
   style="fill:#00ff00;fill-rule:evenodd;stroke:#000000;stroke-opacity:1;stroke-width:0.0469;stroke-linejoin:round;stroke-linecap:round;fill-opacity:0.5;stroke-dasharray:none;"
   d="M 4.5 0.6 C 6.5 0.6 6.5 1.5 6.5 1.5 C 6.5 1.5 6.5 2.4 4.5 2.4 C 2.5 2.4 2.5 1.5 2.5 1.5 C 2.5 1.5 2.5 0.6 4.5 0.6 z "
   id="path622"
   sodipodi:nodetypes="ccccc" /></g><g
   id="Dot1"
   style="fill:#00ff00;fill-opacity:0.5;stroke:#000000;stroke-opacity:1;stroke-width:0.0469;stroke-dasharray:none;stroke-linejoin:round;stroke-linecap:round;"><path
   style="fill:#00ff00;fill-rule:evenodd;stroke:#000000;stroke-opacity:1;stroke-width:0.0469;stroke-linejoin:round;stroke-linecap:round;fill-opacity:0.5;stroke-dasharray:none;"
   d="M 4.5 2.6 C 6.5 2.6 6.5 3.5 6.5 3.5 C 6.5 3.5 6.5 4.4 4.5 4.4 C 2.5 4.4 2.5 3.5 2.5 3.5 C 2.5 3.5 2.5 2.6 4.5 2.6 z "
   id="dotLidBot"
   sodipodi:nodetypes="ccccc" /><path
   style="font-size:12;fill:#00ff00;fill-rule:evenodd;stroke:#000000;stroke-width:0.0469;stroke-linecap:round;stroke-linejoin:round;fill-opacity:0.5;stroke-opacity:1;stroke-dasharray:none;"
   d="M 2.5 1.5 C 2.5 1.5 2.5 0.6 4.5 0.6 C 6.5 0.6 6.5 1.5 6.5 1.5 L 6.5 3.5 C 6.5 3.5 6.5 2.6 4.5 2.6 C 2.5 2.6 2.5 3.5 2.5 3.5 z "
   id="dotBack"
   sodipodi:nodetypes="ccccccc" /><path
   style="font-size:12;fill:#00ff00;fill-rule:evenodd;stroke:#000000;stroke-width:0.0469;stroke-linecap:round;stroke-linejoin:round;fill-opacity:0.5;stroke-opacity:1;stroke-dasharray:none;"
   d="M 2.5 1.5 C 2.5 1.5 2.5 2.4 4.5 2.4 C 6.5 2.4 6.5 1.5 6.5 1.5 L 6.5 3.5 C 6.5 3.5 6.5 4.4 4.5 4.4 C 2.5 4.4 2.5 3.5 2.5 3.5 z "
   id="dotFront"
   sodipodi:nodetypes="ccccccc" /><path
   style="fill:#00ff00;fill-rule:evenodd;stroke:#000000;stroke-opacity:1;stroke-width:0.0469;stroke-linejoin:round;stroke-linecap:round;fill-opacity:0.5;stroke-dasharray:none;"
   d="M 4.5 0.6 C 6.5 0.6 6.5 1.5 6.5 1.5 C 6.5 1.5 6.5 2.4 4.5 2.4 C 2.5 2.4 2.5 1.5 2.5 1.5 C 2.5 1.5 2.5 0.6 4.5 0.6 z "
   id="dotLidTop"
   sodipodi:nodetypes="ccccc" /></g><g
   id="Dot3"
   transform="translate(12,4)"
   style="fill:#00ff00;fill-opacity:0.5;stroke:#000000;stroke-opacity:1;stroke-width:0.0469;stroke-dasharray:none;stroke-linejoin:round;stroke-linecap:round;"><path
   style="fill:#00ff00;fill-rule:evenodd;stroke:#000000;stroke-opacity:1;stroke-width:0.0469;stroke-linejoin:round;stroke-linecap:round;fill-opacity:0.5;stroke-dasharray:none;"
   d="M 4.5 2.6 C 6.5 2.6 6.5 3.5 6.5 3.5 C 6.5 3.5 6.5 4.4 4.5 4.4 C 2.5 4.4 2.5 3.5 2.5 3.5 C 2.5 3.5 2.5 2.6 4.5 2.6 z "
   id="path624"
   sodipodi:nodetypes="ccccc" /><path
   style="font-size:12;fill:#00ff00;fill-rule:evenodd;stroke:#000000;stroke-width:0.0469;stroke-linecap:round;stroke-linejoin:round;fill-opacity:0.5;stroke-opacity:1;stroke-dasharray:none;"
   d="M 2.5 1.5 C 2.5 1.5 2.5 0.6 4.5 0.6 C 6.5 0.6 6.5 1.5 6.5 1.5 L 6.5 3.5 C 6.5 3.5 6.5 2.6 4.5 2.6 C 2.5 2.6 2.5 3.5 2.5 3.5 z "
   id="path625"
   sodipodi:nodetypes="ccccccc" /><path
   style="font-size:12;fill:#00ff00;fill-rule:evenodd;stroke:#000000;stroke-width:0.0469;stroke-linecap:round;stroke-linejoin:round;fill-opacity:0.5;stroke-opacity:1;stroke-dasharray:none;"
   d="M 2.5 1.5 C 2.5 1.5 2.5 2.4 4.5 2.4 C 6.5 2.4 6.5 1.5 6.5 1.5 L 6.5 3.5 C 6.5 3.5 6.5 4.4 4.5 4.4 C 2.5 4.4 2.5 3.5 2.5 3.5 z "
   id="path626"
   sodipodi:nodetypes="ccccccc" /><path
   style="fill:#00ff00;fill-rule:evenodd;stroke:#000000;stroke-opacity:1;stroke-width:0.0469;stroke-linejoin:round;stroke-linecap:round;fill-opacity:0.5;stroke-dasharray:none;"
   d="M 4.5 0.6 C 6.5 0.6 6.5 1.5 6.5 1.5 C 6.5 1.5 6.5 2.4 4.5 2.4 C 2.5 2.4 2.5 1.5 2.5 1.5 C 2.5 1.5 2.5 0.6 4.5 0.6 z "
   id="path627"
   sodipodi:nodetypes="ccccc" /></g><g
   id="Dot4"
   transform="translate(4,4)"
   style="fill:#00ff00;fill-opacity:0.5;stroke:#000000;stroke-opacity:1;stroke-width:0.0469;stroke-dasharray:none;stroke-linejoin:round;stroke-linecap:round;"><path
   style="fill:#00ff00;fill-rule:evenodd;stroke:#000000;stroke-opacity:1;stroke-width:0.0469;stroke-linejoin:round;stroke-linecap:round;fill-opacity:0.5;stroke-dasharray:none;"
   d="M 4.5 2.6 C 6.5 2.6 6.5 3.5 6.5 3.5 C 6.5 3.5 6.5 4.4 4.5 4.4 C 2.5 4.4 2.5 3.5 2.5 3.5 C 2.5 3.5 2.5 2.6 4.5 2.6 z "
   id="path629"
   sodipodi:nodetypes="ccccc" /><path
   style="font-size:12;fill:#00ff00;fill-rule:evenodd;stroke:#000000;stroke-width:0.0469;stroke-linecap:round;stroke-linejoin:round;fill-opacity:0.5;stroke-opacity:1;stroke-dasharray:none;"
   d="M 2.5 1.5 C 2.5 1.5 2.5 0.6 4.5 0.6 C 6.5 0.6 6.5 1.5 6.5 1.5 L 6.5 3.5 C 6.5 3.5 6.5 2.6 4.5 2.6 C 2.5 2.6 2.5 3.5 2.5 3.5 z "
   id="path630"
   sodipodi:nodetypes="ccccccc" /><path
   style="font-size:12;fill:#00ff00;fill-rule:evenodd;stroke:#000000;stroke-width:0.0469;stroke-linecap:round;stroke-linejoin:round;fill-opacity:0.5;stroke-opacity:1;stroke-dasharray:none;"
   d="M 2.5 1.5 C 2.5 1.5 2.5 2.4 4.5 2.4 C 6.5 2.4 6.5 1.5 6.5 1.5 L 6.5 3.5 C 6.5 3.5 6.5 4.4 4.5 4.4 C 2.5 4.4 2.5 3.5 2.5 3.5 z "
   id="path631"
   sodipodi:nodetypes="ccccccc" /><path
   style="fill:#00ff00;fill-rule:evenodd;stroke:#000000;stroke-opacity:1;stroke-width:0.0469;stroke-linejoin:round;stroke-linecap:round;fill-opacity:0.5;stroke-dasharray:none;"
   d="M 4.5 0.6 C 6.5 0.6 6.5 1.5 6.5 1.5 C 6.5 1.5 6.5 2.4 4.5 2.4 C 2.5 2.4 2.5 1.5 2.5 1.5 C 2.5 1.5 2.5 0.6 4.5 0.6 z "
   id="path632"
   sodipodi:nodetypes="ccccc" /></g><path
   style="font-size:12;fill:#00ffff;fill-rule:evenodd;stroke:#000000;stroke-width:0.0469;stroke-linejoin:round;stroke-linecap:round;fill-opacity:0.2471;stroke-opacity:1;stroke-dasharray:none;"
   d="M 0 -0.5 L 7 6.5 L 7 9.5 L 0 2.5 L 0 -0.5 z "
   id="cellWallW" /><path
   style="font-size:12;fill:#00ffff;fill-rule:evenodd;stroke:#000000;stroke-width:0.0469;stroke-linejoin:round;stroke-linecap:round;fill-opacity:0.2471;stroke-opacity:1;stroke-dasharray:none;"
   d="M 7 6.5 L 7 9.5 L 21 9.5 L 21 6.5 L 7 6.5 z "
   id="cellWallS" /><path
   style="font-size:12;fill:#00ffff;fill-rule:evenodd;stroke:#000000;stroke-width:0.0469;stroke-linejoin:round;stroke-linecap:round;fill-opacity:0.25;stroke-opacity:1;stroke-dasharray:none;"
   d="M 0 -0.5 L 7 6.5 L 21 6.5 L 14 -0.5 L 0 -0.5 z "
   id="cellLidTop"
   sodipodi:nodetypes="cccccc" /></g></g></svg>
