<?xml version="1.0" encoding="UTF-8" standalone="no"?>
<!DOCTYPE svg PUBLIC "-//W3C//DTD SVG 20010904//EN"
"http://www.w3.org/TR/2001/REC-SVG-20010904/DTD/svg10.dtd">
<!-- Created with Sodipodi ("http://www.sodipodi.com/") -->
<svg
   xmlns="http://www.w3.org/2000/svg"
   xmlns:sodipodi="http://sodipodi.sourceforge.net/DTD/sodipodi-0.dtd"
   xmlns:xlink="http://www.w3.org/1999/xlink"
   id="svg602"
   sodipodi:version="0.34"
   width="30pt"
   height="30pt"
   xml:space="preserve"
   sodipodi:docname="/home/nix/calgary/source/QCADesigner/pixmaps/q_cell_pan.svg"
   sodipodi:docbase="/home/nix/calgary/source/QCADesigner/pixmaps"><defs
   id="defs604"><linearGradient
   id="linearGradient751"><stop
   style="stop-color:#5ed7ff;stop-opacity:0.75;"
   offset="0"
   id="stop752" /><stop
   style="stop-color:#387f99;stop-opacity:0.75;"
   offset="1"
   id="stop753" /></linearGradient><linearGradient
   id="linearGradient746"><stop
   style="stop-color:#387f99;stop-opacity:0.75;"
   offset="0"
   id="stop747" /><stop
   style="stop-color:#2a5f73;stop-opacity:0.75;"
   offset="1"
   id="stop748" /></linearGradient><linearGradient
   id="linearGradient742"><stop
   style="stop-color:#000;stop-opacity:1;"
   offset="0"
   id="stop743" /><stop
   style="stop-color:#fff;stop-opacity:1;"
   offset="1"
   id="stop744" /></linearGradient><linearGradient
   xlink:href="#linearGradient746"
   id="linearGradient745"
   x1="7.67676951e-3"
   y1="3.03310901e-2"
   x2="0.9885059"
   y2="0.95454633" /><linearGradient
   xlink:href="#linearGradient746"
   id="linearGradient749"
   x1="1.15061589e-2"
   y1="5.97252995e-2"
   x2="0.99233735"
   y2="0.95522445" /><linearGradient
   xlink:href="#linearGradient751"
   id="linearGradient750"
   x1="2.32804194e-2"
   y1="2.34620664e-2"
   x2="0.98449641"
   y2="0.97656274" /><linearGradient
   xlink:href="#linearGradient751"
   id="linearGradient754"
   x1="1.93682779e-2"
   y1="2.58198865e-2"
   x2="0.98709714"
   y2="0.98709714" /><linearGradient
   xlink:href="#linearGradient746"
   id="linearGradient755"
   x1="1.93478279e-2"
   y1="1.93696264e-2"
   x2="0.98709637"
   y2="0.98064554" /><linearGradient
   xlink:href="#linearGradient746"
   id="linearGradient756"
   x1="1.5494734e-2"
   y1="2.34568827e-2"
   x2="0.99224776"
   y2="0.98437524" /><linearGradient
   xlink:href="#linearGradient751"
   id="linearGradient757"
   x1="7.67474109e-3"
   y1="0.96964568"
   x2="0.99616873"
   y2="1.51497126e-2" /><linearGradient
   xlink:href="#linearGradient751"
   id="linearGradient758"
   x1="7.67451618e-3"
   y1="0.97009939"
   x2="0.99233735"
   y2="4.47748639e-2" /><linearGradient
   xlink:href="#linearGradient746"
   id="linearGradient759"
   x1="1.93481408e-2"
   y1="0.97417831"
   x2="0.98709637"
   y2="1.93541385e-2" /><linearGradient
   xlink:href="#linearGradient746"
   id="linearGradient760"
   x1="1.54973418e-2"
   y1="0.97654796"
   x2="0.97674388"
   y2="2.3437202e-2" /><linearGradient
   xlink:href="#linearGradient746"
   id="linearGradient761"
   x1="1.55156348e-2"
   y1="0.9687376"
   x2="0.97674447"
   y2="3.1249702e-2" /><linearGradient
   xlink:href="#linearGradient746"
   id="linearGradient762"
   x1="1.29184555e-2"
   y1="0.98062873"
   x2="0.98709714"
   y2="1.93541385e-2" /><linearGradient
   xlink:href="#linearGradient746"
   id="linearGradient763"
   x1="1.53346835e-2"
   y1="2.29188222e-2"
   x2="0.99233747"
   y2="0.9770999" /><linearGradient
   xlink:href="#linearGradient746"
   id="linearGradient764"
   x1="7.79288169e-3"
   y1="2.34585106e-2"
   x2="0.99221832"
   y2="0.97656274" /><linearGradient
   xlink:href="#linearGradient746"
   id="linearGradient767"
   x1="1.55758765e-2"
   y1="0.97651386"
   x2="0.99221832"
   y2="1.56244934e-2" /><linearGradient
   xlink:href="#linearGradient746"
   id="linearGradient768"
   x1="7.67307822e-3"
   y1="0.98469013"
   x2="0.98850602"
   y2="1.52668916e-2" /><linearGradient
   xlink:href="#linearGradient746"
   id="linearGradient769"
   x1="0.13041902"
   y1="1.56275835e-2"
   x2="0.95652092"
   y2="0.98437506" /><linearGradient
   xlink:href="#linearGradient746"
   id="linearGradient770"
   x1="3.70181352e-2"
   y1="1.93580166e-2"
   x2="0.92592537"
   y2="0.98709702" /><linearGradient
   xlink:href="#linearGradient751"
   id="linearGradient771"
   x1="3.7053898e-2"
   y1="1.93575211e-2"
   x2="0.92592627"
   y2="0.98709702" /><linearGradient
   xlink:href="#linearGradient751"
   id="linearGradient772"
   x1="4.35029864e-2"
   y1="4.68790606e-2"
   x2="0.95652235"
   y2="0.98437506" /><linearGradient
   xlink:href="#linearGradient746"
   id="linearGradient736"
   x1="6.9756873e-2"
   y1="2.34416649e-2"
   x2="0.95348787"
   y2="0.9765628" /></defs><sodipodi:namedview
   id="base" /><g
   id="g756"
   transform="matrix(2.2,0,0,2.2,-22.5,-22.5)"><g
   id="Arrow"
   transform="matrix(0.576,0,0,0.576,6.654,2.621999)"
   style="font-size:12;"><g
   id="Arrow Head Top"><path
   style="font-size:12;fill:url(#linearGradient745);fill-opacity:1;fill-rule:evenodd;stroke:url(#linearGradient749);stroke-width:0.125;stroke-linecap:round;stroke-linejoin:round;stroke-opacity:1;"
   d="M 21 17.5 L 14 21 L 28 21 "
   id="Arrow Head Top:South Face"
   sodipodi:nodetypes="cccc" /><path
   style="font-size:12;fill:url(#linearGradient750);fill-opacity:1;fill-rule:evenodd;stroke:url(#linearGradient754);stroke-width:0.125;stroke-linecap:round;stroke-linejoin:round;"
   d="M 21 14 L 14 21 L 21 17.5 L 21 14 z "
   id="Arrow Head Top:West Face"
   sodipodi:nodetypes="ccc" /><path
   style="font-size:12;fill:url(#linearGradient756);fill-opacity:1;fill-rule:evenodd;stroke:url(#linearGradient755);stroke-width:0.125;stroke-linecap:round;stroke-linejoin:round;"
   d="M 21 14 L 28 21 L 21 17.5 L 21 14 z "
   id="Arrow Head Top:East Face"
   sodipodi:nodetypes="ccc" /></g><g
   id="Arrow Head Bottom"
   transform="matrix(1,0,0,-1,0,56)"><path
   style="font-size:12;fill:url(#linearGradient757);fill-opacity:1;fill-rule:evenodd;stroke:url(#linearGradient758);stroke-width:0.125;stroke-linecap:round;stroke-linejoin:round;stroke-opacity:1;"
   d="M 21 17.5 L 14 21 L 28 21 "
   id="Arrow Head Bottom:North Face"
   sodipodi:nodetypes="cccc" /><path
   style="font-size:12;fill:url(#linearGradient761);fill-opacity:1;fill-rule:evenodd;stroke:url(#linearGradient762);stroke-width:0.125;stroke-linecap:round;stroke-linejoin:round;"
   d="M 21 14 L 14 21 L 21 17.5 L 21 14 z "
   id="Arrow Head Bottom:West Face"
   sodipodi:nodetypes="ccc" /><path
   style="font-size:12;fill:url(#linearGradient760);fill-opacity:1;fill-rule:evenodd;stroke:url(#linearGradient759);stroke-width:0.125;stroke-linecap:round;stroke-linejoin:round;"
   d="M 21 14 L 28 21 L 21 17.5 L 21 14 z "
   id="Arrow Head Bottom:East Face"
   sodipodi:nodetypes="ccc" /></g><g
   id="Arrow Body"><path
   style="font-size:12;fill:url(#linearGradient767);fill-opacity:1;fill-rule:evenodd;stroke:url(#linearGradient768);stroke-width:0.125;stroke-linecap:round;stroke-linejoin:round;"
   d="M 21 17.5 L 24.5 21 L 17.5 21 L 21 17.5 "
   id="Arrow Body South"
   sodipodi:nodetypes="cccc"
   transform="matrix(1,0,0,-1,0,56)" /><path
   style="font-size:12;fill:url(#linearGradient764);fill-opacity:1;fill-rule:evenodd;stroke:url(#linearGradient763);stroke-width:0.125;stroke-linecap:round;stroke-linejoin:round;"
   d="M 21 17.5 L 24.5 21 L 17.5 21 L 21 17.5 "
   id="Arrow Body North"
   sodipodi:nodetypes="cccc" /><path
   style="font-size:12;fill:url(#linearGradient736);fill-opacity:1;fill-rule:evenodd;stroke:url(#linearGradient770);stroke-width:0.125;stroke-linecap:round;stroke-linejoin:round;"
   d="M 21 17.5 L 24.5 21 L 24.5 24.5 L 21 28 z"
   id="Arrow Body East Top"
   sodipodi:nodetypes="cccc" /><path
   style="font-size:12;fill:url(#linearGradient772);fill-opacity:1;fill-rule:evenodd;stroke:url(#linearGradient771);stroke-width:0.125;stroke-linecap:round;stroke-linejoin:round;"
   d="M 21 17.5 L 17.5 21 L 17.5 24.5 L 21 28 z"
   id="Arrow Body West Top"
   sodipodi:nodetypes="cccc" /><path
   style="font-size:12;fill:url(#linearGradient772);fill-opacity:1;fill-rule:evenodd;stroke:url(#linearGradient771);stroke-width:0.125;stroke-linecap:round;stroke-linejoin:round;"
   d="M 21 28 L 17.5 31.5 L 17.5 35 L 21 38.5 z"
   id="Arrow Body West Bottom"
   sodipodi:nodetypes="cccc" /><path
   style="font-size:12;fill:url(#linearGradient769);fill-opacity:1;fill-rule:evenodd;stroke:url(#linearGradient770);stroke-width:0.125;stroke-linecap:round;stroke-linejoin:round;"
   d="M 21 28 L 21 38.5 L 24.5 35 L 24.5 31.5 z"
   id="Arrow Body East Bottom"
   sodipodi:nodetypes="cccc" /></g></g><g
   id="Horizontal Arrow"
   transform="matrix(3.526865e-17,0.576,0.576,-3.526865e-17,2.622001,6.654)"
   style="font-size:12;"><g
   id="g740"><path
   style="font-size:12;fill:url(#linearGradient745);fill-opacity:1;fill-rule:evenodd;stroke:url(#linearGradient749);stroke-width:0.125;stroke-linecap:round;stroke-linejoin:round;stroke-opacity:1;"
   d="M 21 17.5 L 14 21 L 28 21 "
   id="path741"
   sodipodi:nodetypes="cccc" /><path
   style="font-size:12;fill:url(#linearGradient750);fill-opacity:1;fill-rule:evenodd;stroke:url(#linearGradient754);stroke-width:0.125;stroke-linecap:round;stroke-linejoin:round;"
   d="M 21 14 L 14 21 L 21 17.5 L 21 14 z "
   id="path742"
   sodipodi:nodetypes="ccc" /><path
   style="font-size:12;fill:url(#linearGradient756);fill-opacity:1;fill-rule:evenodd;stroke:url(#linearGradient755);stroke-width:0.125;stroke-linecap:round;stroke-linejoin:round;"
   d="M 21 14 L 28 21 L 21 17.5 L 21 14 z "
   id="path743"
   sodipodi:nodetypes="ccc" /></g><g
   id="g744"
   transform="matrix(1,0,0,-1,0,56)"><path
   style="font-size:12;fill:url(#linearGradient757);fill-opacity:1;fill-rule:evenodd;stroke:url(#linearGradient758);stroke-width:0.125;stroke-linecap:round;stroke-linejoin:round;stroke-opacity:1;"
   d="M 21 17.5 L 14 21 L 28 21 "
   id="path745"
   sodipodi:nodetypes="cccc" /><path
   style="font-size:12;fill:url(#linearGradient761);fill-opacity:1;fill-rule:evenodd;stroke:url(#linearGradient762);stroke-width:0.125;stroke-linecap:round;stroke-linejoin:round;"
   d="M 21 14 L 14 21 L 21 17.5 L 21 14 z "
   id="path746"
   sodipodi:nodetypes="ccc" /><path
   style="font-size:12;fill:url(#linearGradient760);fill-opacity:1;fill-rule:evenodd;stroke:url(#linearGradient759);stroke-width:0.125;stroke-linecap:round;stroke-linejoin:round;"
   d="M 21 14 L 28 21 L 21 17.5 L 21 14 z "
   id="path747"
   sodipodi:nodetypes="ccc" /></g><g
   id="g748"><path
   style="font-size:12;fill:url(#linearGradient767);fill-opacity:1;fill-rule:evenodd;stroke:url(#linearGradient768);stroke-width:0.125;stroke-linecap:round;stroke-linejoin:round;"
   d="M 21 17.5 L 24.5 21 L 17.5 21 L 21 17.5 "
   id="path749"
   sodipodi:nodetypes="cccc"
   transform="matrix(1,0,0,-1,0,56)" /><path
   style="font-size:12;fill:url(#linearGradient764);fill-opacity:1;fill-rule:evenodd;stroke:url(#linearGradient763);stroke-width:0.125;stroke-linecap:round;stroke-linejoin:round;"
   d="M 21 17.5 L 24.5 21 L 17.5 21 L 21 17.5 "
   id="path750"
   sodipodi:nodetypes="cccc" /><path
   style="font-size:12;fill:url(#linearGradient736);fill-opacity:1;fill-rule:evenodd;stroke:url(#linearGradient770);stroke-width:0.125;stroke-linecap:round;stroke-linejoin:round;"
   d="M 21 17.5 L 24.5 21 L 24.5 24.5 L 21 28 z"
   id="path751"
   sodipodi:nodetypes="cccc" /><path
   style="font-size:12;fill:url(#linearGradient772);fill-opacity:1;fill-rule:evenodd;stroke:url(#linearGradient771);stroke-width:0.125;stroke-linecap:round;stroke-linejoin:round;"
   d="M 21 17.5 L 17.5 21 L 17.5 24.5 L 21 28 z"
   id="path752"
   sodipodi:nodetypes="cccc" /><path
   style="font-size:12;fill:url(#linearGradient772);fill-opacity:1;fill-rule:evenodd;stroke:url(#linearGradient771);stroke-width:0.125;stroke-linecap:round;stroke-linejoin:round;"
   d="M 21 28 L 17.5 31.5 L 17.5 35 L 21 38.5 z"
   id="path753"
   sodipodi:nodetypes="cccc" /><path
   style="font-size:12;fill:url(#linearGradient769);fill-opacity:1;fill-rule:evenodd;stroke:url(#linearGradient770);stroke-width:0.125;stroke-linecap:round;stroke-linejoin:round;"
   d="M 21 28 L 21 38.5 L 24.5 35 L 24.5 31.5 z"
   id="path754"
   sodipodi:nodetypes="cccc" /></g></g></g></svg>
