<?xml version="1.0" encoding="UTF-8" standalone="no"?>
<!DOCTYPE svg PUBLIC "-//W3C//DTD SVG 20010904//EN"
"http://www.w3.org/TR/2001/REC-SVG-20010904/DTD/svg10.dtd">
<!-- Created with Sodipodi ("http://www.sodipodi.com/") -->
<svg
   xmlns="http://www.w3.org/2000/svg"
   xmlns:sodipodi="http://sodipodi.sourceforge.net/DTD/sodipodi-0.dtd"
   xmlns:xlink="http://www.w3.org/1999/xlink"
   id="svg602"
   sodipodi:version="0.34"
   width="30pt"
   height="30pt"
   xml:space="preserve"
   sodipodi:docname="./q_cell_rotate.svg"
   sodipodi:docbase="./"><defs
   id="defs604"><linearGradient
   id="linearGradient751"><stop
   style="stop-color:#5ed7ff;stop-opacity:0.75;"
   offset="0"
   id="stop752" /><stop
   style="stop-color:#387f99;stop-opacity:0.75;"
   offset="1"
   id="stop753" /></linearGradient><linearGradient
   id="linearGradient746"><stop
   style="stop-color:#387f99;stop-opacity:0.75;"
   offset="0"
   id="stop747" /><stop
   style="stop-color:#2a5f73;stop-opacity:0.75;"
   offset="1"
   id="stop748" /></linearGradient><linearGradient
   id="linearGradient742"><stop
   style="stop-color:#000;stop-opacity:1;"
   offset="0"
   id="stop743" /><stop
   style="stop-color:#fff;stop-opacity:1;"
   offset="1"
   id="stop744" /></linearGradient><linearGradient
   xlink:href="#linearGradient746"
   id="linearGradient745"
   x1="7.67676951e-3"
   y1="3.03310901e-2"
   x2="0.9885059"
   y2="0.95454633" /><linearGradient
   xlink:href="#linearGradient746"
   id="linearGradient749"
   x1="1.15061589e-2"
   y1="5.97252995e-2"
   x2="0.99233735"
   y2="0.95522445" /><linearGradient
   xlink:href="#linearGradient751"
   id="linearGradient750"
   x1="2.32804194e-2"
   y1="2.34620664e-2"
   x2="0.98449641"
   y2="0.97656274" /><linearGradient
   xlink:href="#linearGradient751"
   id="linearGradient754"
   x1="1.93682779e-2"
   y1="2.58198865e-2"
   x2="0.98709714"
   y2="0.98709714" /><linearGradient
   xlink:href="#linearGradient746"
   id="linearGradient755"
   x1="1.93478279e-2"
   y1="1.93696264e-2"
   x2="0.98709637"
   y2="0.98064554" /><linearGradient
   xlink:href="#linearGradient746"
   id="linearGradient756"
   x1="1.5494734e-2"
   y1="2.34568827e-2"
   x2="0.99224776"
   y2="0.98437524" /><linearGradient
   xlink:href="#linearGradient751"
   id="linearGradient757"
   x1="7.67474109e-3"
   y1="0.96964568"
   x2="0.99616873"
   y2="1.51497126e-2" /><linearGradient
   xlink:href="#linearGradient751"
   id="linearGradient758"
   x1="7.67451618e-3"
   y1="0.97009939"
   x2="0.99233735"
   y2="4.47748639e-2" /><linearGradient
   xlink:href="#linearGradient746"
   id="linearGradient759"
   x1="1.93481408e-2"
   y1="0.97417831"
   x2="0.98709637"
   y2="1.93541385e-2" /><linearGradient
   xlink:href="#linearGradient746"
   id="linearGradient760"
   x1="1.54973418e-2"
   y1="0.97654796"
   x2="0.97674388"
   y2="2.3437202e-2" /><linearGradient
   xlink:href="#linearGradient746"
   id="linearGradient761"
   x1="1.55156348e-2"
   y1="0.9687376"
   x2="0.97674447"
   y2="3.1249702e-2" /><linearGradient
   xlink:href="#linearGradient746"
   id="linearGradient762"
   x1="1.29184555e-2"
   y1="0.98062873"
   x2="0.98709714"
   y2="1.93541385e-2" /><linearGradient
   xlink:href="#linearGradient746"
   id="linearGradient763"
   x1="1.53346835e-2"
   y1="2.29188222e-2"
   x2="0.99233747"
   y2="0.9770999" /><linearGradient
   xlink:href="#linearGradient746"
   id="linearGradient764"
   x1="7.79288169e-3"
   y1="2.34585106e-2"
   x2="0.99221832"
   y2="0.97656274" /><linearGradient
   xlink:href="#linearGradient746"
   id="linearGradient767"
   x1="1.55758765e-2"
   y1="0.97651386"
   x2="0.99221832"
   y2="1.56244934e-2" /><linearGradient
   xlink:href="#linearGradient746"
   id="linearGradient768"
   x1="7.67307822e-3"
   y1="0.98469013"
   x2="0.98850602"
   y2="1.52668916e-2" /><linearGradient
   xlink:href="#linearGradient746"
   id="linearGradient769"
   x1="0.13041902"
   y1="1.56275835e-2"
   x2="0.95652092"
   y2="0.98437506" /><linearGradient
   xlink:href="#linearGradient746"
   id="linearGradient770"
   x1="3.70181352e-2"
   y1="1.93580166e-2"
   x2="0.92592537"
   y2="0.98709702" /><linearGradient
   xlink:href="#linearGradient751"
   id="linearGradient771"
   x1="3.7053898e-2"
   y1="1.93575211e-2"
   x2="0.92592627"
   y2="0.98709702" /><linearGradient
   xlink:href="#linearGradient751"
   id="linearGradient772"
   x1="4.35029864e-2"
   y1="4.68790606e-2"
   x2="0.95652235"
   y2="0.98437506" /></defs><sodipodi:namedview
   id="base" /><g
   id="Rotated Cell"
   style="font-size:12;"
   transform="matrix(1.5,0,0,1.5,1.089417,22.37308)"><path
   style="font-size:12;fill:#00ffff;fill-rule:evenodd;stroke:#000000;stroke-width:0.0469;stroke-linejoin:round;stroke-linecap:round;fill-opacity:0.2471;stroke-opacity:1;stroke-dasharray:none;"
   d="M 0 2.5 L 7 9.5 L 21 9.5 L 14 2.5 L 0 2.5 z "
   id="path1237"
   sodipodi:nodetypes="cccccc" /><path
   style="font-size:12;fill:#00ffff;fill-rule:evenodd;stroke:#000000;stroke-width:0.0469;fill-opacity:0.2471;stroke-opacity:1;stroke-dasharray:none;"
   d="M 0 -0.5 L 0 2.5 L 14 2.5 L 14 -0.5 L 0 -0.5 z "
   id="path1238"
   sodipodi:nodetypes="cccccc" /><path
   style="font-size:12;fill:#00ffff;fill-rule:evenodd;stroke:#000000;stroke-width:0.0469;stroke-linejoin:round;stroke-linecap:round;fill-opacity:0.2471;stroke-opacity:1;stroke-dasharray:none;"
   d="M 14 -0.5 L 21 6.5 L 21 9.5 L 14 2.5 L 14 -0.5 z "
   id="path1239" /><g
   id="Dot:Top Middle"
   style="fill:#00ff00;fill-opacity:0.5;stroke:#000000;stroke-opacity:1;stroke-width:0.0469;stroke-dasharray:none;stroke-linejoin:round;stroke-linecap:round;font-size:12;"
   transform="translate(4.000001,0)"><path
   style="fill:#00ff00;fill-rule:evenodd;stroke:#000000;stroke-opacity:1;stroke-width:0.0469;stroke-linejoin:round;stroke-linecap:round;fill-opacity:0.5;stroke-dasharray:none;"
   d="M 4.5 2.6 C 6.5 2.6 6.5 3.5 6.5 3.5 C 6.5 3.5 6.5 4.4 4.5 4.4 C 2.5 4.4 2.5 3.5 2.5 3.5 C 2.5 3.5 2.5 2.6 4.5 2.6 z "
   id="path1279"
   sodipodi:nodetypes="ccccc" /><path
   style="font-size:12;fill:#00ff00;fill-rule:evenodd;stroke:#000000;stroke-width:0.0469;stroke-linecap:round;stroke-linejoin:round;fill-opacity:0.5;stroke-opacity:1;stroke-dasharray:none;"
   d="M 2.5 1.5 C 2.5 1.5 2.5 0.6 4.5 0.6 C 6.5 0.6 6.5 1.5 6.5 1.5 L 6.5 3.5 C 6.5 3.5 6.5 2.6 4.5 2.6 C 2.5 2.6 2.5 3.5 2.5 3.5 z "
   id="path1280"
   sodipodi:nodetypes="ccccccc" /><path
   style="font-size:12;fill:#00ff00;fill-rule:evenodd;stroke:#000000;stroke-width:0.0469;stroke-linecap:round;stroke-linejoin:round;fill-opacity:0.5;stroke-opacity:1;stroke-dasharray:none;"
   d="M 2.5 1.5 C 2.5 1.5 2.5 2.4 4.5 2.4 C 6.5 2.4 6.5 1.5 6.5 1.5 L 6.5 3.5 C 6.5 3.5 6.5 4.4 4.5 4.4 C 2.5 4.4 2.5 3.5 2.5 3.5 z "
   id="path1281"
   sodipodi:nodetypes="ccccccc" /><path
   style="fill:#00ff00;fill-rule:evenodd;stroke:#000000;stroke-opacity:1;stroke-width:0.0469;stroke-linejoin:round;stroke-linecap:round;fill-opacity:0.5;stroke-dasharray:none;"
   d="M 4.5 0.6 C 6.5 0.6 6.5 1.5 6.5 1.5 C 6.5 1.5 6.5 2.4 4.5 2.4 C 2.5 2.4 2.5 1.5 2.5 1.5 C 2.5 1.5 2.5 0.6 4.5 0.6 z "
   id="path1282"
   sodipodi:nodetypes="ccccc" /></g><g
   id="Dot:Left Middle"
   transform="translate(2.000001,2)"
   style="fill:#00ff00;fill-opacity:0.5;stroke:#000000;stroke-opacity:1;stroke-width:0.0469;stroke-dasharray:none;stroke-linejoin:round;stroke-linecap:round;font-size:12;"><path
   style="fill:#00ff00;fill-rule:evenodd;stroke:#000000;stroke-opacity:1;stroke-width:0.0469;stroke-linejoin:round;stroke-linecap:round;fill-opacity:0.5;stroke-dasharray:none;"
   d="M 4.5 2.6 C 6.5 2.6 6.5 3.5 6.5 3.5 C 6.5 3.5 6.5 4.4 4.5 4.4 C 2.5 4.4 2.5 3.5 2.5 3.5 C 2.5 3.5 2.5 2.6 4.5 2.6 z "
   id="path1310"
   sodipodi:nodetypes="ccccc" /><path
   style="font-size:12;fill:#00ff00;fill-rule:evenodd;stroke:#000000;stroke-width:0.0469;stroke-linecap:round;stroke-linejoin:round;fill-opacity:0.5;stroke-opacity:1;stroke-dasharray:none;"
   d="M 2.5 1.5 C 2.5 1.5 2.5 0.6 4.5 0.6 C 6.5 0.6 6.5 1.5 6.5 1.5 L 6.5 3.5 C 6.5 3.5 6.5 2.6 4.5 2.6 C 2.5 2.6 2.5 3.5 2.5 3.5 z "
   id="path1311"
   sodipodi:nodetypes="ccccccc" /><path
   style="font-size:12;fill:#00ff00;fill-rule:evenodd;stroke:#000000;stroke-width:0.0469;stroke-linecap:round;stroke-linejoin:round;fill-opacity:0.5;stroke-opacity:1;stroke-dasharray:none;"
   d="M 2.5 1.5 C 2.5 1.5 2.5 2.4 4.5 2.4 C 6.5 2.4 6.5 1.5 6.5 1.5 L 6.5 3.5 C 6.5 3.5 6.5 4.4 4.5 4.4 C 2.5 4.4 2.5 3.5 2.5 3.5 z "
   id="path1312"
   sodipodi:nodetypes="ccccccc" /><path
   style="fill:#00ff00;fill-rule:evenodd;stroke:#000000;stroke-opacity:1;stroke-width:0.0469;stroke-linejoin:round;stroke-linecap:round;fill-opacity:0.5;stroke-dasharray:none;"
   d="M 4.5 0.6 C 6.5 0.6 6.5 1.5 6.5 1.5 C 6.5 1.5 6.5 2.4 4.5 2.4 C 2.5 2.4 2.5 1.5 2.5 1.5 C 2.5 1.5 2.5 0.6 4.5 0.6 z "
   id="path1313"
   sodipodi:nodetypes="ccccc" /></g><g
   id="Dot:Right Middle"
   transform="translate(10,2)"
   style="fill:#00ff00;fill-opacity:0.5;stroke:#000000;stroke-opacity:1;stroke-width:0.0469;stroke-dasharray:none;stroke-linejoin:round;stroke-linecap:round;font-size:12;"><path
   style="fill:#00ff00;fill-rule:evenodd;stroke:#000000;stroke-opacity:1;stroke-width:0.0469;stroke-linejoin:round;stroke-linecap:round;fill-opacity:0.5;stroke-dasharray:none;"
   d="M 4.5 2.6 C 6.5 2.6 6.5 3.5 6.5 3.5 C 6.5 3.5 6.5 4.4 4.5 4.4 C 2.5 4.4 2.5 3.5 2.5 3.5 C 2.5 3.5 2.5 2.6 4.5 2.6 z "
   id="path1341"
   sodipodi:nodetypes="ccccc" /><path
   style="font-size:12;fill:#00ff00;fill-rule:evenodd;stroke:#000000;stroke-width:0.0469;stroke-linecap:round;stroke-linejoin:round;fill-opacity:0.5;stroke-opacity:1;stroke-dasharray:none;"
   d="M 2.5 1.5 C 2.5 1.5 2.5 0.6 4.5 0.6 C 6.5 0.6 6.5 1.5 6.5 1.5 L 6.5 3.5 C 6.5 3.5 6.5 2.6 4.5 2.6 C 2.5 2.6 2.5 3.5 2.5 3.5 z "
   id="path1342"
   sodipodi:nodetypes="ccccccc" /><path
   style="font-size:12;fill:#00ff00;fill-rule:evenodd;stroke:#000000;stroke-width:0.0469;stroke-linecap:round;stroke-linejoin:round;fill-opacity:0.5;stroke-opacity:1;stroke-dasharray:none;"
   d="M 2.5 1.5 C 2.5 1.5 2.5 2.4 4.5 2.4 C 6.5 2.4 6.5 1.5 6.5 1.5 L 6.5 3.5 C 6.5 3.5 6.5 4.4 4.5 4.4 C 2.5 4.4 2.5 3.5 2.5 3.5 z "
   id="path1343"
   sodipodi:nodetypes="ccccccc" /><path
   style="fill:#00ff00;fill-rule:evenodd;stroke:#000000;stroke-opacity:1;stroke-width:0.0469;stroke-linejoin:round;stroke-linecap:round;fill-opacity:0.5;stroke-dasharray:none;"
   d="M 4.5 0.6 C 6.5 0.6 6.5 1.5 6.5 1.5 C 6.5 1.5 6.5 2.4 4.5 2.4 C 2.5 2.4 2.5 1.5 2.5 1.5 C 2.5 1.5 2.5 0.6 4.5 0.6 z "
   id="path1344"
   sodipodi:nodetypes="ccccc" /></g><g
   id="Dot:Bottom Middle"
   transform="translate(8.000001,4.000001)"
   style="fill:#00ff00;fill-opacity:0.5;stroke:#000000;stroke-opacity:1;stroke-width:0.0469;stroke-dasharray:none;stroke-linejoin:round;stroke-linecap:round;font-size:12;"><path
   style="fill:#00ff00;fill-rule:evenodd;stroke:#000000;stroke-opacity:1;stroke-width:0.0469;stroke-linejoin:round;stroke-linecap:round;fill-opacity:0.5;stroke-dasharray:none;"
   d="M 4.5 2.6 C 6.5 2.6 6.5 3.5 6.5 3.5 C 6.5 3.5 6.5 4.4 4.5 4.4 C 2.5 4.4 2.5 3.5 2.5 3.5 C 2.5 3.5 2.5 2.6 4.5 2.6 z "
   id="path1383"
   sodipodi:nodetypes="ccccc" /><path
   style="font-size:12;fill:#00ff00;fill-rule:evenodd;stroke:#000000;stroke-width:0.0469;stroke-linecap:round;stroke-linejoin:round;fill-opacity:0.5;stroke-opacity:1;stroke-dasharray:none;"
   d="M 2.5 1.5 C 2.5 1.5 2.5 0.6 4.5 0.6 C 6.5 0.6 6.5 1.5 6.5 1.5 L 6.5 3.5 C 6.5 3.5 6.5 2.6 4.5 2.6 C 2.5 2.6 2.5 3.5 2.5 3.5 z "
   id="path1384"
   sodipodi:nodetypes="ccccccc" /><path
   style="font-size:12;fill:#00ff00;fill-rule:evenodd;stroke:#000000;stroke-width:0.0469;stroke-linecap:round;stroke-linejoin:round;fill-opacity:0.5;stroke-opacity:1;stroke-dasharray:none;"
   d="M 2.5 1.5 C 2.5 1.5 2.5 2.4 4.5 2.4 C 6.5 2.4 6.5 1.5 6.5 1.5 L 6.5 3.5 C 6.5 3.5 6.5 4.4 4.5 4.4 C 2.5 4.4 2.5 3.5 2.5 3.5 z "
   id="path1385"
   sodipodi:nodetypes="ccccccc" /><path
   style="fill:#00ff00;fill-rule:evenodd;stroke:#000000;stroke-opacity:1;stroke-width:0.0469;stroke-linejoin:round;stroke-linecap:round;fill-opacity:0.5;stroke-dasharray:none;"
   d="M 4.5 0.6 C 6.5 0.6 6.5 1.5 6.5 1.5 C 6.5 1.5 6.5 2.4 4.5 2.4 C 2.5 2.4 2.5 1.5 2.5 1.5 C 2.5 1.5 2.5 0.6 4.5 0.6 z "
   id="path1386"
   sodipodi:nodetypes="ccccc" /></g><path
   style="font-size:12;fill:#00ffff;fill-rule:evenodd;stroke:#000000;stroke-width:0.0469;stroke-linejoin:round;stroke-linecap:round;fill-opacity:0.2471;stroke-opacity:1;stroke-dasharray:none;"
   d="M 0 -0.5 L 7 6.5 L 7 9.5 L 0 2.5 L 0 -0.5 z "
   id="path1260" /><path
   style="font-size:12;fill:#00ffff;fill-rule:evenodd;stroke:#000000;stroke-width:0.0469;stroke-linejoin:round;stroke-linecap:round;fill-opacity:0.25;stroke-opacity:1;stroke-dasharray:none;"
   d="M 0 -0.5 L 7 6.5 L 21 6.5 L 14 -0.5 L 0 -0.5 z "
   id="path1262"
   sodipodi:nodetypes="cccccc" /><path
   style="font-size:12;fill:#00ffff;fill-rule:evenodd;stroke:#000000;stroke-width:0.0469;stroke-linejoin:round;stroke-linecap:round;fill-opacity:0.2471;stroke-opacity:1;stroke-dasharray:none;"
   d="M 7 6.5 L 7 9.5 L 21 9.5 L 21 6.5 L 7 6.5 z "
   id="path1261" /></g><g
   id="Arrow"
   transform="matrix(0.576,0,0,0.576,21.26938,8.054705)"
   style="font-size:12;"><g
   id="Arrow Head Top"><path
   style="font-size:12;fill:url(#linearGradient745);fill-opacity:1;fill-rule:evenodd;stroke:url(#linearGradient749);stroke-width:0.125;stroke-linecap:round;stroke-linejoin:round;stroke-opacity:1;"
   d="M 21 17.5 L 14 21 L 28 21 "
   id="Arrow Head Top:South Face"
   sodipodi:nodetypes="cccc" /><path
   style="font-size:12;fill:url(#linearGradient750);fill-opacity:1;fill-rule:evenodd;stroke:url(#linearGradient754);stroke-width:0.125;stroke-linecap:round;stroke-linejoin:round;"
   d="M 21 14 L 14 21 L 21 17.5 L 21 14 z "
   id="Arrow Head Top:West Face"
   sodipodi:nodetypes="ccc" /><path
   style="font-size:12;fill:url(#linearGradient756);fill-opacity:1;fill-rule:evenodd;stroke:url(#linearGradient755);stroke-width:0.125;stroke-linecap:round;stroke-linejoin:round;"
   d="M 21 14 L 28 21 L 21 17.5 L 21 14 z "
   id="Arrow Head Top:East Face"
   sodipodi:nodetypes="ccc" /></g><g
   id="Arrow Head Bottom"
   transform="matrix(1,0,0,-1,0,56)"><path
   style="font-size:12;fill:url(#linearGradient757);fill-opacity:1;fill-rule:evenodd;stroke:url(#linearGradient758);stroke-width:0.125;stroke-linecap:round;stroke-linejoin:round;stroke-opacity:1;"
   d="M 21 17.5 L 14 21 L 28 21 "
   id="Arrow Head Bottom:North Face"
   sodipodi:nodetypes="cccc" /><path
   style="font-size:12;fill:url(#linearGradient761);fill-opacity:1;fill-rule:evenodd;stroke:url(#linearGradient762);stroke-width:0.125;stroke-linecap:round;stroke-linejoin:round;"
   d="M 21 14 L 14 21 L 21 17.5 L 21 14 z "
   id="Arrow Head Bottom:West Face"
   sodipodi:nodetypes="ccc" /><path
   style="font-size:12;fill:url(#linearGradient760);fill-opacity:1;fill-rule:evenodd;stroke:url(#linearGradient759);stroke-width:0.125;stroke-linecap:round;stroke-linejoin:round;"
   d="M 21 14 L 28 21 L 21 17.5 L 21 14 z "
   id="Arrow Head Bottom:East Face"
   sodipodi:nodetypes="ccc" /></g><g
   id="Arrow Body"><path
   style="font-size:12;fill:url(#linearGradient767);fill-opacity:1;fill-rule:evenodd;stroke:url(#linearGradient768);stroke-width:0.125;stroke-linecap:round;stroke-linejoin:round;"
   d="M 21 17.5 L 24.5 21 L 17.5 21 L 21 17.5 "
   id="Arrow Body South"
   sodipodi:nodetypes="cccc"
   transform="matrix(1,0,0,-1,0,56)" /><path
   style="font-size:12;fill:url(#linearGradient764);fill-opacity:1;fill-rule:evenodd;stroke:url(#linearGradient763);stroke-width:0.125;stroke-linecap:round;stroke-linejoin:round;"
   d="M 21 17.5 L 24.5 21 L 17.5 21 L 21 17.5 "
   id="Arrow Body North"
   sodipodi:nodetypes="cccc" /><path
   style="font-size:12;fill:url(#linearGradient769);fill-opacity:1;fill-rule:evenodd;stroke:url(#linearGradient770);stroke-width:0.125;stroke-linecap:round;stroke-linejoin:round;"
   d="M 21 17.5 L 24.5 21 L 24.5 35 L 21 38.5 "
   id="Arrow Body East"
   sodipodi:nodetypes="cccc" /><path
   style="font-size:12;fill:url(#linearGradient772);fill-opacity:1;fill-rule:evenodd;stroke:url(#linearGradient771);stroke-width:0.125;stroke-linecap:round;stroke-linejoin:round;"
   d="M 21 17.5 L 17.5 21 L 17.5 35 L 21 38.5 L 21 17.5 z "
   id="Arrow Body West"
   sodipodi:nodetypes="cccc" /></g></g><g
   id="Majority Cell"
   style="font-size:12;"
   transform="matrix(1.5,0,0,1.5,1.089417,1.987507)"><path
   style="font-size:12;fill:#00ffff;fill-rule:evenodd;stroke:#000000;stroke-width:0.0469;stroke-linejoin:round;stroke-linecap:round;fill-opacity:0.2471;stroke-opacity:1;stroke-dasharray:none;"
   d="M 0 2.5 L 7 9.5 L 21 9.5 L 14 2.5 L 0 2.5 z "
   id="cellLidBot"
   sodipodi:nodetypes="cccccc" /><path
   style="font-size:12;fill:#00ffff;fill-rule:evenodd;stroke:#000000;stroke-width:0.0469;fill-opacity:0.2471;stroke-opacity:1;stroke-dasharray:none;"
   d="M 0 -0.5 L 0 2.5 L 14 2.5 L 14 -0.5 L 0 -0.5 z "
   id="cellWallN"
   sodipodi:nodetypes="cccccc" /><path
   style="font-size:12;fill:#00ffff;fill-rule:evenodd;stroke:#000000;stroke-width:0.0469;stroke-linejoin:round;stroke-linecap:round;fill-opacity:0.2471;stroke-opacity:1;stroke-dasharray:none;"
   d="M 14 -0.5 L 21 6.5 L 21 9.5 L 14 2.5 L 14 -0.5 z "
   id="cellWallE" /><g
   id="Dot2"
   transform="translate(8,0)"
   style="fill:#00ff00;fill-opacity:0.5;stroke:#000000;stroke-opacity:1;stroke-width:0.0469;stroke-dasharray:none;stroke-linejoin:round;stroke-linecap:round;"><path
   style="fill:#00ff00;fill-rule:evenodd;stroke:#000000;stroke-opacity:1;stroke-width:0.0469;stroke-linejoin:round;stroke-linecap:round;fill-opacity:0.5;stroke-dasharray:none;"
   d="M 4.5 2.6 C 6.5 2.6 6.5 3.5 6.5 3.5 C 6.5 3.5 6.5 4.4 4.5 4.4 C 2.5 4.4 2.5 3.5 2.5 3.5 C 2.5 3.5 2.5 2.6 4.5 2.6 z "
   id="path619"
   sodipodi:nodetypes="ccccc" /><path
   style="font-size:12;fill:#00ff00;fill-rule:evenodd;stroke:#000000;stroke-width:0.0469;stroke-linecap:round;stroke-linejoin:round;fill-opacity:0.5;stroke-opacity:1;stroke-dasharray:none;"
   d="M 2.5 1.5 C 2.5 1.5 2.5 0.6 4.5 0.6 C 6.5 0.6 6.5 1.5 6.5 1.5 L 6.5 3.5 C 6.5 3.5 6.5 2.6 4.5 2.6 C 2.5 2.6 2.5 3.5 2.5 3.5 z "
   id="path620"
   sodipodi:nodetypes="ccccccc" /><path
   style="font-size:12;fill:#00ff00;fill-rule:evenodd;stroke:#000000;stroke-width:0.0469;stroke-linecap:round;stroke-linejoin:round;fill-opacity:0.5;stroke-opacity:1;stroke-dasharray:none;"
   d="M 2.5 1.5 C 2.5 1.5 2.5 2.4 4.5 2.4 C 6.5 2.4 6.5 1.5 6.5 1.5 L 6.5 3.5 C 6.5 3.5 6.5 4.4 4.5 4.4 C 2.5 4.4 2.5 3.5 2.5 3.5 z "
   id="path621"
   sodipodi:nodetypes="ccccccc" /><path
   style="fill:#00ff00;fill-rule:evenodd;stroke:#000000;stroke-opacity:1;stroke-width:0.0469;stroke-linejoin:round;stroke-linecap:round;fill-opacity:0.5;stroke-dasharray:none;"
   d="M 4.5 0.6 C 6.5 0.6 6.5 1.5 6.5 1.5 C 6.5 1.5 6.5 2.4 4.5 2.4 C 2.5 2.4 2.5 1.5 2.5 1.5 C 2.5 1.5 2.5 0.6 4.5 0.6 z "
   id="path622"
   sodipodi:nodetypes="ccccc" /></g><g
   id="Dot1"
   style="fill:#00ff00;fill-opacity:0.5;stroke:#000000;stroke-opacity:1;stroke-width:0.0469;stroke-dasharray:none;stroke-linejoin:round;stroke-linecap:round;"><path
   style="fill:#00ff00;fill-rule:evenodd;stroke:#000000;stroke-opacity:1;stroke-width:0.0469;stroke-linejoin:round;stroke-linecap:round;fill-opacity:0.5;stroke-dasharray:none;"
   d="M 4.5 2.6 C 6.5 2.6 6.5 3.5 6.5 3.5 C 6.5 3.5 6.5 4.4 4.5 4.4 C 2.5 4.4 2.5 3.5 2.5 3.5 C 2.5 3.5 2.5 2.6 4.5 2.6 z "
   id="dotLidBot"
   sodipodi:nodetypes="ccccc" /><path
   style="font-size:12;fill:#00ff00;fill-rule:evenodd;stroke:#000000;stroke-width:0.0469;stroke-linecap:round;stroke-linejoin:round;fill-opacity:0.5;stroke-opacity:1;stroke-dasharray:none;"
   d="M 2.5 1.5 C 2.5 1.5 2.5 0.6 4.5 0.6 C 6.5 0.6 6.5 1.5 6.5 1.5 L 6.5 3.5 C 6.5 3.5 6.5 2.6 4.5 2.6 C 2.5 2.6 2.5 3.5 2.5 3.5 z "
   id="dotBack"
   sodipodi:nodetypes="ccccccc" /><path
   style="font-size:12;fill:#00ff00;fill-rule:evenodd;stroke:#000000;stroke-width:0.0469;stroke-linecap:round;stroke-linejoin:round;fill-opacity:0.5;stroke-opacity:1;stroke-dasharray:none;"
   d="M 2.5 1.5 C 2.5 1.5 2.5 2.4 4.5 2.4 C 6.5 2.4 6.5 1.5 6.5 1.5 L 6.5 3.5 C 6.5 3.5 6.5 4.4 4.5 4.4 C 2.5 4.4 2.5 3.5 2.5 3.5 z "
   id="dotFront"
   sodipodi:nodetypes="ccccccc" /><path
   style="fill:#00ff00;fill-rule:evenodd;stroke:#000000;stroke-opacity:1;stroke-width:0.0469;stroke-linejoin:round;stroke-linecap:round;fill-opacity:0.5;stroke-dasharray:none;"
   d="M 4.5 0.6 C 6.5 0.6 6.5 1.5 6.5 1.5 C 6.5 1.5 6.5 2.4 4.5 2.4 C 2.5 2.4 2.5 1.5 2.5 1.5 C 2.5 1.5 2.5 0.6 4.5 0.6 z "
   id="dotLidTop"
   sodipodi:nodetypes="ccccc" /></g><g
   id="Dot3"
   transform="translate(12,4)"
   style="fill:#00ff00;fill-opacity:0.5;stroke:#000000;stroke-opacity:1;stroke-width:0.0469;stroke-dasharray:none;stroke-linejoin:round;stroke-linecap:round;"><path
   style="fill:#00ff00;fill-rule:evenodd;stroke:#000000;stroke-opacity:1;stroke-width:0.0469;stroke-linejoin:round;stroke-linecap:round;fill-opacity:0.5;stroke-dasharray:none;"
   d="M 4.5 2.6 C 6.5 2.6 6.5 3.5 6.5 3.5 C 6.5 3.5 6.5 4.4 4.5 4.4 C 2.5 4.4 2.5 3.5 2.5 3.5 C 2.5 3.5 2.5 2.6 4.5 2.6 z "
   id="path624"
   sodipodi:nodetypes="ccccc" /><path
   style="font-size:12;fill:#00ff00;fill-rule:evenodd;stroke:#000000;stroke-width:0.0469;stroke-linecap:round;stroke-linejoin:round;fill-opacity:0.5;stroke-opacity:1;stroke-dasharray:none;"
   d="M 2.5 1.5 C 2.5 1.5 2.5 0.6 4.5 0.6 C 6.5 0.6 6.5 1.5 6.5 1.5 L 6.5 3.5 C 6.5 3.5 6.5 2.6 4.5 2.6 C 2.5 2.6 2.5 3.5 2.5 3.5 z "
   id="path625"
   sodipodi:nodetypes="ccccccc" /><path
   style="font-size:12;fill:#00ff00;fill-rule:evenodd;stroke:#000000;stroke-width:0.0469;stroke-linecap:round;stroke-linejoin:round;fill-opacity:0.5;stroke-opacity:1;stroke-dasharray:none;"
   d="M 2.5 1.5 C 2.5 1.5 2.5 2.4 4.5 2.4 C 6.5 2.4 6.5 1.5 6.5 1.5 L 6.5 3.5 C 6.5 3.5 6.5 4.4 4.5 4.4 C 2.5 4.4 2.5 3.5 2.5 3.5 z "
   id="path626"
   sodipodi:nodetypes="ccccccc" /><path
   style="fill:#00ff00;fill-rule:evenodd;stroke:#000000;stroke-opacity:1;stroke-width:0.0469;stroke-linejoin:round;stroke-linecap:round;fill-opacity:0.5;stroke-dasharray:none;"
   d="M 4.5 0.6 C 6.5 0.6 6.5 1.5 6.5 1.5 C 6.5 1.5 6.5 2.4 4.5 2.4 C 2.5 2.4 2.5 1.5 2.5 1.5 C 2.5 1.5 2.5 0.6 4.5 0.6 z "
   id="path627"
   sodipodi:nodetypes="ccccc" /></g><g
   id="Dot4"
   transform="translate(4,4)"
   style="fill:#00ff00;fill-opacity:0.5;stroke:#000000;stroke-opacity:1;stroke-width:0.0469;stroke-dasharray:none;stroke-linejoin:round;stroke-linecap:round;"><path
   style="fill:#00ff00;fill-rule:evenodd;stroke:#000000;stroke-opacity:1;stroke-width:0.0469;stroke-linejoin:round;stroke-linecap:round;fill-opacity:0.5;stroke-dasharray:none;"
   d="M 4.5 2.6 C 6.5 2.6 6.5 3.5 6.5 3.5 C 6.5 3.5 6.5 4.4 4.5 4.4 C 2.5 4.4 2.5 3.5 2.5 3.5 C 2.5 3.5 2.5 2.6 4.5 2.6 z "
   id="path629"
   sodipodi:nodetypes="ccccc" /><path
   style="font-size:12;fill:#00ff00;fill-rule:evenodd;stroke:#000000;stroke-width:0.0469;stroke-linecap:round;stroke-linejoin:round;fill-opacity:0.5;stroke-opacity:1;stroke-dasharray:none;"
   d="M 2.5 1.5 C 2.5 1.5 2.5 0.6 4.5 0.6 C 6.5 0.6 6.5 1.5 6.5 1.5 L 6.5 3.5 C 6.5 3.5 6.5 2.6 4.5 2.6 C 2.5 2.6 2.5 3.5 2.5 3.5 z "
   id="path630"
   sodipodi:nodetypes="ccccccc" /><path
   style="font-size:12;fill:#00ff00;fill-rule:evenodd;stroke:#000000;stroke-width:0.0469;stroke-linecap:round;stroke-linejoin:round;fill-opacity:0.5;stroke-opacity:1;stroke-dasharray:none;"
   d="M 2.5 1.5 C 2.5 1.5 2.5 2.4 4.5 2.4 C 6.5 2.4 6.5 1.5 6.5 1.5 L 6.5 3.5 C 6.5 3.5 6.5 4.4 4.5 4.4 C 2.5 4.4 2.5 3.5 2.5 3.5 z "
   id="path631"
   sodipodi:nodetypes="ccccccc" /><path
   style="fill:#00ff00;fill-rule:evenodd;stroke:#000000;stroke-opacity:1;stroke-width:0.0469;stroke-linejoin:round;stroke-linecap:round;fill-opacity:0.5;stroke-dasharray:none;"
   d="M 4.5 0.6 C 6.5 0.6 6.5 1.5 6.5 1.5 C 6.5 1.5 6.5 2.4 4.5 2.4 C 2.5 2.4 2.5 1.5 2.5 1.5 C 2.5 1.5 2.5 0.6 4.5 0.6 z "
   id="path632"
   sodipodi:nodetypes="ccccc" /></g><path
   style="font-size:12;fill:#00ffff;fill-rule:evenodd;stroke:#000000;stroke-width:0.0469;stroke-linejoin:round;stroke-linecap:round;fill-opacity:0.2471;stroke-opacity:1;stroke-dasharray:none;"
   d="M 0 -0.5 L 7 6.5 L 7 9.5 L 0 2.5 L 0 -0.5 z "
   id="cellWallW" /><path
   style="font-size:12;fill:#00ffff;fill-rule:evenodd;stroke:#000000;stroke-width:0.0469;stroke-linejoin:round;stroke-linecap:round;fill-opacity:0.2471;stroke-opacity:1;stroke-dasharray:none;"
   d="M 7 6.5 L 7 9.5 L 21 9.5 L 21 6.5 L 7 6.5 z "
   id="cellWallS" /><path
   style="font-size:12;fill:#00ffff;fill-rule:evenodd;stroke:#000000;stroke-width:0.0469;stroke-linejoin:round;stroke-linecap:round;fill-opacity:0.25;stroke-opacity:1;stroke-dasharray:none;"
   d="M 0 -0.5 L 7 6.5 L 21 6.5 L 14 -0.5 L 0 -0.5 z "
   id="cellLidTop"
   sodipodi:nodetypes="cccccc" /></g></svg>
