<?xml version="1.0" encoding="UTF-8" standalone="no"?>
<!DOCTYPE svg PUBLIC "-//W3C//DTD SVG 20010904//EN"
"http://www.w3.org/TR/2001/REC-SVG-20010904/DTD/svg10.dtd">
<!-- Created with Sodipodi ("http://www.sodipodi.com/") -->
<svg
   xmlns="http://www.w3.org/2000/svg"
   xmlns:sodipodi="http://sodipodi.sourceforge.net/DTD/sodipodi-0.dtd"
   xmlns:xlink="http://www.w3.org/1999/xlink"
   id="svg602"
   sodipodi:version="0.34"
   width="30pt"
   height="30pt"
   xml:space="preserve"
   sodipodi:docname="/home/nix/tmp/working_with_qcells.svg"
   sodipodi:docbase="/home/nix/tmp/"><defs
   id="defs604" /><sodipodi:namedview
   id="base" /><g
   id="g1011"
   transform="matrix(0.833625,0,0,0.833625,17.52337,14.99869)"
   style="font-size:12;"><path
   style="font-size:12;fill:#00ffff;fill-rule:evenodd;stroke:#000000;stroke-width:0.0469;stroke-linejoin:round;stroke-linecap:round;fill-opacity:0.2471;stroke-opacity:1;stroke-dasharray:none;"
   d="M 0 2.5 L 7 9.5 L 21 9.5 L 14 2.5 L 0 2.5 z "
   id="path1012"
   sodipodi:nodetypes="cccccc" /><path
   style="font-size:12;fill:#00ffff;fill-rule:evenodd;stroke:#000000;stroke-width:0.0469;fill-opacity:0.2471;stroke-opacity:1;stroke-dasharray:none;"
   d="M 0 -0.5 L 0 2.5 L 14 2.5 L 14 -0.5 L 0 -0.5 z "
   id="path1013"
   sodipodi:nodetypes="cccccc" /><path
   style="font-size:12;fill:#00ffff;fill-rule:evenodd;stroke:#000000;stroke-width:0.0469;stroke-linejoin:round;stroke-linecap:round;fill-opacity:0.2471;stroke-opacity:1;stroke-dasharray:none;"
   d="M 14 -0.5 L 21 6.5 L 21 9.5 L 14 2.5 L 14 -0.5 z "
   id="path1014" /><g
   id="g1015"
   transform="translate(8,0)"
   style="fill:#00ff00;fill-opacity:0.5;stroke:#000000;stroke-opacity:1;stroke-width:0.0469;stroke-dasharray:none;stroke-linejoin:round;stroke-linecap:round;"><path
   style="fill:#00ff00;fill-rule:evenodd;stroke:#000000;stroke-opacity:1;stroke-width:0.0469;stroke-linejoin:round;stroke-linecap:round;fill-opacity:0.5;stroke-dasharray:none;"
   d="M 4.5 2.6 C 6.5 2.6 6.5 3.5 6.5 3.5 C 6.5 3.5 6.5 4.4 4.5 4.4 C 2.5 4.4 2.5 3.5 2.5 3.5 C 2.5 3.5 2.5 2.6 4.5 2.6 z "
   id="path1016"
   sodipodi:nodetypes="ccccc" /><path
   style="font-size:12;fill:#00ff00;fill-rule:evenodd;stroke:#000000;stroke-width:0.0469;stroke-linecap:round;stroke-linejoin:round;fill-opacity:0.5;stroke-opacity:1;stroke-dasharray:none;"
   d="M 2.5 1.5 C 2.5 1.5 2.5 0.6 4.5 0.6 C 6.5 0.6 6.5 1.5 6.5 1.5 L 6.5 3.5 C 6.5 3.5 6.5 2.6 4.5 2.6 C 2.5 2.6 2.5 3.5 2.5 3.5 z "
   id="path1017"
   sodipodi:nodetypes="ccccccc" /><path
   style="font-size:12;fill:#00ff00;fill-rule:evenodd;stroke:#000000;stroke-width:0.0469;stroke-linecap:round;stroke-linejoin:round;fill-opacity:0.5;stroke-opacity:1;stroke-dasharray:none;"
   d="M 2.5 1.5 C 2.5 1.5 2.5 2.4 4.5 2.4 C 6.5 2.4 6.5 1.5 6.5 1.5 L 6.5 3.5 C 6.5 3.5 6.5 4.4 4.5 4.4 C 2.5 4.4 2.5 3.5 2.5 3.5 z "
   id="path1018"
   sodipodi:nodetypes="ccccccc" /><path
   style="fill:#00ff00;fill-rule:evenodd;stroke:#000000;stroke-opacity:1;stroke-width:0.0469;stroke-linejoin:round;stroke-linecap:round;fill-opacity:0.5;stroke-dasharray:none;"
   d="M 4.5 0.6 C 6.5 0.6 6.5 1.5 6.5 1.5 C 6.5 1.5 6.5 2.4 4.5 2.4 C 2.5 2.4 2.5 1.5 2.5 1.5 C 2.5 1.5 2.5 0.6 4.5 0.6 z "
   id="path1019"
   sodipodi:nodetypes="ccccc" /></g><g
   id="g1020"
   style="fill:#00ff00;fill-opacity:0.5;stroke:#000000;stroke-opacity:1;stroke-width:0.0469;stroke-dasharray:none;stroke-linejoin:round;stroke-linecap:round;"><path
   style="fill:#00ff00;fill-rule:evenodd;stroke:#000000;stroke-opacity:1;stroke-width:0.0469;stroke-linejoin:round;stroke-linecap:round;fill-opacity:0.5;stroke-dasharray:none;"
   d="M 4.5 2.6 C 6.5 2.6 6.5 3.5 6.5 3.5 C 6.5 3.5 6.5 4.4 4.5 4.4 C 2.5 4.4 2.5 3.5 2.5 3.5 C 2.5 3.5 2.5 2.6 4.5 2.6 z "
   id="path1021"
   sodipodi:nodetypes="ccccc" /><path
   style="font-size:12;fill:#00ff00;fill-rule:evenodd;stroke:#000000;stroke-width:0.0469;stroke-linecap:round;stroke-linejoin:round;fill-opacity:0.5;stroke-opacity:1;stroke-dasharray:none;"
   d="M 2.5 1.5 C 2.5 1.5 2.5 0.6 4.5 0.6 C 6.5 0.6 6.5 1.5 6.5 1.5 L 6.5 3.5 C 6.5 3.5 6.5 2.6 4.5 2.6 C 2.5 2.6 2.5 3.5 2.5 3.5 z "
   id="path1022"
   sodipodi:nodetypes="ccccccc" /><path
   style="font-size:12;fill:#00ff00;fill-rule:evenodd;stroke:#000000;stroke-width:0.0469;stroke-linecap:round;stroke-linejoin:round;fill-opacity:0.5;stroke-opacity:1;stroke-dasharray:none;"
   d="M 2.5 1.5 C 2.5 1.5 2.5 2.4 4.5 2.4 C 6.5 2.4 6.5 1.5 6.5 1.5 L 6.5 3.5 C 6.5 3.5 6.5 4.4 4.5 4.4 C 2.5 4.4 2.5 3.5 2.5 3.5 z "
   id="path1023"
   sodipodi:nodetypes="ccccccc" /><path
   style="fill:#00ff00;fill-rule:evenodd;stroke:#000000;stroke-opacity:1;stroke-width:0.0469;stroke-linejoin:round;stroke-linecap:round;fill-opacity:0.5;stroke-dasharray:none;"
   d="M 4.5 0.6 C 6.5 0.6 6.5 1.5 6.5 1.5 C 6.5 1.5 6.5 2.4 4.5 2.4 C 2.5 2.4 2.5 1.5 2.5 1.5 C 2.5 1.5 2.5 0.6 4.5 0.6 z "
   id="path1024"
   sodipodi:nodetypes="ccccc" /></g><g
   id="g1025"
   transform="translate(12,4)"
   style="fill:#00ff00;fill-opacity:0.5;stroke:#000000;stroke-opacity:1;stroke-width:0.0469;stroke-dasharray:none;stroke-linejoin:round;stroke-linecap:round;"><path
   style="fill:#00ff00;fill-rule:evenodd;stroke:#000000;stroke-opacity:1;stroke-width:0.0469;stroke-linejoin:round;stroke-linecap:round;fill-opacity:0.5;stroke-dasharray:none;"
   d="M 4.5 2.6 C 6.5 2.6 6.5 3.5 6.5 3.5 C 6.5 3.5 6.5 4.4 4.5 4.4 C 2.5 4.4 2.5 3.5 2.5 3.5 C 2.5 3.5 2.5 2.6 4.5 2.6 z "
   id="path1026"
   sodipodi:nodetypes="ccccc" /><path
   style="font-size:12;fill:#00ff00;fill-rule:evenodd;stroke:#000000;stroke-width:0.0469;stroke-linecap:round;stroke-linejoin:round;fill-opacity:0.5;stroke-opacity:1;stroke-dasharray:none;"
   d="M 2.5 1.5 C 2.5 1.5 2.5 0.6 4.5 0.6 C 6.5 0.6 6.5 1.5 6.5 1.5 L 6.5 3.5 C 6.5 3.5 6.5 2.6 4.5 2.6 C 2.5 2.6 2.5 3.5 2.5 3.5 z "
   id="path1027"
   sodipodi:nodetypes="ccccccc" /><path
   style="font-size:12;fill:#00ff00;fill-rule:evenodd;stroke:#000000;stroke-width:0.0469;stroke-linecap:round;stroke-linejoin:round;fill-opacity:0.5;stroke-opacity:1;stroke-dasharray:none;"
   d="M 2.5 1.5 C 2.5 1.5 2.5 2.4 4.5 2.4 C 6.5 2.4 6.5 1.5 6.5 1.5 L 6.5 3.5 C 6.5 3.5 6.5 4.4 4.5 4.4 C 2.5 4.4 2.5 3.5 2.5 3.5 z "
   id="path1028"
   sodipodi:nodetypes="ccccccc" /><path
   style="fill:#00ff00;fill-rule:evenodd;stroke:#000000;stroke-opacity:1;stroke-width:0.0469;stroke-linejoin:round;stroke-linecap:round;fill-opacity:0.5;stroke-dasharray:none;"
   d="M 4.5 0.6 C 6.5 0.6 6.5 1.5 6.5 1.5 C 6.5 1.5 6.5 2.4 4.5 2.4 C 2.5 2.4 2.5 1.5 2.5 1.5 C 2.5 1.5 2.5 0.6 4.5 0.6 z "
   id="path1029"
   sodipodi:nodetypes="ccccc" /></g><g
   id="g1030"
   transform="translate(4,4)"
   style="fill:#00ff00;fill-opacity:0.5;stroke:#000000;stroke-opacity:1;stroke-width:0.0469;stroke-dasharray:none;stroke-linejoin:round;stroke-linecap:round;"><path
   style="fill:#00ff00;fill-rule:evenodd;stroke:#000000;stroke-opacity:1;stroke-width:0.0469;stroke-linejoin:round;stroke-linecap:round;fill-opacity:0.5;stroke-dasharray:none;"
   d="M 4.5 2.6 C 6.5 2.6 6.5 3.5 6.5 3.5 C 6.5 3.5 6.5 4.4 4.5 4.4 C 2.5 4.4 2.5 3.5 2.5 3.5 C 2.5 3.5 2.5 2.6 4.5 2.6 z "
   id="path1031"
   sodipodi:nodetypes="ccccc" /><path
   style="font-size:12;fill:#00ff00;fill-rule:evenodd;stroke:#000000;stroke-width:0.0469;stroke-linecap:round;stroke-linejoin:round;fill-opacity:0.5;stroke-opacity:1;stroke-dasharray:none;"
   d="M 2.5 1.5 C 2.5 1.5 2.5 0.6 4.5 0.6 C 6.5 0.6 6.5 1.5 6.5 1.5 L 6.5 3.5 C 6.5 3.5 6.5 2.6 4.5 2.6 C 2.5 2.6 2.5 3.5 2.5 3.5 z "
   id="path1032"
   sodipodi:nodetypes="ccccccc" /><path
   style="font-size:12;fill:#00ff00;fill-rule:evenodd;stroke:#000000;stroke-width:0.0469;stroke-linecap:round;stroke-linejoin:round;fill-opacity:0.5;stroke-opacity:1;stroke-dasharray:none;"
   d="M 2.5 1.5 C 2.5 1.5 2.5 2.4 4.5 2.4 C 6.5 2.4 6.5 1.5 6.5 1.5 L 6.5 3.5 C 6.5 3.5 6.5 4.4 4.5 4.4 C 2.5 4.4 2.5 3.5 2.5 3.5 z "
   id="path1033"
   sodipodi:nodetypes="ccccccc" /><path
   style="fill:#00ff00;fill-rule:evenodd;stroke:#000000;stroke-opacity:1;stroke-width:0.0469;stroke-linejoin:round;stroke-linecap:round;fill-opacity:0.5;stroke-dasharray:none;"
   d="M 4.5 0.6 C 6.5 0.6 6.5 1.5 6.5 1.5 C 6.5 1.5 6.5 2.4 4.5 2.4 C 2.5 2.4 2.5 1.5 2.5 1.5 C 2.5 1.5 2.5 0.6 4.5 0.6 z "
   id="path1034"
   sodipodi:nodetypes="ccccc" /></g><path
   style="font-size:12;fill:#00ffff;fill-rule:evenodd;stroke:#000000;stroke-width:0.0469;stroke-linejoin:round;stroke-linecap:round;fill-opacity:0.2471;stroke-opacity:1;stroke-dasharray:none;"
   d="M 0 -0.5 L 7 6.5 L 7 9.5 L 0 2.5 L 0 -0.5 z "
   id="path1035" /><path
   style="font-size:12;fill:#00ffff;fill-rule:evenodd;stroke:#000000;stroke-width:0.0469;stroke-linejoin:round;stroke-linecap:round;fill-opacity:0.2471;stroke-opacity:1;stroke-dasharray:none;"
   d="M 7 6.5 L 7 9.5 L 21 9.5 L 21 6.5 L 7 6.5 z "
   id="path1036" /><path
   style="font-size:12;fill:#00ffff;fill-rule:evenodd;stroke:#000000;stroke-width:0.0469;stroke-linejoin:round;stroke-linecap:round;fill-opacity:0.25;stroke-opacity:1;stroke-dasharray:none;"
   d="M 0 -0.5 L 7 6.5 L 21 6.5 L 14 -0.5 L 0 -0.5 z "
   id="path1037"
   sodipodi:nodetypes="cccccc" /></g><g
   id="g984"
   transform="matrix(0.833625,0,0,0.833625,13.98007,14.99869)"
   style="font-size:12;"><path
   style="font-size:12;fill:#00ffff;fill-rule:evenodd;stroke:#000000;stroke-width:0.0469;stroke-linejoin:round;stroke-linecap:round;fill-opacity:0.2471;stroke-opacity:1;stroke-dasharray:none;"
   d="M 0 2.5 L 7 9.5 L 21 9.5 L 14 2.5 L 0 2.5 z "
   id="path985"
   sodipodi:nodetypes="cccccc" /><path
   style="font-size:12;fill:#00ffff;fill-rule:evenodd;stroke:#000000;stroke-width:0.0469;fill-opacity:0.2471;stroke-opacity:1;stroke-dasharray:none;"
   d="M 0 -0.5 L 0 2.5 L 14 2.5 L 14 -0.5 L 0 -0.5 z "
   id="path986"
   sodipodi:nodetypes="cccccc" /><path
   style="font-size:12;fill:#00ffff;fill-rule:evenodd;stroke:#000000;stroke-width:0.0469;stroke-linejoin:round;stroke-linecap:round;fill-opacity:0.2471;stroke-opacity:1;stroke-dasharray:none;"
   d="M 14 -0.5 L 21 6.5 L 21 9.5 L 14 2.5 L 14 -0.5 z "
   id="path987" /><g
   id="g988"
   transform="translate(8,0)"
   style="fill:#00ff00;fill-opacity:0.5;stroke:#000000;stroke-opacity:1;stroke-width:0.0469;stroke-dasharray:none;stroke-linejoin:round;stroke-linecap:round;"><path
   style="fill:#00ff00;fill-rule:evenodd;stroke:#000000;stroke-opacity:1;stroke-width:0.0469;stroke-linejoin:round;stroke-linecap:round;fill-opacity:0.5;stroke-dasharray:none;"
   d="M 4.5 2.6 C 6.5 2.6 6.5 3.5 6.5 3.5 C 6.5 3.5 6.5 4.4 4.5 4.4 C 2.5 4.4 2.5 3.5 2.5 3.5 C 2.5 3.5 2.5 2.6 4.5 2.6 z "
   id="path989"
   sodipodi:nodetypes="ccccc" /><path
   style="font-size:12;fill:#00ff00;fill-rule:evenodd;stroke:#000000;stroke-width:0.0469;stroke-linecap:round;stroke-linejoin:round;fill-opacity:0.5;stroke-opacity:1;stroke-dasharray:none;"
   d="M 2.5 1.5 C 2.5 1.5 2.5 0.6 4.5 0.6 C 6.5 0.6 6.5 1.5 6.5 1.5 L 6.5 3.5 C 6.5 3.5 6.5 2.6 4.5 2.6 C 2.5 2.6 2.5 3.5 2.5 3.5 z "
   id="path990"
   sodipodi:nodetypes="ccccccc" /><path
   style="font-size:12;fill:#00ff00;fill-rule:evenodd;stroke:#000000;stroke-width:0.0469;stroke-linecap:round;stroke-linejoin:round;fill-opacity:0.5;stroke-opacity:1;stroke-dasharray:none;"
   d="M 2.5 1.5 C 2.5 1.5 2.5 2.4 4.5 2.4 C 6.5 2.4 6.5 1.5 6.5 1.5 L 6.5 3.5 C 6.5 3.5 6.5 4.4 4.5 4.4 C 2.5 4.4 2.5 3.5 2.5 3.5 z "
   id="path991"
   sodipodi:nodetypes="ccccccc" /><path
   style="fill:#00ff00;fill-rule:evenodd;stroke:#000000;stroke-opacity:1;stroke-width:0.0469;stroke-linejoin:round;stroke-linecap:round;fill-opacity:0.5;stroke-dasharray:none;"
   d="M 4.5 0.6 C 6.5 0.6 6.5 1.5 6.5 1.5 C 6.5 1.5 6.5 2.4 4.5 2.4 C 2.5 2.4 2.5 1.5 2.5 1.5 C 2.5 1.5 2.5 0.6 4.5 0.6 z "
   id="path992"
   sodipodi:nodetypes="ccccc" /></g><g
   id="g993"
   style="fill:#00ff00;fill-opacity:0.5;stroke:#000000;stroke-opacity:1;stroke-width:0.0469;stroke-dasharray:none;stroke-linejoin:round;stroke-linecap:round;"><path
   style="fill:#00ff00;fill-rule:evenodd;stroke:#000000;stroke-opacity:1;stroke-width:0.0469;stroke-linejoin:round;stroke-linecap:round;fill-opacity:0.5;stroke-dasharray:none;"
   d="M 4.5 2.6 C 6.5 2.6 6.5 3.5 6.5 3.5 C 6.5 3.5 6.5 4.4 4.5 4.4 C 2.5 4.4 2.5 3.5 2.5 3.5 C 2.5 3.5 2.5 2.6 4.5 2.6 z "
   id="path994"
   sodipodi:nodetypes="ccccc" /><path
   style="font-size:12;fill:#00ff00;fill-rule:evenodd;stroke:#000000;stroke-width:0.0469;stroke-linecap:round;stroke-linejoin:round;fill-opacity:0.5;stroke-opacity:1;stroke-dasharray:none;"
   d="M 2.5 1.5 C 2.5 1.5 2.5 0.6 4.5 0.6 C 6.5 0.6 6.5 1.5 6.5 1.5 L 6.5 3.5 C 6.5 3.5 6.5 2.6 4.5 2.6 C 2.5 2.6 2.5 3.5 2.5 3.5 z "
   id="path995"
   sodipodi:nodetypes="ccccccc" /><path
   style="font-size:12;fill:#00ff00;fill-rule:evenodd;stroke:#000000;stroke-width:0.0469;stroke-linecap:round;stroke-linejoin:round;fill-opacity:0.5;stroke-opacity:1;stroke-dasharray:none;"
   d="M 2.5 1.5 C 2.5 1.5 2.5 2.4 4.5 2.4 C 6.5 2.4 6.5 1.5 6.5 1.5 L 6.5 3.5 C 6.5 3.5 6.5 4.4 4.5 4.4 C 2.5 4.4 2.5 3.5 2.5 3.5 z "
   id="path996"
   sodipodi:nodetypes="ccccccc" /><path
   style="fill:#00ff00;fill-rule:evenodd;stroke:#000000;stroke-opacity:1;stroke-width:0.0469;stroke-linejoin:round;stroke-linecap:round;fill-opacity:0.5;stroke-dasharray:none;"
   d="M 4.5 0.6 C 6.5 0.6 6.5 1.5 6.5 1.5 C 6.5 1.5 6.5 2.4 4.5 2.4 C 2.5 2.4 2.5 1.5 2.5 1.5 C 2.5 1.5 2.5 0.6 4.5 0.6 z "
   id="path997"
   sodipodi:nodetypes="ccccc" /></g><g
   id="g998"
   transform="translate(12,4)"
   style="fill:#00ff00;fill-opacity:0.5;stroke:#000000;stroke-opacity:1;stroke-width:0.0469;stroke-dasharray:none;stroke-linejoin:round;stroke-linecap:round;"><path
   style="fill:#00ff00;fill-rule:evenodd;stroke:#000000;stroke-opacity:1;stroke-width:0.0469;stroke-linejoin:round;stroke-linecap:round;fill-opacity:0.5;stroke-dasharray:none;"
   d="M 4.5 2.6 C 6.5 2.6 6.5 3.5 6.5 3.5 C 6.5 3.5 6.5 4.4 4.5 4.4 C 2.5 4.4 2.5 3.5 2.5 3.5 C 2.5 3.5 2.5 2.6 4.5 2.6 z "
   id="path999"
   sodipodi:nodetypes="ccccc" /><path
   style="font-size:12;fill:#00ff00;fill-rule:evenodd;stroke:#000000;stroke-width:0.0469;stroke-linecap:round;stroke-linejoin:round;fill-opacity:0.5;stroke-opacity:1;stroke-dasharray:none;"
   d="M 2.5 1.5 C 2.5 1.5 2.5 0.6 4.5 0.6 C 6.5 0.6 6.5 1.5 6.5 1.5 L 6.5 3.5 C 6.5 3.5 6.5 2.6 4.5 2.6 C 2.5 2.6 2.5 3.5 2.5 3.5 z "
   id="path1000"
   sodipodi:nodetypes="ccccccc" /><path
   style="font-size:12;fill:#00ff00;fill-rule:evenodd;stroke:#000000;stroke-width:0.0469;stroke-linecap:round;stroke-linejoin:round;fill-opacity:0.5;stroke-opacity:1;stroke-dasharray:none;"
   d="M 2.5 1.5 C 2.5 1.5 2.5 2.4 4.5 2.4 C 6.5 2.4 6.5 1.5 6.5 1.5 L 6.5 3.5 C 6.5 3.5 6.5 4.4 4.5 4.4 C 2.5 4.4 2.5 3.5 2.5 3.5 z "
   id="path1001"
   sodipodi:nodetypes="ccccccc" /><path
   style="fill:#00ff00;fill-rule:evenodd;stroke:#000000;stroke-opacity:1;stroke-width:0.0469;stroke-linejoin:round;stroke-linecap:round;fill-opacity:0.5;stroke-dasharray:none;"
   d="M 4.5 0.6 C 6.5 0.6 6.5 1.5 6.5 1.5 C 6.5 1.5 6.5 2.4 4.5 2.4 C 2.5 2.4 2.5 1.5 2.5 1.5 C 2.5 1.5 2.5 0.6 4.5 0.6 z "
   id="path1002"
   sodipodi:nodetypes="ccccc" /></g><g
   id="g1003"
   transform="translate(4,4)"
   style="fill:#00ff00;fill-opacity:0.5;stroke:#000000;stroke-opacity:1;stroke-width:0.0469;stroke-dasharray:none;stroke-linejoin:round;stroke-linecap:round;"><path
   style="fill:#00ff00;fill-rule:evenodd;stroke:#000000;stroke-opacity:1;stroke-width:0.0469;stroke-linejoin:round;stroke-linecap:round;fill-opacity:0.5;stroke-dasharray:none;"
   d="M 4.5 2.6 C 6.5 2.6 6.5 3.5 6.5 3.5 C 6.5 3.5 6.5 4.4 4.5 4.4 C 2.5 4.4 2.5 3.5 2.5 3.5 C 2.5 3.5 2.5 2.6 4.5 2.6 z "
   id="path1004"
   sodipodi:nodetypes="ccccc" /><path
   style="font-size:12;fill:#00ff00;fill-rule:evenodd;stroke:#000000;stroke-width:0.0469;stroke-linecap:round;stroke-linejoin:round;fill-opacity:0.5;stroke-opacity:1;stroke-dasharray:none;"
   d="M 2.5 1.5 C 2.5 1.5 2.5 0.6 4.5 0.6 C 6.5 0.6 6.5 1.5 6.5 1.5 L 6.5 3.5 C 6.5 3.5 6.5 2.6 4.5 2.6 C 2.5 2.6 2.5 3.5 2.5 3.5 z "
   id="path1005"
   sodipodi:nodetypes="ccccccc" /><path
   style="font-size:12;fill:#00ff00;fill-rule:evenodd;stroke:#000000;stroke-width:0.0469;stroke-linecap:round;stroke-linejoin:round;fill-opacity:0.5;stroke-opacity:1;stroke-dasharray:none;"
   d="M 2.5 1.5 C 2.5 1.5 2.5 2.4 4.5 2.4 C 6.5 2.4 6.5 1.5 6.5 1.5 L 6.5 3.5 C 6.5 3.5 6.5 4.4 4.5 4.4 C 2.5 4.4 2.5 3.5 2.5 3.5 z "
   id="path1006"
   sodipodi:nodetypes="ccccccc" /><path
   style="fill:#00ff00;fill-rule:evenodd;stroke:#000000;stroke-opacity:1;stroke-width:0.0469;stroke-linejoin:round;stroke-linecap:round;fill-opacity:0.5;stroke-dasharray:none;"
   d="M 4.5 0.6 C 6.5 0.6 6.5 1.5 6.5 1.5 C 6.5 1.5 6.5 2.4 4.5 2.4 C 2.5 2.4 2.5 1.5 2.5 1.5 C 2.5 1.5 2.5 0.6 4.5 0.6 z "
   id="path1007"
   sodipodi:nodetypes="ccccc" /></g><path
   style="font-size:12;fill:#00ffff;fill-rule:evenodd;stroke:#000000;stroke-width:0.0469;stroke-linejoin:round;stroke-linecap:round;fill-opacity:0.2471;stroke-opacity:1;stroke-dasharray:none;"
   d="M 0 -0.5 L 7 6.5 L 7 9.5 L 0 2.5 L 0 -0.5 z "
   id="path1008" /><path
   style="font-size:12;fill:#00ffff;fill-rule:evenodd;stroke:#000000;stroke-width:0.0469;stroke-linejoin:round;stroke-linecap:round;fill-opacity:0.2471;stroke-opacity:1;stroke-dasharray:none;"
   d="M 7 6.5 L 7 9.5 L 21 9.5 L 21 6.5 L 7 6.5 z "
   id="path1009" /><path
   style="font-size:12;fill:#00ffff;fill-rule:evenodd;stroke:#000000;stroke-width:0.0469;stroke-linejoin:round;stroke-linecap:round;fill-opacity:0.25;stroke-opacity:1;stroke-dasharray:none;"
   d="M 0 -0.5 L 7 6.5 L 21 6.5 L 14 -0.5 L 0 -0.5 z "
   id="path1010"
   sodipodi:nodetypes="cccccc" /></g><g
   id="g957"
   transform="matrix(0.833625,0,0,0.833625,10.43677,14.99869)"
   style="font-size:12;"><path
   style="font-size:12;fill:#00ffff;fill-rule:evenodd;stroke:#000000;stroke-width:0.0469;stroke-linejoin:round;stroke-linecap:round;fill-opacity:0.2471;stroke-opacity:1;stroke-dasharray:none;"
   d="M 0 2.5 L 7 9.5 L 21 9.5 L 14 2.5 L 0 2.5 z "
   id="path958"
   sodipodi:nodetypes="cccccc" /><path
   style="font-size:12;fill:#00ffff;fill-rule:evenodd;stroke:#000000;stroke-width:0.0469;fill-opacity:0.2471;stroke-opacity:1;stroke-dasharray:none;"
   d="M 0 -0.5 L 0 2.5 L 14 2.5 L 14 -0.5 L 0 -0.5 z "
   id="path959"
   sodipodi:nodetypes="cccccc" /><path
   style="font-size:12;fill:#00ffff;fill-rule:evenodd;stroke:#000000;stroke-width:0.0469;stroke-linejoin:round;stroke-linecap:round;fill-opacity:0.2471;stroke-opacity:1;stroke-dasharray:none;"
   d="M 14 -0.5 L 21 6.5 L 21 9.5 L 14 2.5 L 14 -0.5 z "
   id="path960" /><g
   id="g961"
   transform="translate(8,0)"
   style="fill:#00ff00;fill-opacity:0.5;stroke:#000000;stroke-opacity:1;stroke-width:0.0469;stroke-dasharray:none;stroke-linejoin:round;stroke-linecap:round;"><path
   style="fill:#00ff00;fill-rule:evenodd;stroke:#000000;stroke-opacity:1;stroke-width:0.0469;stroke-linejoin:round;stroke-linecap:round;fill-opacity:0.5;stroke-dasharray:none;"
   d="M 4.5 2.6 C 6.5 2.6 6.5 3.5 6.5 3.5 C 6.5 3.5 6.5 4.4 4.5 4.4 C 2.5 4.4 2.5 3.5 2.5 3.5 C 2.5 3.5 2.5 2.6 4.5 2.6 z "
   id="path962"
   sodipodi:nodetypes="ccccc" /><path
   style="font-size:12;fill:#00ff00;fill-rule:evenodd;stroke:#000000;stroke-width:0.0469;stroke-linecap:round;stroke-linejoin:round;fill-opacity:0.5;stroke-opacity:1;stroke-dasharray:none;"
   d="M 2.5 1.5 C 2.5 1.5 2.5 0.6 4.5 0.6 C 6.5 0.6 6.5 1.5 6.5 1.5 L 6.5 3.5 C 6.5 3.5 6.5 2.6 4.5 2.6 C 2.5 2.6 2.5 3.5 2.5 3.5 z "
   id="path963"
   sodipodi:nodetypes="ccccccc" /><path
   style="font-size:12;fill:#00ff00;fill-rule:evenodd;stroke:#000000;stroke-width:0.0469;stroke-linecap:round;stroke-linejoin:round;fill-opacity:0.5;stroke-opacity:1;stroke-dasharray:none;"
   d="M 2.5 1.5 C 2.5 1.5 2.5 2.4 4.5 2.4 C 6.5 2.4 6.5 1.5 6.5 1.5 L 6.5 3.5 C 6.5 3.5 6.5 4.4 4.5 4.4 C 2.5 4.4 2.5 3.5 2.5 3.5 z "
   id="path964"
   sodipodi:nodetypes="ccccccc" /><path
   style="fill:#00ff00;fill-rule:evenodd;stroke:#000000;stroke-opacity:1;stroke-width:0.0469;stroke-linejoin:round;stroke-linecap:round;fill-opacity:0.5;stroke-dasharray:none;"
   d="M 4.5 0.6 C 6.5 0.6 6.5 1.5 6.5 1.5 C 6.5 1.5 6.5 2.4 4.5 2.4 C 2.5 2.4 2.5 1.5 2.5 1.5 C 2.5 1.5 2.5 0.6 4.5 0.6 z "
   id="path965"
   sodipodi:nodetypes="ccccc" /></g><g
   id="g966"
   style="fill:#00ff00;fill-opacity:0.5;stroke:#000000;stroke-opacity:1;stroke-width:0.0469;stroke-dasharray:none;stroke-linejoin:round;stroke-linecap:round;"><path
   style="fill:#00ff00;fill-rule:evenodd;stroke:#000000;stroke-opacity:1;stroke-width:0.0469;stroke-linejoin:round;stroke-linecap:round;fill-opacity:0.5;stroke-dasharray:none;"
   d="M 4.5 2.6 C 6.5 2.6 6.5 3.5 6.5 3.5 C 6.5 3.5 6.5 4.4 4.5 4.4 C 2.5 4.4 2.5 3.5 2.5 3.5 C 2.5 3.5 2.5 2.6 4.5 2.6 z "
   id="path967"
   sodipodi:nodetypes="ccccc" /><path
   style="font-size:12;fill:#00ff00;fill-rule:evenodd;stroke:#000000;stroke-width:0.0469;stroke-linecap:round;stroke-linejoin:round;fill-opacity:0.5;stroke-opacity:1;stroke-dasharray:none;"
   d="M 2.5 1.5 C 2.5 1.5 2.5 0.6 4.5 0.6 C 6.5 0.6 6.5 1.5 6.5 1.5 L 6.5 3.5 C 6.5 3.5 6.5 2.6 4.5 2.6 C 2.5 2.6 2.5 3.5 2.5 3.5 z "
   id="path968"
   sodipodi:nodetypes="ccccccc" /><path
   style="font-size:12;fill:#00ff00;fill-rule:evenodd;stroke:#000000;stroke-width:0.0469;stroke-linecap:round;stroke-linejoin:round;fill-opacity:0.5;stroke-opacity:1;stroke-dasharray:none;"
   d="M 2.5 1.5 C 2.5 1.5 2.5 2.4 4.5 2.4 C 6.5 2.4 6.5 1.5 6.5 1.5 L 6.5 3.5 C 6.5 3.5 6.5 4.4 4.5 4.4 C 2.5 4.4 2.5 3.5 2.5 3.5 z "
   id="path969"
   sodipodi:nodetypes="ccccccc" /><path
   style="fill:#00ff00;fill-rule:evenodd;stroke:#000000;stroke-opacity:1;stroke-width:0.0469;stroke-linejoin:round;stroke-linecap:round;fill-opacity:0.5;stroke-dasharray:none;"
   d="M 4.5 0.6 C 6.5 0.6 6.5 1.5 6.5 1.5 C 6.5 1.5 6.5 2.4 4.5 2.4 C 2.5 2.4 2.5 1.5 2.5 1.5 C 2.5 1.5 2.5 0.6 4.5 0.6 z "
   id="path970"
   sodipodi:nodetypes="ccccc" /></g><g
   id="g971"
   transform="translate(12,4)"
   style="fill:#00ff00;fill-opacity:0.5;stroke:#000000;stroke-opacity:1;stroke-width:0.0469;stroke-dasharray:none;stroke-linejoin:round;stroke-linecap:round;"><path
   style="fill:#00ff00;fill-rule:evenodd;stroke:#000000;stroke-opacity:1;stroke-width:0.0469;stroke-linejoin:round;stroke-linecap:round;fill-opacity:0.5;stroke-dasharray:none;"
   d="M 4.5 2.6 C 6.5 2.6 6.5 3.5 6.5 3.5 C 6.5 3.5 6.5 4.4 4.5 4.4 C 2.5 4.4 2.5 3.5 2.5 3.5 C 2.5 3.5 2.5 2.6 4.5 2.6 z "
   id="path972"
   sodipodi:nodetypes="ccccc" /><path
   style="font-size:12;fill:#00ff00;fill-rule:evenodd;stroke:#000000;stroke-width:0.0469;stroke-linecap:round;stroke-linejoin:round;fill-opacity:0.5;stroke-opacity:1;stroke-dasharray:none;"
   d="M 2.5 1.5 C 2.5 1.5 2.5 0.6 4.5 0.6 C 6.5 0.6 6.5 1.5 6.5 1.5 L 6.5 3.5 C 6.5 3.5 6.5 2.6 4.5 2.6 C 2.5 2.6 2.5 3.5 2.5 3.5 z "
   id="path973"
   sodipodi:nodetypes="ccccccc" /><path
   style="font-size:12;fill:#00ff00;fill-rule:evenodd;stroke:#000000;stroke-width:0.0469;stroke-linecap:round;stroke-linejoin:round;fill-opacity:0.5;stroke-opacity:1;stroke-dasharray:none;"
   d="M 2.5 1.5 C 2.5 1.5 2.5 2.4 4.5 2.4 C 6.5 2.4 6.5 1.5 6.5 1.5 L 6.5 3.5 C 6.5 3.5 6.5 4.4 4.5 4.4 C 2.5 4.4 2.5 3.5 2.5 3.5 z "
   id="path974"
   sodipodi:nodetypes="ccccccc" /><path
   style="fill:#00ff00;fill-rule:evenodd;stroke:#000000;stroke-opacity:1;stroke-width:0.0469;stroke-linejoin:round;stroke-linecap:round;fill-opacity:0.5;stroke-dasharray:none;"
   d="M 4.5 0.6 C 6.5 0.6 6.5 1.5 6.5 1.5 C 6.5 1.5 6.5 2.4 4.5 2.4 C 2.5 2.4 2.5 1.5 2.5 1.5 C 2.5 1.5 2.5 0.6 4.5 0.6 z "
   id="path975"
   sodipodi:nodetypes="ccccc" /></g><g
   id="g976"
   transform="translate(4,4)"
   style="fill:#00ff00;fill-opacity:0.5;stroke:#000000;stroke-opacity:1;stroke-width:0.0469;stroke-dasharray:none;stroke-linejoin:round;stroke-linecap:round;"><path
   style="fill:#00ff00;fill-rule:evenodd;stroke:#000000;stroke-opacity:1;stroke-width:0.0469;stroke-linejoin:round;stroke-linecap:round;fill-opacity:0.5;stroke-dasharray:none;"
   d="M 4.5 2.6 C 6.5 2.6 6.5 3.5 6.5 3.5 C 6.5 3.5 6.5 4.4 4.5 4.4 C 2.5 4.4 2.5 3.5 2.5 3.5 C 2.5 3.5 2.5 2.6 4.5 2.6 z "
   id="path977"
   sodipodi:nodetypes="ccccc" /><path
   style="font-size:12;fill:#00ff00;fill-rule:evenodd;stroke:#000000;stroke-width:0.0469;stroke-linecap:round;stroke-linejoin:round;fill-opacity:0.5;stroke-opacity:1;stroke-dasharray:none;"
   d="M 2.5 1.5 C 2.5 1.5 2.5 0.6 4.5 0.6 C 6.5 0.6 6.5 1.5 6.5 1.5 L 6.5 3.5 C 6.5 3.5 6.5 2.6 4.5 2.6 C 2.5 2.6 2.5 3.5 2.5 3.5 z "
   id="path978"
   sodipodi:nodetypes="ccccccc" /><path
   style="font-size:12;fill:#00ff00;fill-rule:evenodd;stroke:#000000;stroke-width:0.0469;stroke-linecap:round;stroke-linejoin:round;fill-opacity:0.5;stroke-opacity:1;stroke-dasharray:none;"
   d="M 2.5 1.5 C 2.5 1.5 2.5 2.4 4.5 2.4 C 6.5 2.4 6.5 1.5 6.5 1.5 L 6.5 3.5 C 6.5 3.5 6.5 4.4 4.5 4.4 C 2.5 4.4 2.5 3.5 2.5 3.5 z "
   id="path979"
   sodipodi:nodetypes="ccccccc" /><path
   style="fill:#00ff00;fill-rule:evenodd;stroke:#000000;stroke-opacity:1;stroke-width:0.0469;stroke-linejoin:round;stroke-linecap:round;fill-opacity:0.5;stroke-dasharray:none;"
   d="M 4.5 0.6 C 6.5 0.6 6.5 1.5 6.5 1.5 C 6.5 1.5 6.5 2.4 4.5 2.4 C 2.5 2.4 2.5 1.5 2.5 1.5 C 2.5 1.5 2.5 0.6 4.5 0.6 z "
   id="path980"
   sodipodi:nodetypes="ccccc" /></g><path
   style="font-size:12;fill:#00ffff;fill-rule:evenodd;stroke:#000000;stroke-width:0.0469;stroke-linejoin:round;stroke-linecap:round;fill-opacity:0.2471;stroke-opacity:1;stroke-dasharray:none;"
   d="M 0 -0.5 L 7 6.5 L 7 9.5 L 0 2.5 L 0 -0.5 z "
   id="path981" /><path
   style="font-size:12;fill:#00ffff;fill-rule:evenodd;stroke:#000000;stroke-width:0.0469;stroke-linejoin:round;stroke-linecap:round;fill-opacity:0.2471;stroke-opacity:1;stroke-dasharray:none;"
   d="M 7 6.5 L 7 9.5 L 21 9.5 L 21 6.5 L 7 6.5 z "
   id="path982" /><path
   style="font-size:12;fill:#00ffff;fill-rule:evenodd;stroke:#000000;stroke-width:0.0469;stroke-linejoin:round;stroke-linecap:round;fill-opacity:0.25;stroke-opacity:1;stroke-dasharray:none;"
   d="M 0 -0.5 L 7 6.5 L 21 6.5 L 14 -0.5 L 0 -0.5 z "
   id="path983"
   sodipodi:nodetypes="cccccc" /></g><g
   id="g930"
   transform="matrix(0.833625,0,0,0.833625,6.893466,14.99869)"
   style="font-size:12;"><path
   style="font-size:12;fill:#00ffff;fill-rule:evenodd;stroke:#000000;stroke-width:0.0469;stroke-linejoin:round;stroke-linecap:round;fill-opacity:0.1;stroke-opacity:0.1;stroke-dasharray:none;"
   d="M 0 2.5 L 7 9.5 L 21 9.5 L 14 2.5 L 0 2.5 z "
   id="path931"
   sodipodi:nodetypes="cccccc" /><path
   style="font-size:12;fill:#00ffff;fill-rule:evenodd;stroke:#000000;stroke-width:0.0469;fill-opacity:0.1;stroke-opacity:0.1;stroke-dasharray:none;"
   d="M 0 -0.5 L 0 2.5 L 14 2.5 L 14 -0.5 L 0 -0.5 z "
   id="path932"
   sodipodi:nodetypes="cccccc" /><path
   style="font-size:12;fill:#00ffff;fill-rule:evenodd;stroke:#000000;stroke-width:0.0469;stroke-linejoin:round;stroke-linecap:round;fill-opacity:0.1;stroke-opacity:0.1;stroke-dasharray:none;"
   d="M 14 -0.5 L 21 6.5 L 21 9.5 L 14 2.5 L 14 -0.5 z "
   id="path933" /><g
   id="g934"
   transform="translate(8,0)"
   style="fill:#00ff00;fill-opacity:0.5;stroke:#000000;stroke-opacity:1;stroke-width:0.0469;stroke-dasharray:none;stroke-linejoin:round;stroke-linecap:round;"><path
   style="fill:#00ff00;fill-rule:evenodd;stroke:#000000;stroke-opacity:1;stroke-width:0.0469;stroke-linejoin:round;stroke-linecap:round;fill-opacity:0.25;stroke-dasharray:none;"
   d="M 4.5 2.6 C 6.5 2.6 6.5 3.5 6.5 3.5 C 6.5 3.5 6.5 4.4 4.5 4.4 C 2.5 4.4 2.5 3.5 2.5 3.5 C 2.5 3.5 2.5 2.6 4.5 2.6 z "
   id="path935"
   sodipodi:nodetypes="ccccc" /><path
   style="font-size:12;fill:#00ff00;fill-rule:evenodd;stroke:#000000;stroke-width:0.0469;stroke-linecap:round;stroke-linejoin:round;fill-opacity:0.25;stroke-opacity:1;stroke-dasharray:none;"
   d="M 2.5 1.5 C 2.5 1.5 2.5 0.6 4.5 0.6 C 6.5 0.6 6.5 1.5 6.5 1.5 L 6.5 3.5 C 6.5 3.5 6.5 2.6 4.5 2.6 C 2.5 2.6 2.5 3.5 2.5 3.5 z "
   id="path936"
   sodipodi:nodetypes="ccccccc" /><path
   style="font-size:12;fill:#00ff00;fill-rule:evenodd;stroke:#000000;stroke-width:0.0469;stroke-linecap:round;stroke-linejoin:round;fill-opacity:0.25;stroke-opacity:1;stroke-dasharray:none;"
   d="M 2.5 1.5 C 2.5 1.5 2.5 2.4 4.5 2.4 C 6.5 2.4 6.5 1.5 6.5 1.5 L 6.5 3.5 C 6.5 3.5 6.5 4.4 4.5 4.4 C 2.5 4.4 2.5 3.5 2.5 3.5 z "
   id="path937"
   sodipodi:nodetypes="ccccccc" /><path
   style="fill:#00ff00;fill-rule:evenodd;stroke:#000000;stroke-opacity:1;stroke-width:0.0469;stroke-linejoin:round;stroke-linecap:round;fill-opacity:0.25;stroke-dasharray:none;"
   d="M 4.5 0.6 C 6.5 0.6 6.5 1.5 6.5 1.5 C 6.5 1.5 6.5 2.4 4.5 2.4 C 2.5 2.4 2.5 1.5 2.5 1.5 C 2.5 1.5 2.5 0.6 4.5 0.6 z "
   id="path938"
   sodipodi:nodetypes="ccccc" /></g><g
   id="g939"
   style="fill:#00ff00;fill-opacity:0.5;stroke:#000000;stroke-opacity:1;stroke-width:0.0469;stroke-dasharray:none;stroke-linejoin:round;stroke-linecap:round;"><path
   style="fill:#00ff00;fill-rule:evenodd;stroke:#000000;stroke-opacity:1;stroke-width:0.0469;stroke-linejoin:round;stroke-linecap:round;fill-opacity:0.25;stroke-dasharray:none;"
   d="M 4.5 2.6 C 6.5 2.6 6.5 3.5 6.5 3.5 C 6.5 3.5 6.5 4.4 4.5 4.4 C 2.5 4.4 2.5 3.5 2.5 3.5 C 2.5 3.5 2.5 2.6 4.5 2.6 z "
   id="path940"
   sodipodi:nodetypes="ccccc" /><path
   style="font-size:12;fill:#00ff00;fill-rule:evenodd;stroke:#000000;stroke-width:0.0469;stroke-linecap:round;stroke-linejoin:round;fill-opacity:0.25;stroke-opacity:1;stroke-dasharray:none;"
   d="M 2.5 1.5 C 2.5 1.5 2.5 0.6 4.5 0.6 C 6.5 0.6 6.5 1.5 6.5 1.5 L 6.5 3.5 C 6.5 3.5 6.5 2.6 4.5 2.6 C 2.5 2.6 2.5 3.5 2.5 3.5 z "
   id="path941"
   sodipodi:nodetypes="ccccccc" /><path
   style="font-size:12;fill:#00ff00;fill-rule:evenodd;stroke:#000000;stroke-width:0.0469;stroke-linecap:round;stroke-linejoin:round;fill-opacity:0.25;stroke-opacity:1;stroke-dasharray:none;"
   d="M 2.5 1.5 C 2.5 1.5 2.5 2.4 4.5 2.4 C 6.5 2.4 6.5 1.5 6.5 1.5 L 6.5 3.5 C 6.5 3.5 6.5 4.4 4.5 4.4 C 2.5 4.4 2.5 3.5 2.5 3.5 z "
   id="path942"
   sodipodi:nodetypes="ccccccc" /><path
   style="fill:#00ff00;fill-rule:evenodd;stroke:#000000;stroke-opacity:1;stroke-width:0.0469;stroke-linejoin:round;stroke-linecap:round;fill-opacity:0.25;stroke-dasharray:none;"
   d="M 4.5 0.6 C 6.5 0.6 6.5 1.5 6.5 1.5 C 6.5 1.5 6.5 2.4 4.5 2.4 C 2.5 2.4 2.5 1.5 2.5 1.5 C 2.5 1.5 2.5 0.6 4.5 0.6 z "
   id="path943"
   sodipodi:nodetypes="ccccc" /></g><g
   id="g944"
   transform="translate(12,4)"
   style="fill:#00ff00;fill-opacity:0.5;stroke:#000000;stroke-opacity:1;stroke-width:0.0469;stroke-dasharray:none;stroke-linejoin:round;stroke-linecap:round;"><path
   style="fill:#00ff00;fill-rule:evenodd;stroke:#000000;stroke-opacity:1;stroke-width:0.0469;stroke-linejoin:round;stroke-linecap:round;fill-opacity:0.25;stroke-dasharray:none;"
   d="M 4.5 2.6 C 6.5 2.6 6.5 3.5 6.5 3.5 C 6.5 3.5 6.5 4.4 4.5 4.4 C 2.5 4.4 2.5 3.5 2.5 3.5 C 2.5 3.5 2.5 2.6 4.5 2.6 z "
   id="path945"
   sodipodi:nodetypes="ccccc" /><path
   style="font-size:12;fill:#00ff00;fill-rule:evenodd;stroke:#000000;stroke-width:0.0469;stroke-linecap:round;stroke-linejoin:round;fill-opacity:0.25;stroke-opacity:1;stroke-dasharray:none;"
   d="M 2.5 1.5 C 2.5 1.5 2.5 0.6 4.5 0.6 C 6.5 0.6 6.5 1.5 6.5 1.5 L 6.5 3.5 C 6.5 3.5 6.5 2.6 4.5 2.6 C 2.5 2.6 2.5 3.5 2.5 3.5 z "
   id="path946"
   sodipodi:nodetypes="ccccccc" /><path
   style="font-size:12;fill:#00ff00;fill-rule:evenodd;stroke:#000000;stroke-width:0.0469;stroke-linecap:round;stroke-linejoin:round;fill-opacity:0.25;stroke-opacity:1;stroke-dasharray:none;"
   d="M 2.5 1.5 C 2.5 1.5 2.5 2.4 4.5 2.4 C 6.5 2.4 6.5 1.5 6.5 1.5 L 6.5 3.5 C 6.5 3.5 6.5 4.4 4.5 4.4 C 2.5 4.4 2.5 3.5 2.5 3.5 z "
   id="path947"
   sodipodi:nodetypes="ccccccc" /><path
   style="fill:#00ff00;fill-rule:evenodd;stroke:#000000;stroke-opacity:1;stroke-width:0.0469;stroke-linejoin:round;stroke-linecap:round;fill-opacity:0.25;stroke-dasharray:none;"
   d="M 4.5 0.6 C 6.5 0.6 6.5 1.5 6.5 1.5 C 6.5 1.5 6.5 2.4 4.5 2.4 C 2.5 2.4 2.5 1.5 2.5 1.5 C 2.5 1.5 2.5 0.6 4.5 0.6 z "
   id="path948"
   sodipodi:nodetypes="ccccc" /></g><g
   id="g949"
   transform="translate(4,4)"
   style="fill:#00ff00;fill-opacity:0.5;stroke:#000000;stroke-opacity:1;stroke-width:0.0469;stroke-dasharray:none;stroke-linejoin:round;stroke-linecap:round;"><path
   style="fill:#00ff00;fill-rule:evenodd;stroke:#000000;stroke-opacity:1;stroke-width:0.0469;stroke-linejoin:round;stroke-linecap:round;fill-opacity:0.25;stroke-dasharray:none;"
   d="M 4.5 2.6 C 6.5 2.6 6.5 3.5 6.5 3.5 C 6.5 3.5 6.5 4.4 4.5 4.4 C 2.5 4.4 2.5 3.5 2.5 3.5 C 2.5 3.5 2.5 2.6 4.5 2.6 z "
   id="path950"
   sodipodi:nodetypes="ccccc" /><path
   style="font-size:12;fill:#00ff00;fill-rule:evenodd;stroke:#000000;stroke-width:0.0469;stroke-linecap:round;stroke-linejoin:round;fill-opacity:0.25;stroke-opacity:1;stroke-dasharray:none;"
   d="M 2.5 1.5 C 2.5 1.5 2.5 0.6 4.5 0.6 C 6.5 0.6 6.5 1.5 6.5 1.5 L 6.5 3.5 C 6.5 3.5 6.5 2.6 4.5 2.6 C 2.5 2.6 2.5 3.5 2.5 3.5 z "
   id="path951"
   sodipodi:nodetypes="ccccccc" /><path
   style="font-size:12;fill:#00ff00;fill-rule:evenodd;stroke:#000000;stroke-width:0.0469;stroke-linecap:round;stroke-linejoin:round;fill-opacity:0.25;stroke-opacity:1;stroke-dasharray:none;"
   d="M 2.5 1.5 C 2.5 1.5 2.5 2.4 4.5 2.4 C 6.5 2.4 6.5 1.5 6.5 1.5 L 6.5 3.5 C 6.5 3.5 6.5 4.4 4.5 4.4 C 2.5 4.4 2.5 3.5 2.5 3.5 z "
   id="path952"
   sodipodi:nodetypes="ccccccc" /><path
   style="fill:#00ff00;fill-rule:evenodd;stroke:#000000;stroke-opacity:1;stroke-width:0.0469;stroke-linejoin:round;stroke-linecap:round;fill-opacity:0.25;stroke-dasharray:none;"
   d="M 4.5 0.6 C 6.5 0.6 6.5 1.5 6.5 1.5 C 6.5 1.5 6.5 2.4 4.5 2.4 C 2.5 2.4 2.5 1.5 2.5 1.5 C 2.5 1.5 2.5 0.6 4.5 0.6 z "
   id="path953"
   sodipodi:nodetypes="ccccc" /></g><path
   style="font-size:12;fill:#00ffff;fill-rule:evenodd;stroke:#000000;stroke-width:0.0469;stroke-linejoin:round;stroke-linecap:round;fill-opacity:0.1;stroke-opacity:1;stroke-dasharray:none;"
   d="M 0 -0.5 L 7 6.5 L 7 9.5 L 0 2.5 L 0 -0.5 z "
   id="path954" /><path
   style="font-size:12;fill:#00ffff;fill-rule:evenodd;stroke:#000000;stroke-width:0.0469;stroke-linejoin:round;stroke-linecap:round;fill-opacity:0.1;stroke-opacity:1;stroke-dasharray:none;"
   d="M 7 6.5 L 7 9.5 L 21 9.5 L 21 6.5 L 7 6.5 z "
   id="path955" /><path
   style="font-size:12;fill:#00ffff;fill-rule:evenodd;stroke:#000000;stroke-width:0.0469;stroke-linejoin:round;stroke-linecap:round;fill-opacity:0.1;stroke-opacity:1;stroke-dasharray:none;"
   d="M 0 -0.5 L 7 6.5 L 21 6.5 L 14 -0.5 L 0 -0.5 z "
   id="path956"
   sodipodi:nodetypes="cccccc" /></g><g
   id="Majority Cell"
   transform="matrix(0.833625,0,0,0.833625,3.35016,14.99869)"
   style="font-size:12;"><path
   style="font-size:12;fill:#00ffff;fill-rule:evenodd;stroke:#000000;stroke-width:0.0469;stroke-linejoin:round;stroke-linecap:round;fill-opacity:0.2471;stroke-opacity:1;stroke-dasharray:none;"
   d="M 0 2.5 L 7 9.5 L 21 9.5 L 14 2.5 L 0 2.5 z "
   id="cellLidBot"
   sodipodi:nodetypes="cccccc" /><path
   style="font-size:12;fill:#00ffff;fill-rule:evenodd;stroke:#000000;stroke-width:0.0469;fill-opacity:0.2471;stroke-opacity:1;stroke-dasharray:none;"
   d="M 0 -0.5 L 0 2.5 L 14 2.5 L 14 -0.5 L 0 -0.5 z "
   id="cellWallN"
   sodipodi:nodetypes="cccccc" /><path
   style="font-size:12;fill:#00ffff;fill-rule:evenodd;stroke:#000000;stroke-width:0.0469;stroke-linejoin:round;stroke-linecap:round;fill-opacity:0.2471;stroke-opacity:1;stroke-dasharray:none;"
   d="M 14 -0.5 L 21 6.5 L 21 9.5 L 14 2.5 L 14 -0.5 z "
   id="cellWallE" /><g
   id="Dot2"
   transform="translate(8,0)"
   style="fill:#00ff00;fill-opacity:0.5;stroke:#000000;stroke-opacity:1;stroke-width:0.0469;stroke-dasharray:none;stroke-linejoin:round;stroke-linecap:round;"><path
   style="fill:#00ff00;fill-rule:evenodd;stroke:#000000;stroke-opacity:1;stroke-width:0.0469;stroke-linejoin:round;stroke-linecap:round;fill-opacity:0.5;stroke-dasharray:none;"
   d="M 4.5 2.6 C 6.5 2.6 6.5 3.5 6.5 3.5 C 6.5 3.5 6.5 4.4 4.5 4.4 C 2.5 4.4 2.5 3.5 2.5 3.5 C 2.5 3.5 2.5 2.6 4.5 2.6 z "
   id="path619"
   sodipodi:nodetypes="ccccc" /><path
   style="font-size:12;fill:#00ff00;fill-rule:evenodd;stroke:#000000;stroke-width:0.0469;stroke-linecap:round;stroke-linejoin:round;fill-opacity:0.5;stroke-opacity:1;stroke-dasharray:none;"
   d="M 2.5 1.5 C 2.5 1.5 2.5 0.6 4.5 0.6 C 6.5 0.6 6.5 1.5 6.5 1.5 L 6.5 3.5 C 6.5 3.5 6.5 2.6 4.5 2.6 C 2.5 2.6 2.5 3.5 2.5 3.5 z "
   id="path620"
   sodipodi:nodetypes="ccccccc" /><path
   style="font-size:12;fill:#00ff00;fill-rule:evenodd;stroke:#000000;stroke-width:0.0469;stroke-linecap:round;stroke-linejoin:round;fill-opacity:0.5;stroke-opacity:1;stroke-dasharray:none;"
   d="M 2.5 1.5 C 2.5 1.5 2.5 2.4 4.5 2.4 C 6.5 2.4 6.5 1.5 6.5 1.5 L 6.5 3.5 C 6.5 3.5 6.5 4.4 4.5 4.4 C 2.5 4.4 2.5 3.5 2.5 3.5 z "
   id="path621"
   sodipodi:nodetypes="ccccccc" /><path
   style="fill:#00ff00;fill-rule:evenodd;stroke:#000000;stroke-opacity:1;stroke-width:0.0469;stroke-linejoin:round;stroke-linecap:round;fill-opacity:0.5;stroke-dasharray:none;"
   d="M 4.5 0.6 C 6.5 0.6 6.5 1.5 6.5 1.5 C 6.5 1.5 6.5 2.4 4.5 2.4 C 2.5 2.4 2.5 1.5 2.5 1.5 C 2.5 1.5 2.5 0.6 4.5 0.6 z "
   id="path622"
   sodipodi:nodetypes="ccccc" /></g><g
   id="Dot1"
   style="fill:#00ff00;fill-opacity:0.5;stroke:#000000;stroke-opacity:1;stroke-width:0.0469;stroke-dasharray:none;stroke-linejoin:round;stroke-linecap:round;"><path
   style="fill:#00ff00;fill-rule:evenodd;stroke:#000000;stroke-opacity:1;stroke-width:0.0469;stroke-linejoin:round;stroke-linecap:round;fill-opacity:0.5;stroke-dasharray:none;"
   d="M 4.5 2.6 C 6.5 2.6 6.5 3.5 6.5 3.5 C 6.5 3.5 6.5 4.4 4.5 4.4 C 2.5 4.4 2.5 3.5 2.5 3.5 C 2.5 3.5 2.5 2.6 4.5 2.6 z "
   id="dotLidBot"
   sodipodi:nodetypes="ccccc" /><path
   style="font-size:12;fill:#00ff00;fill-rule:evenodd;stroke:#000000;stroke-width:0.0469;stroke-linecap:round;stroke-linejoin:round;fill-opacity:0.5;stroke-opacity:1;stroke-dasharray:none;"
   d="M 2.5 1.5 C 2.5 1.5 2.5 0.6 4.5 0.6 C 6.5 0.6 6.5 1.5 6.5 1.5 L 6.5 3.5 C 6.5 3.5 6.5 2.6 4.5 2.6 C 2.5 2.6 2.5 3.5 2.5 3.5 z "
   id="dotBack"
   sodipodi:nodetypes="ccccccc" /><path
   style="font-size:12;fill:#00ff00;fill-rule:evenodd;stroke:#000000;stroke-width:0.0469;stroke-linecap:round;stroke-linejoin:round;fill-opacity:0.5;stroke-opacity:1;stroke-dasharray:none;"
   d="M 2.5 1.5 C 2.5 1.5 2.5 2.4 4.5 2.4 C 6.5 2.4 6.5 1.5 6.5 1.5 L 6.5 3.5 C 6.5 3.5 6.5 4.4 4.5 4.4 C 2.5 4.4 2.5 3.5 2.5 3.5 z "
   id="dotFront"
   sodipodi:nodetypes="ccccccc" /><path
   style="fill:#00ff00;fill-rule:evenodd;stroke:#000000;stroke-opacity:1;stroke-width:0.0469;stroke-linejoin:round;stroke-linecap:round;fill-opacity:0.5;stroke-dasharray:none;"
   d="M 4.5 0.6 C 6.5 0.6 6.5 1.5 6.5 1.5 C 6.5 1.5 6.5 2.4 4.5 2.4 C 2.5 2.4 2.5 1.5 2.5 1.5 C 2.5 1.5 2.5 0.6 4.5 0.6 z "
   id="dotLidTop"
   sodipodi:nodetypes="ccccc" /></g><g
   id="Dot3"
   transform="translate(12,4)"
   style="fill:#00ff00;fill-opacity:0.5;stroke:#000000;stroke-opacity:1;stroke-width:0.0469;stroke-dasharray:none;stroke-linejoin:round;stroke-linecap:round;"><path
   style="fill:#00ff00;fill-rule:evenodd;stroke:#000000;stroke-opacity:1;stroke-width:0.0469;stroke-linejoin:round;stroke-linecap:round;fill-opacity:0.5;stroke-dasharray:none;"
   d="M 4.5 2.6 C 6.5 2.6 6.5 3.5 6.5 3.5 C 6.5 3.5 6.5 4.4 4.5 4.4 C 2.5 4.4 2.5 3.5 2.5 3.5 C 2.5 3.5 2.5 2.6 4.5 2.6 z "
   id="path624"
   sodipodi:nodetypes="ccccc" /><path
   style="font-size:12;fill:#00ff00;fill-rule:evenodd;stroke:#000000;stroke-width:0.0469;stroke-linecap:round;stroke-linejoin:round;fill-opacity:0.5;stroke-opacity:1;stroke-dasharray:none;"
   d="M 2.5 1.5 C 2.5 1.5 2.5 0.6 4.5 0.6 C 6.5 0.6 6.5 1.5 6.5 1.5 L 6.5 3.5 C 6.5 3.5 6.5 2.6 4.5 2.6 C 2.5 2.6 2.5 3.5 2.5 3.5 z "
   id="path625"
   sodipodi:nodetypes="ccccccc" /><path
   style="font-size:12;fill:#00ff00;fill-rule:evenodd;stroke:#000000;stroke-width:0.0469;stroke-linecap:round;stroke-linejoin:round;fill-opacity:0.5;stroke-opacity:1;stroke-dasharray:none;"
   d="M 2.5 1.5 C 2.5 1.5 2.5 2.4 4.5 2.4 C 6.5 2.4 6.5 1.5 6.5 1.5 L 6.5 3.5 C 6.5 3.5 6.5 4.4 4.5 4.4 C 2.5 4.4 2.5 3.5 2.5 3.5 z "
   id="path626"
   sodipodi:nodetypes="ccccccc" /><path
   style="fill:#00ff00;fill-rule:evenodd;stroke:#000000;stroke-opacity:1;stroke-width:0.0469;stroke-linejoin:round;stroke-linecap:round;fill-opacity:0.5;stroke-dasharray:none;"
   d="M 4.5 0.6 C 6.5 0.6 6.5 1.5 6.5 1.5 C 6.5 1.5 6.5 2.4 4.5 2.4 C 2.5 2.4 2.5 1.5 2.5 1.5 C 2.5 1.5 2.5 0.6 4.5 0.6 z "
   id="path627"
   sodipodi:nodetypes="ccccc" /></g><g
   id="Dot4"
   transform="translate(4,4)"
   style="fill:#00ff00;fill-opacity:0.5;stroke:#000000;stroke-opacity:1;stroke-width:0.0469;stroke-dasharray:none;stroke-linejoin:round;stroke-linecap:round;"><path
   style="fill:#00ff00;fill-rule:evenodd;stroke:#000000;stroke-opacity:1;stroke-width:0.0469;stroke-linejoin:round;stroke-linecap:round;fill-opacity:0.5;stroke-dasharray:none;"
   d="M 4.5 2.6 C 6.5 2.6 6.5 3.5 6.5 3.5 C 6.5 3.5 6.5 4.4 4.5 4.4 C 2.5 4.4 2.5 3.5 2.5 3.5 C 2.5 3.5 2.5 2.6 4.5 2.6 z "
   id="path629"
   sodipodi:nodetypes="ccccc" /><path
   style="font-size:12;fill:#00ff00;fill-rule:evenodd;stroke:#000000;stroke-width:0.0469;stroke-linecap:round;stroke-linejoin:round;fill-opacity:0.5;stroke-opacity:1;stroke-dasharray:none;"
   d="M 2.5 1.5 C 2.5 1.5 2.5 0.6 4.5 0.6 C 6.5 0.6 6.5 1.5 6.5 1.5 L 6.5 3.5 C 6.5 3.5 6.5 2.6 4.5 2.6 C 2.5 2.6 2.5 3.5 2.5 3.5 z "
   id="path630"
   sodipodi:nodetypes="ccccccc" /><path
   style="font-size:12;fill:#00ff00;fill-rule:evenodd;stroke:#000000;stroke-width:0.0469;stroke-linecap:round;stroke-linejoin:round;fill-opacity:0.5;stroke-opacity:1;stroke-dasharray:none;"
   d="M 2.5 1.5 C 2.5 1.5 2.5 2.4 4.5 2.4 C 6.5 2.4 6.5 1.5 6.5 1.5 L 6.5 3.5 C 6.5 3.5 6.5 4.4 4.5 4.4 C 2.5 4.4 2.5 3.5 2.5 3.5 z "
   id="path631"
   sodipodi:nodetypes="ccccccc" /><path
   style="fill:#00ff00;fill-rule:evenodd;stroke:#000000;stroke-opacity:1;stroke-width:0.0469;stroke-linejoin:round;stroke-linecap:round;fill-opacity:0.5;stroke-dasharray:none;"
   d="M 4.5 0.6 C 6.5 0.6 6.5 1.5 6.5 1.5 C 6.5 1.5 6.5 2.4 4.5 2.4 C 2.5 2.4 2.5 1.5 2.5 1.5 C 2.5 1.5 2.5 0.6 4.5 0.6 z "
   id="path632"
   sodipodi:nodetypes="ccccc" /></g><path
   style="font-size:12;fill:#00ffff;fill-rule:evenodd;stroke:#000000;stroke-width:0.0469;stroke-linejoin:round;stroke-linecap:round;fill-opacity:0.2471;stroke-opacity:1;stroke-dasharray:none;"
   d="M 0 -0.5 L 7 6.5 L 7 9.5 L 0 2.5 L 0 -0.5 z "
   id="cellWallW" /><path
   style="font-size:12;fill:#00ffff;fill-rule:evenodd;stroke:#000000;stroke-width:0.0469;stroke-linejoin:round;stroke-linecap:round;fill-opacity:0.2471;stroke-opacity:1;stroke-dasharray:none;"
   d="M 7 6.5 L 7 9.5 L 21 9.5 L 21 6.5 L 7 6.5 z "
   id="cellWallS" /><path
   style="font-size:12;fill:#00ffff;fill-rule:evenodd;stroke:#000000;stroke-width:0.0469;stroke-linejoin:round;stroke-linecap:round;fill-opacity:0.25;stroke-opacity:1;stroke-dasharray:none;"
   d="M 0 -0.5 L 7 6.5 L 21 6.5 L 14 -0.5 L 0 -0.5 z "
   id="cellLidTop"
   sodipodi:nodetypes="cccccc" /></g></svg>
