<?xml version="1.0" encoding="UTF-8" standalone="no"?>
<!DOCTYPE svg PUBLIC "-//W3C//DTD SVG 20010904//EN"
"http://www.w3.org/TR/2001/REC-SVG-20010904/DTD/svg10.dtd">
<!-- Created with Sodipodi ("http://www.sodipodi.com/") -->
<svg
   xmlns="http://www.w3.org/2000/svg"
   xmlns:sodipodi="http://sodipodi.sourceforge.net/DTD/sodipodi-0.dtd"
   xmlns:xlink="http://www.w3.org/1999/xlink"
   id="svg991"
   sodipodi:version="0.34"
   width="350pt"
   height="255pt"
   xml:space="preserve"
   sodipodi:docbase="/home/nix/source/QCADesigner/pixmaps"
   sodipodi:docname="/home/nix/source/QCADesigner/pixmaps/about.svg"><defs
   id="defs993"><linearGradient
   id="linearGradient1797"><stop
   style="stop-color:#e6d9b8;stop-opacity:1;"
   offset="0"
   id="stop1798" /><stop
   style="stop-color:#ccb67a;stop-opacity:1;"
   offset="1"
   id="stop1799" /></linearGradient><linearGradient
   id="linearGradient1580"><stop
   style="stop-color:#ba9366;stop-opacity:1;"
   offset="0"
   id="stop1581" /><stop
   style="stop-color:#6e563d;stop-opacity:1;"
   offset="1"
   id="stop1582" /></linearGradient><radialGradient
   xlink:href="#linearGradient1797"
   id="radialGradient1583"
   cx="5.64972125e-3"
   cy="0"
   r="1.37469625"
   fx="5.64972125e-3"
   fy="0" /></defs><sodipodi:namedview
   id="base" /><g
   id="QCADesigner Splash Screen"><rect
   style="font-size:12;fill:url(#radialGradient1583);fill-rule:evenodd;stroke-width:1;fill-opacity:1;"
   id="Background"
   width="350pt"
   height="255pt"
   x="0"
   y="0" /><g
   id="QCADesigner Logo"
   transform="matrix(0.866761,0,0,0.866761,3.671497,6.986816)"><g
   knockout="Off"
   id="QCADesigner"
   style="font-size:12;"><path
   knockout="Off"
   fill="#102242"
   d="M41.581,64.988l-5.155-6.783c-2.713,1.425-6.24,2.239-10.31,2.239       C10.989,60.444,0,49.184,0,35.075C0,28.224,2.646,21.916,7.597,17.1c4.884-4.748,11.396-7.394,18.314-7.394       c6.918,0,13.363,2.578,18.314,7.394c4.884,4.748,7.597,11.124,7.597,17.975c0,7.258-2.713,13.634-7.801,18.179l8.818,11.735       H41.581z M36.425,43.282c1.221-1.831,2.171-4.341,2.171-7.8c0-8.547-5.427-14.652-12.685-14.652       c-7.19,0-12.685,6.173-12.685,14.312s5.223,14.38,12.752,14.38c1.153,0,2.17-0.271,3.324-0.746l-6.851-8.818h11.463       L36.425,43.282z"
   id="Q" /><path
   knockout="Off"
   fill="#102242"
   d="M95.233,27.139c-3.527-3.934-6.919-5.833-11.192-5.833       c-7.665,0-12.752,5.833-12.752,14.041c0,7.461,5.02,13.499,12.752,13.499c4.273,0,7.665-1.899,11.192-5.833v14.448       c-4.206,2.035-8.208,3.053-12.549,3.053c-14.312,0-24.623-10.785-24.623-25.437c0-14.651,10.31-25.437,24.623-25.437       c4.341,0,8.343,1.018,12.549,3.052V27.139z"
   id="C" /><path
   knockout="Off"
   fill="#102242"
   d="M113.75,10.792h16.551l16.754,48.499h-13.159l-2.442-8.682h-18.789l-2.51,8.682       H96.996L113.75,10.792z M128.673,41.18l-4.952-16.008c-0.204-0.746-0.746-2.917-1.628-6.512       c-0.882,3.595-1.493,5.766-1.696,6.512l-4.884,16.008H128.673z"
   id="A" /><path
   knockout="Off"
   fill="#102242"
   d="M155.193,10.792h10.311c7.394,0,13.363,0.203,18.925,4.409       c5.155,3.935,8.072,10.311,8.072,18.179c0,7.055-2.374,13.431-6.308,17.976c-2.849,3.256-6.444,5.562-10.717,6.783       c-3.595,1.018-7.055,1.153-10.514,1.153h-16.144L155.193,10.792z M160.077,52.372c7.461,0,13.024-0.068,17.5-3.324       c4.409-3.188,7.055-8.818,7.055-15.33c0-5.562-2.035-10.107-5.766-12.956c-3.867-2.985-8.208-3.053-13.77-3.053h-3.256       l-4.544,34.662H160.077z"
   id="D" /><path
   knockout="Off"
   fill="#102242"
   d="M226.075,53.661c-3.662,4.748-7.732,6.918-13.362,6.918       c-9.293,0-15.601-6.104-15.601-15.33c0-10.853,7.394-18.45,17.568-18.45c8.411,0,13.974,5.63,13.974,14.584       c0,0.746-0.068,1.899-0.204,3.527h-23.944c0,5.833,3.188,9.293,7.868,9.293c3.324,0,6.444-1.628,8.546-4.544L226.075,53.661z        M221.327,39.823c-0.136-4.273-2.781-6.851-6.986-6.851c-4.816,0-8.343,2.646-9.225,6.851H221.327z"
   id="e_0" /><path
   knockout="Off"
   fill="#102242"
   d="M243.643,55.085c3.053,0,4.952-1.492,4.952-3.663c0-2.441-1.968-3.459-5.291-5.291       c-4.952-2.781-7.801-4.816-7.801-9.429c0-5.833,4.681-9.971,11.803-9.971c4.273,0,7.868,1.561,11.057,4.816l-4.409,4.544       c-2.035-2.51-4.612-3.798-7.394-3.798c-2.307,0-4.069,1.56-4.069,3.392c0,2.917,2.78,3.459,6.646,5.63       c4.206,2.306,6.444,4.477,6.444,8.954c0,6.172-4.545,10.31-12.074,10.31c-4.815,0-9.089-1.967-12.277-5.766l4.138-4.748       C237.741,53.389,240.658,55.085,243.643,55.085z"
   id="s" /><path
   knockout="Off"
   fill="#102242"
   d="M265.756,27.885h7.122l-4.138,31.406h-7.122L265.756,27.885z M270.571,12.69       c2.374,0,4.206,1.832,4.206,4.206c0,2.442-1.832,4.273-4.206,4.273c-2.441,0-4.273-1.832-4.273-4.273       C266.298,14.522,268.197,12.69,270.571,12.69z"
   id="i" /><path
   knockout="Off"
   fill="#102242"
   d="M292.005,74.078c-8.614,0-14.108-4.477-14.99-11.735l6.512-0.882       c0.542,4.477,3.256,6.444,8.479,6.444c6.851,0,8.818-3.527,9.429-12.617c-2.713,2.849-5.901,4.273-9.768,4.273       c-8.004,0-12.888-5.291-12.888-14.584c0-10.988,6.24-18.179,14.854-18.179c4.138,0,7.732,1.696,10.988,5.155l0.611-4.07h6.986       l-4.138,30.999C306.725,69.126,301.637,74.078,292.005,74.078z M294.04,53.389c5.494,0,9.293-4.544,9.293-12.006       c0-5.63-3.256-9.157-8.275-9.157c-5.291,0-8.886,4.544-8.886,11.87C286.172,49.998,289.224,53.389,294.04,53.389z"
   id="g" /><path
   knockout="Off"
   fill="#102242"
   d="M342.674,41.248c0.136-0.95,0.136-1.832,0.136-2.646c0-4.138-2.035-6.376-5.834-6.376       c-5.969,0-9.225,3.866-10.242,11.667l-1.967,15.397h-7.123l4.138-31.406h6.852l-0.543,3.798       c3.663-3.324,7.462-4.884,11.803-4.884c6.443,0,10.242,3.527,10.242,9.632c0,1.696-0.203,3.798-0.542,6.308l-2.171,16.551       H340.3L342.674,41.248z"
   id="n" /><path
   knockout="Off"
   fill="#102242"
   d="M385.338,53.661c-3.663,4.748-7.732,6.918-13.362,6.918       c-9.293,0-15.602-6.104-15.602-15.33c0-10.853,7.394-18.45,17.568-18.45c8.411,0,13.974,5.63,13.974,14.584       c0,0.746-0.068,1.899-0.204,3.527h-23.944c0,5.833,3.188,9.293,7.868,9.293c3.324,0,6.444-1.628,8.547-4.544L385.338,53.661z        M380.59,39.823c-0.136-4.273-2.781-6.851-6.986-6.851c-4.816,0-8.344,2.646-9.226,6.851H380.59z"
   id="e_1" /><path
   knockout="Off"
   fill="#102242"
   d="M411.248,33.108c-5.154,0-7.936,3.798-8.953,11.463l-1.967,14.719h-7.123       l4.138-31.406h6.852l-0.543,4.07c2.51-3.459,5.427-5.155,8.818-5.155c1.56,0,3.052,0.407,4.477,1.221l-2.307,6.172       C413.623,33.447,412.537,33.108,411.248,33.108z"
   id="r" /></g><g
   id="QCADCell"><polyline
   knockout="Off"
   fill="#102242"
   stroke="#102242"
   points="467.568,14.959 467.39,14.716 466.942,14.286       466.691,14.035 466.454,13.891 465.924,13.53 465.646,13.42 465.336,13.27 465.058,13.16 464.778,13.048 464.486,13.011       464.168,12.934 463.834,12.929 463.545,12.891 462.943,12.957 462.598,13.023 462.297,13.057 461.979,13.165 461.739,13.281       461.422,13.387 461.138,13.534 460.884,13.721 460.644,13.841 460.418,14.066 460.164,14.255 459.94,14.484 459.747,14.754       459.564,14.952 459.371,15.222 458.883,16.339 458.795,16.657 458.745,16.946 458.726,17.273 458.676,17.561 458.659,17.893       458.682,18.19 458.736,18.529 458.762,18.828 458.949,19.441 459.019,19.71 459.184,20.024 459.466,20.576 459.827,21.065       460.271,21.491 460.525,21.747 460.763,21.889 461.295,22.253 461.571,22.361 461.878,22.509 462.156,22.621 462.477,22.698       462.767,22.737 463.09,22.816 463.379,22.854 463.707,22.862 464.919,22.722 465.234,22.616 465.477,22.5 465.789,22.393       466.073,22.244 466.327,22.055 466.611,21.912 466.793,21.709 467.047,21.523 467.273,21.295 467.47,21.026 467.648,20.829       467.845,20.557 467.964,20.28 468.129,19.97 468.369,19.413 468.419,19.126 468.51,18.805 468.529,18.476 468.576,18.185       468.529,17.589 468.479,17.252 468.457,16.955 468.265,16.339 468.198,16.072 468.027,15.753 467.751,15.205 467.568,14.959 "
   id="Top Dot"
   style="font-size:12;fill:#102242;stroke:#102242;" /><polyline
   knockout="Off"
   fill="#102242"
   stroke="#102242"
   points="461.982,54.472 461.756,54.26 461.574,54.014       461.323,53.763 461.1,53.545 460.865,53.407 460.332,53.044 460.025,52.894 459.471,52.671 458.825,52.516 458.538,52.478       458.248,52.439 457.914,52.433 456.705,52.571 456.391,52.676 456.076,52.785 455.836,52.9 455.549,53.047 455.295,53.236       455.011,53.381 454.787,53.611 454.574,53.769 454.352,53.998 454.13,54.225 453.932,54.494 453.782,54.734 453.661,55.013       453.495,55.325 453.256,55.878 453.203,56.171 453.111,56.49 453.062,56.778 453.046,57.108 453.07,57.406 453.051,57.733       453.076,58.034 453.173,58.339 453.225,58.678 453.318,58.987 453.43,59.219 453.57,59.498 453.732,59.814 453.876,60.09       454.238,60.579 455.129,61.432 455.395,61.612 455.706,61.764 455.938,61.903 456.247,62.057 456.567,62.134 456.844,62.243       457.136,62.282 457.456,62.362 457.787,62.369 458.083,62.402 458.682,62.335 459.026,62.269 459.327,62.234 459.601,62.159       459.891,62.011 460.199,61.907 460.486,61.76 460.699,61.604 460.98,61.455 461.207,61.228 461.461,61.04 461.685,60.809       461.836,60.57 462.06,60.341 462.253,60.071 462.375,59.793 462.741,58.957 462.833,58.637 462.88,58.35 462.898,58.02       462.945,57.73 462.968,57.399 462.945,57.104 462.888,56.764 462.865,56.468 462.579,55.545 462.3,54.993 462.118,54.75       461.982,54.472 "
   id="Bottom Dot"
   style="font-size:12;fill:#102242;stroke:#102242;" /><path
   style="font-size:12;fill:none;stroke:#102242;stroke-width:3;stroke-linejoin:miter;stroke-linecap:butt;"
   d="M 455.767 73.195 L 425.346 32.066 L 465.86 2.097998 L 496.281 43.228 L 455.767 73.195 z "
   id="Cell Outline"
   sodipodi:nodetypes="ccccc" /><polyline
   knockout="Off"
   fill="#102242"
   stroke="#102242"
   points="443.133,33.405 443.056,33.299 442.861,33.112       442.751,33.003 442.647,32.94 442.417,32.783 442.295,32.734 442.161,32.669 442.04,32.622 441.919,32.573 441.792,32.557       441.653,32.523 441.508,32.521 441.382,32.504 441.119,32.533 440.969,32.562 440.838,32.577 440.7,32.624 440.596,32.674       440.457,32.721 440.334,32.785 440.224,32.865 440.119,32.918 440.02,33.016 439.909,33.099 439.812,33.198 439.729,33.315       439.648,33.401 439.564,33.52 439.352,34.005 439.313,34.144 439.293,34.27 439.284,34.412 439.262,34.537 439.255,34.682       439.265,34.812 439.288,34.959 439.299,35.089 439.381,35.355 439.411,35.473 439.482,35.609 439.605,35.85 439.763,36.063       439.956,36.249 440.066,36.359 440.17,36.422 440.402,36.58 440.522,36.627 440.656,36.691 440.777,36.74 440.917,36.773       441.042,36.791 441.184,36.825 441.311,36.841 441.452,36.845 441.979,36.784 442.117,36.738 442.223,36.688 442.359,36.641       442.481,36.576 442.592,36.494 442.717,36.432 442.796,36.343 442.906,36.262 443.005,36.163 443.09,36.046 443.168,35.96       443.253,35.841 443.306,35.721 443.377,35.586 443.482,35.344 443.503,35.218 443.543,35.079 443.551,34.936 443.572,34.809       443.551,34.55 443.53,34.403 443.521,34.274 443.437,34.005 443.407,33.89 443.333,33.751 443.213,33.512 443.133,33.405 "
   id="Left Dot"
   style="font-size:12;fill:#102242;stroke:#102242;" /><polyline
   knockout="Off"
   fill="#102242"
   stroke="#102242"
   points="482.23,40.096 482.152,39.99 481.958,39.803       481.848,39.694 481.744,39.631 481.514,39.474 481.393,39.425 481.259,39.36 481.137,39.313 481.016,39.264 480.889,39.248       480.751,39.214 480.604,39.211 480.479,39.195 480.217,39.224 480.066,39.253 479.936,39.268 479.797,39.315 479.692,39.365       479.555,39.412 479.432,39.476 479.321,39.557 479.216,39.609 479.117,39.707 479.006,39.79 478.91,39.889 478.825,40.006       478.745,40.093 478.661,40.21 478.449,40.696 478.41,40.835 478.39,40.96 478.381,41.103 478.359,41.229 478.353,41.373       478.361,41.502 478.386,41.65 478.396,41.78 478.478,42.047 478.508,42.164 478.58,42.301 478.703,42.541 478.86,42.754       479.053,42.939 479.164,43.051 479.268,43.113 479.499,43.271 479.619,43.318 479.753,43.382 479.874,43.431 480.014,43.465       480.14,43.482 480.28,43.516 480.407,43.532 480.549,43.536 481.076,43.475 481.215,43.429 481.319,43.378 481.456,43.332       481.578,43.267 481.689,43.185 481.813,43.123 481.894,43.034 482.004,42.953 482.102,42.854 482.188,42.737 482.265,42.651       482.35,42.532 482.402,42.412 482.475,42.277 482.579,42.035 482.6,41.909 482.64,41.77 482.648,41.626 482.669,41.5       482.648,41.241 482.627,41.094 482.618,40.965 482.533,40.696 482.505,40.581 482.43,40.442 482.311,40.203 482.23,40.096 "
   id="Right Dot"
   style="font-size:12;fill:#102242;stroke:#102242;" /></g></g><g
   id="Labelled Majority"><g
   id="Majority"
   transform="matrix(5.4,0,0,5.4,117.5,98.12498)"><g
   id="Input A"
   transform="matrix(0.833625,0,0,0.833625,-3.52484,8.123688)"
   style="font-size:12;"><path
   style="font-size:12;fill:#003fff;fill-rule:evenodd;stroke:#000000;stroke-width:0.0469;stroke-linejoin:round;stroke-linecap:round;fill-opacity:0.2471;stroke-opacity:1;stroke-dasharray:none;"
   d="M 0 2.5 L 7 9.5 L 21 9.5 L 14 2.5 L 0 2.5 z "
   id="path917"
   sodipodi:nodetypes="cccccc" /><path
   style="font-size:12;fill:#003fff;fill-rule:evenodd;stroke:#000000;stroke-width:0.0469;fill-opacity:0.2471;stroke-opacity:1;stroke-dasharray:none;"
   d="M 0 -0.5 L 0 2.5 L 14 2.5 L 14 -0.5 L 0 -0.5 z "
   id="path921"
   sodipodi:nodetypes="cccccc" /><path
   style="font-size:12;fill:#003fff;fill-rule:evenodd;stroke:#000000;stroke-width:0.0469;stroke-linejoin:round;stroke-linecap:round;fill-opacity:0.2471;stroke-opacity:1;stroke-dasharray:none;"
   d="M 14 -0.5 L 21 6.5 L 21 9.5 L 14 2.5 L 14 -0.5 z "
   id="path926" /><g
   id="g927"
   transform="translate(8,0)"
   style="fill:#00ff00;fill-opacity:0.5;stroke:#000000;stroke-opacity:1;stroke-width:0.0469;stroke-dasharray:none;stroke-linejoin:round;stroke-linecap:round;"><path
   style="fill:#00ff00;fill-rule:evenodd;stroke:#000000;stroke-opacity:1;stroke-width:0.0469;stroke-linejoin:round;stroke-linecap:round;fill-opacity:0.5;stroke-dasharray:none;"
   d="M 4.5 2.6 C 6.5 2.6 6.5 3.5 6.5 3.5 C 6.5 3.5 6.5 4.4 4.5 4.4 C 2.5 4.4 2.5 3.5 2.5 3.5 C 2.5 3.5 2.5 2.6 4.5 2.6 z "
   id="path931"
   sodipodi:nodetypes="ccccc" /><path
   style="font-size:12;fill:#00ff00;fill-rule:evenodd;stroke:#000000;stroke-width:0.0469;stroke-linecap:round;stroke-linejoin:round;fill-opacity:0.5;stroke-opacity:1;stroke-dasharray:none;"
   d="M 2.5 1.5 C 2.5 1.5 2.5 0.6 4.5 0.6 C 6.5 0.6 6.5 1.5 6.5 1.5 L 6.5 3.5 C 6.5 3.5 6.5 2.6 4.5 2.6 C 2.5 2.6 2.5 3.5 2.5 3.5 z "
   id="path936"
   sodipodi:nodetypes="ccccccc" /><path
   style="font-size:12;fill:#00ff00;fill-rule:evenodd;stroke:#000000;stroke-width:0.0469;stroke-linecap:round;stroke-linejoin:round;fill-opacity:0.5;stroke-opacity:1;stroke-dasharray:none;"
   d="M 2.5 1.5 C 2.5 1.5 2.5 2.4 4.5 2.4 C 6.5 2.4 6.5 1.5 6.5 1.5 L 6.5 3.5 C 6.5 3.5 6.5 4.4 4.5 4.4 C 2.5 4.4 2.5 3.5 2.5 3.5 z "
   id="path944"
   sodipodi:nodetypes="ccccccc" /><path
   style="fill:#00ff00;fill-rule:evenodd;stroke:#000000;stroke-opacity:1;stroke-width:0.0469;stroke-linejoin:round;stroke-linecap:round;fill-opacity:0.5;stroke-dasharray:none;"
   d="M 4.5 0.6 C 6.5 0.6 6.5 1.5 6.5 1.5 C 6.5 1.5 6.5 2.4 4.5 2.4 C 2.5 2.4 2.5 1.5 2.5 1.5 C 2.5 1.5 2.5 0.6 4.5 0.6 z "
   id="path945"
   sodipodi:nodetypes="ccccc" /></g><g
   id="g946"
   style="fill:#00ff00;fill-opacity:0.5;stroke:#000000;stroke-opacity:1;stroke-width:0.0469;stroke-dasharray:none;stroke-linejoin:round;stroke-linecap:round;"><path
   style="fill:#00ff00;fill-rule:evenodd;stroke:#000000;stroke-opacity:1;stroke-width:0.0469;stroke-linejoin:round;stroke-linecap:round;fill-opacity:0.5;stroke-dasharray:none;"
   d="M 4.5 2.6 C 6.5 2.6 6.5 3.5 6.5 3.5 C 6.5 3.5 6.5 4.4 4.5 4.4 C 2.5 4.4 2.5 3.5 2.5 3.5 C 2.5 3.5 2.5 2.6 4.5 2.6 z "
   id="path947"
   sodipodi:nodetypes="ccccc" /><path
   style="font-size:12;fill:#00ff00;fill-rule:evenodd;stroke:#000000;stroke-width:0.0469;stroke-linecap:round;stroke-linejoin:round;fill-opacity:0.5;stroke-opacity:1;stroke-dasharray:none;"
   d="M 2.5 1.5 C 2.5 1.5 2.5 0.6 4.5 0.6 C 6.5 0.6 6.5 1.5 6.5 1.5 L 6.5 3.5 C 6.5 3.5 6.5 2.6 4.5 2.6 C 2.5 2.6 2.5 3.5 2.5 3.5 z "
   id="path948"
   sodipodi:nodetypes="ccccccc" /><path
   style="font-size:12;fill:#00ff00;fill-rule:evenodd;stroke:#000000;stroke-width:0.0469;stroke-linecap:round;stroke-linejoin:round;fill-opacity:0.5;stroke-opacity:1;stroke-dasharray:none;"
   d="M 2.5 1.5 C 2.5 1.5 2.5 2.4 4.5 2.4 C 6.5 2.4 6.5 1.5 6.5 1.5 L 6.5 3.5 C 6.5 3.5 6.5 4.4 4.5 4.4 C 2.5 4.4 2.5 3.5 2.5 3.5 z "
   id="path949"
   sodipodi:nodetypes="ccccccc" /><path
   style="fill:#00ff00;fill-rule:evenodd;stroke:#000000;stroke-opacity:1;stroke-width:0.0469;stroke-linejoin:round;stroke-linecap:round;fill-opacity:0.5;stroke-dasharray:none;"
   d="M 4.5 0.6 C 6.5 0.6 6.5 1.5 6.5 1.5 C 6.5 1.5 6.5 2.4 4.5 2.4 C 2.5 2.4 2.5 1.5 2.5 1.5 C 2.5 1.5 2.5 0.6 4.5 0.6 z "
   id="path950"
   sodipodi:nodetypes="ccccc" /></g><g
   id="g951"
   transform="translate(12,4)"
   style="fill:#00ff00;fill-opacity:0.5;stroke:#000000;stroke-opacity:1;stroke-width:0.0469;stroke-dasharray:none;stroke-linejoin:round;stroke-linecap:round;"><path
   style="fill:#00ff00;fill-rule:evenodd;stroke:#000000;stroke-opacity:1;stroke-width:0.0469;stroke-linejoin:round;stroke-linecap:round;fill-opacity:0.5;stroke-dasharray:none;"
   d="M 4.5 2.6 C 6.5 2.6 6.5 3.5 6.5 3.5 C 6.5 3.5 6.5 4.4 4.5 4.4 C 2.5 4.4 2.5 3.5 2.5 3.5 C 2.5 3.5 2.5 2.6 4.5 2.6 z "
   id="path952"
   sodipodi:nodetypes="ccccc" /><path
   style="font-size:12;fill:#00ff00;fill-rule:evenodd;stroke:#000000;stroke-width:0.0469;stroke-linecap:round;stroke-linejoin:round;fill-opacity:0.5;stroke-opacity:1;stroke-dasharray:none;"
   d="M 2.5 1.5 C 2.5 1.5 2.5 0.6 4.5 0.6 C 6.5 0.6 6.5 1.5 6.5 1.5 L 6.5 3.5 C 6.5 3.5 6.5 2.6 4.5 2.6 C 2.5 2.6 2.5 3.5 2.5 3.5 z "
   id="path953"
   sodipodi:nodetypes="ccccccc" /><path
   style="font-size:12;fill:#00ff00;fill-rule:evenodd;stroke:#000000;stroke-width:0.0469;stroke-linecap:round;stroke-linejoin:round;fill-opacity:0.5;stroke-opacity:1;stroke-dasharray:none;"
   d="M 2.5 1.5 C 2.5 1.5 2.5 2.4 4.5 2.4 C 6.5 2.4 6.5 1.5 6.5 1.5 L 6.5 3.5 C 6.5 3.5 6.5 4.4 4.5 4.4 C 2.5 4.4 2.5 3.5 2.5 3.5 z "
   id="path954"
   sodipodi:nodetypes="ccccccc" /><path
   style="fill:#00ff00;fill-rule:evenodd;stroke:#000000;stroke-opacity:1;stroke-width:0.0469;stroke-linejoin:round;stroke-linecap:round;fill-opacity:0.5;stroke-dasharray:none;"
   d="M 4.5 0.6 C 6.5 0.6 6.5 1.5 6.5 1.5 C 6.5 1.5 6.5 2.4 4.5 2.4 C 2.5 2.4 2.5 1.5 2.5 1.5 C 2.5 1.5 2.5 0.6 4.5 0.6 z "
   id="path955"
   sodipodi:nodetypes="ccccc" /></g><g
   id="g956"
   transform="translate(4,4)"
   style="fill:#00ff00;fill-opacity:0.5;stroke:#000000;stroke-opacity:1;stroke-width:0.0469;stroke-dasharray:none;stroke-linejoin:round;stroke-linecap:round;"><path
   style="fill:#00ff00;fill-rule:evenodd;stroke:#000000;stroke-opacity:1;stroke-width:0.0469;stroke-linejoin:round;stroke-linecap:round;fill-opacity:0.5;stroke-dasharray:none;"
   d="M 4.5 2.6 C 6.5 2.6 6.5 3.5 6.5 3.5 C 6.5 3.5 6.5 4.4 4.5 4.4 C 2.5 4.4 2.5 3.5 2.5 3.5 C 2.5 3.5 2.5 2.6 4.5 2.6 z "
   id="path957"
   sodipodi:nodetypes="ccccc" /><path
   style="font-size:12;fill:#00ff00;fill-rule:evenodd;stroke:#000000;stroke-width:0.0469;stroke-linecap:round;stroke-linejoin:round;fill-opacity:0.5;stroke-opacity:1;stroke-dasharray:none;"
   d="M 2.5 1.5 C 2.5 1.5 2.5 0.6 4.5 0.6 C 6.5 0.6 6.5 1.5 6.5 1.5 L 6.5 3.5 C 6.5 3.5 6.5 2.6 4.5 2.6 C 2.5 2.6 2.5 3.5 2.5 3.5 z "
   id="path958"
   sodipodi:nodetypes="ccccccc" /><path
   style="font-size:12;fill:#00ff00;fill-rule:evenodd;stroke:#000000;stroke-width:0.0469;stroke-linecap:round;stroke-linejoin:round;fill-opacity:0.5;stroke-opacity:1;stroke-dasharray:none;"
   d="M 2.5 1.5 C 2.5 1.5 2.5 2.4 4.5 2.4 C 6.5 2.4 6.5 1.5 6.5 1.5 L 6.5 3.5 C 6.5 3.5 6.5 4.4 4.5 4.4 C 2.5 4.4 2.5 3.5 2.5 3.5 z "
   id="path959"
   sodipodi:nodetypes="ccccccc" /><path
   style="fill:#00ff00;fill-rule:evenodd;stroke:#000000;stroke-opacity:1;stroke-width:0.0469;stroke-linejoin:round;stroke-linecap:round;fill-opacity:0.5;stroke-dasharray:none;"
   d="M 4.5 0.6 C 6.5 0.6 6.5 1.5 6.5 1.5 C 6.5 1.5 6.5 2.4 4.5 2.4 C 2.5 2.4 2.5 1.5 2.5 1.5 C 2.5 1.5 2.5 0.6 4.5 0.6 z "
   id="path960"
   sodipodi:nodetypes="ccccc" /></g><path
   style="font-size:12;fill:#003fff;fill-rule:evenodd;stroke:#000000;stroke-width:0.0469;stroke-linejoin:round;stroke-linecap:round;fill-opacity:0.2471;stroke-opacity:1;stroke-dasharray:none;"
   d="M 0 -0.5 L 7 6.5 L 7 9.5 L 0 2.5 L 0 -0.5 z "
   id="path961" /><path
   style="font-size:12;fill:#003fff;fill-rule:evenodd;stroke:#000000;stroke-width:0.0469;stroke-linejoin:round;stroke-linecap:round;fill-opacity:0.2471;stroke-opacity:1;stroke-dasharray:none;"
   d="M 7 6.5 L 7 9.5 L 21 9.5 L 21 6.5 L 7 6.5 z "
   id="path962" /><path
   style="font-size:12;fill:#003fff;fill-rule:evenodd;stroke:#000000;stroke-width:0.0469;stroke-linejoin:round;stroke-linecap:round;fill-opacity:0.25;stroke-opacity:1;stroke-dasharray:none;"
   d="M 0 -0.5 L 7 6.5 L 21 6.5 L 14 -0.5 L 0 -0.5 z "
   id="path963"
   sodipodi:nodetypes="cccccc" /></g><g
   id="Output"
   transform="matrix(0.833625,0,0,0.833625,29.91881,14.99869)"
   style="font-size:12;"><path
   style="font-size:12;fill:#ffff3f;fill-rule:evenodd;stroke:#000000;stroke-width:0.0469;stroke-linejoin:round;stroke-linecap:round;fill-opacity:0.25;stroke-opacity:1;stroke-dasharray:none;"
   d="M 0 2.5 L 7 9.5 L 21 9.5 L 14 2.5 L 0 2.5 z "
   id="path918"
   sodipodi:nodetypes="cccccc" /><path
   style="font-size:12;fill:#ffff3f;fill-rule:evenodd;stroke:#000000;stroke-width:0.0469;fill-opacity:0.25;stroke-opacity:1;stroke-dasharray:none;"
   d="M 0 -0.5 L 0 2.5 L 14 2.5 L 14 -0.5 L 0 -0.5 z "
   id="path919"
   sodipodi:nodetypes="cccccc" /><path
   style="font-size:12;fill:#ffff3f;fill-rule:evenodd;stroke:#000000;stroke-width:0.0469;stroke-linejoin:round;stroke-linecap:round;fill-opacity:0.25;stroke-opacity:1;stroke-dasharray:none;"
   d="M 14 -0.5 L 21 6.5 L 21 9.5 L 14 2.5 L 14 -0.5 z "
   id="path920" /><g
   id="g921"
   transform="translate(8,0)"
   style="fill:#00ff00;fill-opacity:0.5;stroke:#000000;stroke-opacity:1;stroke-width:0.0469;stroke-dasharray:none;stroke-linejoin:round;stroke-linecap:round;"><path
   style="fill:#00ff00;fill-rule:evenodd;stroke:#000000;stroke-opacity:1;stroke-width:0.0469;stroke-linejoin:round;stroke-linecap:round;fill-opacity:0.5;stroke-dasharray:none;"
   d="M 4.5 2.6 C 6.5 2.6 6.5 3.5 6.5 3.5 C 6.5 3.5 6.5 4.4 4.5 4.4 C 2.5 4.4 2.5 3.5 2.5 3.5 C 2.5 3.5 2.5 2.6 4.5 2.6 z "
   id="path922"
   sodipodi:nodetypes="ccccc" /><path
   style="font-size:12;fill:#00ff00;fill-rule:evenodd;stroke:#000000;stroke-width:0.0469;stroke-linecap:round;stroke-linejoin:round;fill-opacity:0.5;stroke-opacity:1;stroke-dasharray:none;"
   d="M 2.5 1.5 C 2.5 1.5 2.5 0.6 4.5 0.6 C 6.5 0.6 6.5 1.5 6.5 1.5 L 6.5 3.5 C 6.5 3.5 6.5 2.6 4.5 2.6 C 2.5 2.6 2.5 3.5 2.5 3.5 z "
   id="path923"
   sodipodi:nodetypes="ccccccc" /><path
   style="font-size:12;fill:#00ff00;fill-rule:evenodd;stroke:#000000;stroke-width:0.0469;stroke-linecap:round;stroke-linejoin:round;fill-opacity:0.5;stroke-opacity:1;stroke-dasharray:none;"
   d="M 2.5 1.5 C 2.5 1.5 2.5 2.4 4.5 2.4 C 6.5 2.4 6.5 1.5 6.5 1.5 L 6.5 3.5 C 6.5 3.5 6.5 4.4 4.5 4.4 C 2.5 4.4 2.5 3.5 2.5 3.5 z "
   id="path924"
   sodipodi:nodetypes="ccccccc" /><path
   style="fill:#00ff00;fill-rule:evenodd;stroke:#000000;stroke-opacity:1;stroke-width:0.0469;stroke-linejoin:round;stroke-linecap:round;fill-opacity:0.5;stroke-dasharray:none;"
   d="M 4.5 0.6 C 6.5 0.6 6.5 1.5 6.5 1.5 C 6.5 1.5 6.5 2.4 4.5 2.4 C 2.5 2.4 2.5 1.5 2.5 1.5 C 2.5 1.5 2.5 0.6 4.5 0.6 z "
   id="path925"
   sodipodi:nodetypes="ccccc" /></g><g
   id="g926"
   style="fill:#00ff00;fill-opacity:0.5;stroke:#000000;stroke-opacity:1;stroke-width:0.0469;stroke-dasharray:none;stroke-linejoin:round;stroke-linecap:round;"><path
   style="fill:#00ff00;fill-rule:evenodd;stroke:#000000;stroke-opacity:1;stroke-width:0.0469;stroke-linejoin:round;stroke-linecap:round;fill-opacity:0.5;stroke-dasharray:none;"
   d="M 4.5 2.6 C 6.5 2.6 6.5 3.5 6.5 3.5 C 6.5 3.5 6.5 4.4 4.5 4.4 C 2.5 4.4 2.5 3.5 2.5 3.5 C 2.5 3.5 2.5 2.6 4.5 2.6 z "
   id="path927"
   sodipodi:nodetypes="ccccc" /><path
   style="font-size:12;fill:#00ff00;fill-rule:evenodd;stroke:#000000;stroke-width:0.0469;stroke-linecap:round;stroke-linejoin:round;fill-opacity:0.5;stroke-opacity:1;stroke-dasharray:none;"
   d="M 2.5 1.5 C 2.5 1.5 2.5 0.6 4.5 0.6 C 6.5 0.6 6.5 1.5 6.5 1.5 L 6.5 3.5 C 6.5 3.5 6.5 2.6 4.5 2.6 C 2.5 2.6 2.5 3.5 2.5 3.5 z "
   id="path928"
   sodipodi:nodetypes="ccccccc" /><path
   style="font-size:12;fill:#00ff00;fill-rule:evenodd;stroke:#000000;stroke-width:0.0469;stroke-linecap:round;stroke-linejoin:round;fill-opacity:0.5;stroke-opacity:1;stroke-dasharray:none;"
   d="M 2.5 1.5 C 2.5 1.5 2.5 2.4 4.5 2.4 C 6.5 2.4 6.5 1.5 6.5 1.5 L 6.5 3.5 C 6.5 3.5 6.5 4.4 4.5 4.4 C 2.5 4.4 2.5 3.5 2.5 3.5 z "
   id="path929"
   sodipodi:nodetypes="ccccccc" /><path
   style="fill:#00ff00;fill-rule:evenodd;stroke:#000000;stroke-opacity:1;stroke-width:0.0469;stroke-linejoin:round;stroke-linecap:round;fill-opacity:0.5;stroke-dasharray:none;"
   d="M 4.5 0.6 C 6.5 0.6 6.5 1.5 6.5 1.5 C 6.5 1.5 6.5 2.4 4.5 2.4 C 2.5 2.4 2.5 1.5 2.5 1.5 C 2.5 1.5 2.5 0.6 4.5 0.6 z "
   id="path930"
   sodipodi:nodetypes="ccccc" /></g><g
   id="g931"
   transform="translate(12,4)"
   style="fill:#00ff00;fill-opacity:0.5;stroke:#000000;stroke-opacity:1;stroke-width:0.0469;stroke-dasharray:none;stroke-linejoin:round;stroke-linecap:round;"><path
   style="fill:#00ff00;fill-rule:evenodd;stroke:#000000;stroke-opacity:1;stroke-width:0.0469;stroke-linejoin:round;stroke-linecap:round;fill-opacity:0.5;stroke-dasharray:none;"
   d="M 4.5 2.6 C 6.5 2.6 6.5 3.5 6.5 3.5 C 6.5 3.5 6.5 4.4 4.5 4.4 C 2.5 4.4 2.5 3.5 2.5 3.5 C 2.5 3.5 2.5 2.6 4.5 2.6 z "
   id="path932"
   sodipodi:nodetypes="ccccc" /><path
   style="font-size:12;fill:#00ff00;fill-rule:evenodd;stroke:#000000;stroke-width:0.0469;stroke-linecap:round;stroke-linejoin:round;fill-opacity:0.5;stroke-opacity:1;stroke-dasharray:none;"
   d="M 2.5 1.5 C 2.5 1.5 2.5 0.6 4.5 0.6 C 6.5 0.6 6.5 1.5 6.5 1.5 L 6.5 3.5 C 6.5 3.5 6.5 2.6 4.5 2.6 C 2.5 2.6 2.5 3.5 2.5 3.5 z "
   id="path933"
   sodipodi:nodetypes="ccccccc" /><path
   style="font-size:12;fill:#00ff00;fill-rule:evenodd;stroke:#000000;stroke-width:0.0469;stroke-linecap:round;stroke-linejoin:round;fill-opacity:0.5;stroke-opacity:1;stroke-dasharray:none;"
   d="M 2.5 1.5 C 2.5 1.5 2.5 2.4 4.5 2.4 C 6.5 2.4 6.5 1.5 6.5 1.5 L 6.5 3.5 C 6.5 3.5 6.5 4.4 4.5 4.4 C 2.5 4.4 2.5 3.5 2.5 3.5 z "
   id="path934"
   sodipodi:nodetypes="ccccccc" /><path
   style="fill:#00ff00;fill-rule:evenodd;stroke:#000000;stroke-opacity:1;stroke-width:0.0469;stroke-linejoin:round;stroke-linecap:round;fill-opacity:0.5;stroke-dasharray:none;"
   d="M 4.5 0.6 C 6.5 0.6 6.5 1.5 6.5 1.5 C 6.5 1.5 6.5 2.4 4.5 2.4 C 2.5 2.4 2.5 1.5 2.5 1.5 C 2.5 1.5 2.5 0.6 4.5 0.6 z "
   id="path935"
   sodipodi:nodetypes="ccccc" /></g><g
   id="g936"
   transform="translate(4,4)"
   style="fill:#00ff00;fill-opacity:0.5;stroke:#000000;stroke-opacity:1;stroke-width:0.0469;stroke-dasharray:none;stroke-linejoin:round;stroke-linecap:round;"><path
   style="fill:#00ff00;fill-rule:evenodd;stroke:#000000;stroke-opacity:1;stroke-width:0.0469;stroke-linejoin:round;stroke-linecap:round;fill-opacity:0.5;stroke-dasharray:none;"
   d="M 4.5 2.6 C 6.5 2.6 6.5 3.5 6.5 3.5 C 6.5 3.5 6.5 4.4 4.5 4.4 C 2.5 4.4 2.5 3.5 2.5 3.5 C 2.5 3.5 2.5 2.6 4.5 2.6 z "
   id="path937"
   sodipodi:nodetypes="ccccc" /><path
   style="font-size:12;fill:#00ff00;fill-rule:evenodd;stroke:#000000;stroke-width:0.0469;stroke-linecap:round;stroke-linejoin:round;fill-opacity:0.5;stroke-opacity:1;stroke-dasharray:none;"
   d="M 2.5 1.5 C 2.5 1.5 2.5 0.6 4.5 0.6 C 6.5 0.6 6.5 1.5 6.5 1.5 L 6.5 3.5 C 6.5 3.5 6.5 2.6 4.5 2.6 C 2.5 2.6 2.5 3.5 2.5 3.5 z "
   id="path938"
   sodipodi:nodetypes="ccccccc" /><path
   style="font-size:12;fill:#00ff00;fill-rule:evenodd;stroke:#000000;stroke-width:0.0469;stroke-linecap:round;stroke-linejoin:round;fill-opacity:0.5;stroke-opacity:1;stroke-dasharray:none;"
   d="M 2.5 1.5 C 2.5 1.5 2.5 2.4 4.5 2.4 C 6.5 2.4 6.5 1.5 6.5 1.5 L 6.5 3.5 C 6.5 3.5 6.5 4.4 4.5 4.4 C 2.5 4.4 2.5 3.5 2.5 3.5 z "
   id="path939"
   sodipodi:nodetypes="ccccccc" /><path
   style="fill:#00ff00;fill-rule:evenodd;stroke:#000000;stroke-opacity:1;stroke-width:0.0469;stroke-linejoin:round;stroke-linecap:round;fill-opacity:0.5;stroke-dasharray:none;"
   d="M 4.5 0.6 C 6.5 0.6 6.5 1.5 6.5 1.5 C 6.5 1.5 6.5 2.4 4.5 2.4 C 2.5 2.4 2.5 1.5 2.5 1.5 C 2.5 1.5 2.5 0.6 4.5 0.6 z "
   id="path940"
   sodipodi:nodetypes="ccccc" /></g><path
   style="font-size:12;fill:#ffff3f;fill-rule:evenodd;stroke:#000000;stroke-width:0.0469;stroke-linejoin:round;stroke-linecap:round;fill-opacity:0.25;stroke-opacity:1;stroke-dasharray:none;"
   d="M 0 -0.5 L 7 6.5 L 7 9.5 L 0 2.5 L 0 -0.5 z "
   id="path941" /><path
   style="font-size:12;fill:#ffff3f;fill-rule:evenodd;stroke:#000000;stroke-width:0.0469;stroke-linejoin:round;stroke-linecap:round;fill-opacity:0.25;stroke-opacity:1;stroke-dasharray:none;"
   d="M 7 6.5 L 7 9.5 L 21 9.5 L 21 6.5 L 7 6.5 z "
   id="path942" /><path
   style="font-size:12;fill:#ffff3f;fill-rule:evenodd;stroke:#000000;stroke-width:0.0469;stroke-linejoin:round;stroke-linecap:round;fill-opacity:0.25;stroke-opacity:1;stroke-dasharray:none;"
   d="M 0 -0.5 L 7 6.5 L 21 6.5 L 14 -0.5 L 0 -0.5 z "
   id="path943"
   sodipodi:nodetypes="cccccc" /></g><g
   id="Majority Output"
   transform="matrix(0.833625,0,0,0.833625,16.63756,14.99869)"
   style="font-size:12;"><path
   style="font-size:12;fill:#00ffff;fill-rule:evenodd;stroke:#000000;stroke-width:0.0469;stroke-linejoin:round;stroke-linecap:round;fill-opacity:0.2471;stroke-opacity:1;stroke-dasharray:none;"
   d="M 0 2.5 L 7 9.5 L 21 9.5 L 14 2.5 L 0 2.5 z "
   id="path663"
   sodipodi:nodetypes="cccccc" /><path
   style="font-size:12;fill:#00ffff;fill-rule:evenodd;stroke:#000000;stroke-width:0.0469;fill-opacity:0.2471;stroke-opacity:1;stroke-dasharray:none;"
   d="M 0 -0.5 L 0 2.5 L 14 2.5 L 14 -0.5 L 0 -0.5 z "
   id="path664"
   sodipodi:nodetypes="cccccc" /><path
   style="font-size:12;fill:#00ffff;fill-rule:evenodd;stroke:#000000;stroke-width:0.0469;stroke-linejoin:round;stroke-linecap:round;fill-opacity:0.2471;stroke-opacity:1;stroke-dasharray:none;"
   d="M 14 -0.5 L 21 6.5 L 21 9.5 L 14 2.5 L 14 -0.5 z "
   id="path665" /><g
   id="g666"
   transform="translate(8,0)"
   style="fill:#00ff00;fill-opacity:0.5;stroke:#000000;stroke-opacity:1;stroke-width:0.0469;stroke-dasharray:none;stroke-linejoin:round;stroke-linecap:round;"><path
   style="fill:#00ff00;fill-rule:evenodd;stroke:#000000;stroke-opacity:1;stroke-width:0.0469;stroke-linejoin:round;stroke-linecap:round;fill-opacity:0.5;stroke-dasharray:none;"
   d="M 4.5 2.6 C 6.5 2.6 6.5 3.5 6.5 3.5 C 6.5 3.5 6.5 4.4 4.5 4.4 C 2.5 4.4 2.5 3.5 2.5 3.5 C 2.5 3.5 2.5 2.6 4.5 2.6 z "
   id="path667"
   sodipodi:nodetypes="ccccc" /><path
   style="font-size:12;fill:#00ff00;fill-rule:evenodd;stroke:#000000;stroke-width:0.0469;stroke-linecap:round;stroke-linejoin:round;fill-opacity:0.5;stroke-opacity:1;stroke-dasharray:none;"
   d="M 2.5 1.5 C 2.5 1.5 2.5 0.6 4.5 0.6 C 6.5 0.6 6.5 1.5 6.5 1.5 L 6.5 3.5 C 6.5 3.5 6.5 2.6 4.5 2.6 C 2.5 2.6 2.5 3.5 2.5 3.5 z "
   id="path668"
   sodipodi:nodetypes="ccccccc" /><path
   style="font-size:12;fill:#00ff00;fill-rule:evenodd;stroke:#000000;stroke-width:0.0469;stroke-linecap:round;stroke-linejoin:round;fill-opacity:0.5;stroke-opacity:1;stroke-dasharray:none;"
   d="M 2.5 1.5 C 2.5 1.5 2.5 2.4 4.5 2.4 C 6.5 2.4 6.5 1.5 6.5 1.5 L 6.5 3.5 C 6.5 3.5 6.5 4.4 4.5 4.4 C 2.5 4.4 2.5 3.5 2.5 3.5 z "
   id="path669"
   sodipodi:nodetypes="ccccccc" /><path
   style="fill:#00ff00;fill-rule:evenodd;stroke:#000000;stroke-opacity:1;stroke-width:0.0469;stroke-linejoin:round;stroke-linecap:round;fill-opacity:0.5;stroke-dasharray:none;"
   d="M 4.5 0.6 C 6.5 0.6 6.5 1.5 6.5 1.5 C 6.5 1.5 6.5 2.4 4.5 2.4 C 2.5 2.4 2.5 1.5 2.5 1.5 C 2.5 1.5 2.5 0.6 4.5 0.6 z "
   id="path670"
   sodipodi:nodetypes="ccccc" /></g><g
   id="g671"
   style="fill:#00ff00;fill-opacity:0.5;stroke:#000000;stroke-opacity:1;stroke-width:0.0469;stroke-dasharray:none;stroke-linejoin:round;stroke-linecap:round;"><path
   style="fill:#00ff00;fill-rule:evenodd;stroke:#000000;stroke-opacity:1;stroke-width:0.0469;stroke-linejoin:round;stroke-linecap:round;fill-opacity:0.5;stroke-dasharray:none;"
   d="M 4.5 2.6 C 6.5 2.6 6.5 3.5 6.5 3.5 C 6.5 3.5 6.5 4.4 4.5 4.4 C 2.5 4.4 2.5 3.5 2.5 3.5 C 2.5 3.5 2.5 2.6 4.5 2.6 z "
   id="path672"
   sodipodi:nodetypes="ccccc" /><path
   style="font-size:12;fill:#00ff00;fill-rule:evenodd;stroke:#000000;stroke-width:0.0469;stroke-linecap:round;stroke-linejoin:round;fill-opacity:0.5;stroke-opacity:1;stroke-dasharray:none;"
   d="M 2.5 1.5 C 2.5 1.5 2.5 0.6 4.5 0.6 C 6.5 0.6 6.5 1.5 6.5 1.5 L 6.5 3.5 C 6.5 3.5 6.5 2.6 4.5 2.6 C 2.5 2.6 2.5 3.5 2.5 3.5 z "
   id="path673"
   sodipodi:nodetypes="ccccccc" /><path
   style="font-size:12;fill:#00ff00;fill-rule:evenodd;stroke:#000000;stroke-width:0.0469;stroke-linecap:round;stroke-linejoin:round;fill-opacity:0.5;stroke-opacity:1;stroke-dasharray:none;"
   d="M 2.5 1.5 C 2.5 1.5 2.5 2.4 4.5 2.4 C 6.5 2.4 6.5 1.5 6.5 1.5 L 6.5 3.5 C 6.5 3.5 6.5 4.4 4.5 4.4 C 2.5 4.4 2.5 3.5 2.5 3.5 z "
   id="path674"
   sodipodi:nodetypes="ccccccc" /><path
   style="fill:#00ff00;fill-rule:evenodd;stroke:#000000;stroke-opacity:1;stroke-width:0.0469;stroke-linejoin:round;stroke-linecap:round;fill-opacity:0.5;stroke-dasharray:none;"
   d="M 4.5 0.6 C 6.5 0.6 6.5 1.5 6.5 1.5 C 6.5 1.5 6.5 2.4 4.5 2.4 C 2.5 2.4 2.5 1.5 2.5 1.5 C 2.5 1.5 2.5 0.6 4.5 0.6 z "
   id="path675"
   sodipodi:nodetypes="ccccc" /></g><g
   id="g676"
   transform="translate(12,4)"
   style="fill:#00ff00;fill-opacity:0.5;stroke:#000000;stroke-opacity:1;stroke-width:0.0469;stroke-dasharray:none;stroke-linejoin:round;stroke-linecap:round;"><path
   style="fill:#00ff00;fill-rule:evenodd;stroke:#000000;stroke-opacity:1;stroke-width:0.0469;stroke-linejoin:round;stroke-linecap:round;fill-opacity:0.5;stroke-dasharray:none;"
   d="M 4.5 2.6 C 6.5 2.6 6.5 3.5 6.5 3.5 C 6.5 3.5 6.5 4.4 4.5 4.4 C 2.5 4.4 2.5 3.5 2.5 3.5 C 2.5 3.5 2.5 2.6 4.5 2.6 z "
   id="path677"
   sodipodi:nodetypes="ccccc" /><path
   style="font-size:12;fill:#00ff00;fill-rule:evenodd;stroke:#000000;stroke-width:0.0469;stroke-linecap:round;stroke-linejoin:round;fill-opacity:0.5;stroke-opacity:1;stroke-dasharray:none;"
   d="M 2.5 1.5 C 2.5 1.5 2.5 0.6 4.5 0.6 C 6.5 0.6 6.5 1.5 6.5 1.5 L 6.5 3.5 C 6.5 3.5 6.5 2.6 4.5 2.6 C 2.5 2.6 2.5 3.5 2.5 3.5 z "
   id="path678"
   sodipodi:nodetypes="ccccccc" /><path
   style="font-size:12;fill:#00ff00;fill-rule:evenodd;stroke:#000000;stroke-width:0.0469;stroke-linecap:round;stroke-linejoin:round;fill-opacity:0.5;stroke-opacity:1;stroke-dasharray:none;"
   d="M 2.5 1.5 C 2.5 1.5 2.5 2.4 4.5 2.4 C 6.5 2.4 6.5 1.5 6.5 1.5 L 6.5 3.5 C 6.5 3.5 6.5 4.4 4.5 4.4 C 2.5 4.4 2.5 3.5 2.5 3.5 z "
   id="path679"
   sodipodi:nodetypes="ccccccc" /><path
   style="fill:#00ff00;fill-rule:evenodd;stroke:#000000;stroke-opacity:1;stroke-width:0.0469;stroke-linejoin:round;stroke-linecap:round;fill-opacity:0.5;stroke-dasharray:none;"
   d="M 4.5 0.6 C 6.5 0.6 6.5 1.5 6.5 1.5 C 6.5 1.5 6.5 2.4 4.5 2.4 C 2.5 2.4 2.5 1.5 2.5 1.5 C 2.5 1.5 2.5 0.6 4.5 0.6 z "
   id="path680"
   sodipodi:nodetypes="ccccc" /></g><g
   id="g681"
   transform="translate(4,4)"
   style="fill:#00ff00;fill-opacity:0.5;stroke:#000000;stroke-opacity:1;stroke-width:0.0469;stroke-dasharray:none;stroke-linejoin:round;stroke-linecap:round;"><path
   style="fill:#00ff00;fill-rule:evenodd;stroke:#000000;stroke-opacity:1;stroke-width:0.0469;stroke-linejoin:round;stroke-linecap:round;fill-opacity:0.5;stroke-dasharray:none;"
   d="M 4.5 2.6 C 6.5 2.6 6.5 3.5 6.5 3.5 C 6.5 3.5 6.5 4.4 4.5 4.4 C 2.5 4.4 2.5 3.5 2.5 3.5 C 2.5 3.5 2.5 2.6 4.5 2.6 z "
   id="path682"
   sodipodi:nodetypes="ccccc" /><path
   style="font-size:12;fill:#00ff00;fill-rule:evenodd;stroke:#000000;stroke-width:0.0469;stroke-linecap:round;stroke-linejoin:round;fill-opacity:0.5;stroke-opacity:1;stroke-dasharray:none;"
   d="M 2.5 1.5 C 2.5 1.5 2.5 0.6 4.5 0.6 C 6.5 0.6 6.5 1.5 6.5 1.5 L 6.5 3.5 C 6.5 3.5 6.5 2.6 4.5 2.6 C 2.5 2.6 2.5 3.5 2.5 3.5 z "
   id="path683"
   sodipodi:nodetypes="ccccccc" /><path
   style="font-size:12;fill:#00ff00;fill-rule:evenodd;stroke:#000000;stroke-width:0.0469;stroke-linecap:round;stroke-linejoin:round;fill-opacity:0.5;stroke-opacity:1;stroke-dasharray:none;"
   d="M 2.5 1.5 C 2.5 1.5 2.5 2.4 4.5 2.4 C 6.5 2.4 6.5 1.5 6.5 1.5 L 6.5 3.5 C 6.5 3.5 6.5 4.4 4.5 4.4 C 2.5 4.4 2.5 3.5 2.5 3.5 z "
   id="path684"
   sodipodi:nodetypes="ccccccc" /><path
   style="fill:#00ff00;fill-rule:evenodd;stroke:#000000;stroke-opacity:1;stroke-width:0.0469;stroke-linejoin:round;stroke-linecap:round;fill-opacity:0.5;stroke-dasharray:none;"
   d="M 4.5 0.6 C 6.5 0.6 6.5 1.5 6.5 1.5 C 6.5 1.5 6.5 2.4 4.5 2.4 C 2.5 2.4 2.5 1.5 2.5 1.5 C 2.5 1.5 2.5 0.6 4.5 0.6 z "
   id="path685"
   sodipodi:nodetypes="ccccc" /></g><path
   style="font-size:12;fill:#00ffff;fill-rule:evenodd;stroke:#000000;stroke-width:0.0469;stroke-linejoin:round;stroke-linecap:round;fill-opacity:0.2471;stroke-opacity:1;stroke-dasharray:none;"
   d="M 0 -0.5 L 7 6.5 L 7 9.5 L 0 2.5 L 0 -0.5 z "
   id="path686" /><path
   style="font-size:12;fill:#00ffff;fill-rule:evenodd;stroke:#000000;stroke-width:0.0469;stroke-linejoin:round;stroke-linecap:round;fill-opacity:0.2471;stroke-opacity:1;stroke-dasharray:none;"
   d="M 7 6.5 L 7 9.5 L 21 9.5 L 21 6.5 L 7 6.5 z "
   id="path687" /><path
   style="font-size:12;fill:#00ffff;fill-rule:evenodd;stroke:#000000;stroke-width:0.0469;stroke-linejoin:round;stroke-linecap:round;fill-opacity:0.25;stroke-opacity:1;stroke-dasharray:none;"
   d="M 0 -0.5 L 7 6.5 L 21 6.5 L 14 -0.5 L 0 -0.5 z "
   id="path688"
   sodipodi:nodetypes="cccccc" /></g><g
   id="Majority Cell"
   transform="matrix(0.833625,0,0,0.833625,3.35016,14.99869)"
   style="font-size:12;"><path
   style="font-size:12;fill:#00ffff;fill-rule:evenodd;stroke:#000000;stroke-width:0.0469;stroke-linejoin:round;stroke-linecap:round;fill-opacity:0.2471;stroke-opacity:1;stroke-dasharray:none;"
   d="M 0 2.5 L 7 9.5 L 21 9.5 L 14 2.5 L 0 2.5 z "
   id="cellLidBot"
   sodipodi:nodetypes="cccccc" /><path
   style="font-size:12;fill:#00ffff;fill-rule:evenodd;stroke:#000000;stroke-width:0.0469;fill-opacity:0.2471;stroke-opacity:1;stroke-dasharray:none;"
   d="M 0 -0.5 L 0 2.5 L 14 2.5 L 14 -0.5 L 0 -0.5 z "
   id="cellWallN"
   sodipodi:nodetypes="cccccc" /><path
   style="font-size:12;fill:#00ffff;fill-rule:evenodd;stroke:#000000;stroke-width:0.0469;stroke-linejoin:round;stroke-linecap:round;fill-opacity:0.2471;stroke-opacity:1;stroke-dasharray:none;"
   d="M 14 -0.5 L 21 6.5 L 21 9.5 L 14 2.5 L 14 -0.5 z "
   id="cellWallE" /><g
   id="Dot2"
   transform="translate(8,0)"
   style="fill:#00ff00;fill-opacity:0.5;stroke:#000000;stroke-opacity:1;stroke-width:0.0469;stroke-dasharray:none;stroke-linejoin:round;stroke-linecap:round;"><path
   style="fill:#00ff00;fill-rule:evenodd;stroke:#000000;stroke-opacity:1;stroke-width:0.0469;stroke-linejoin:round;stroke-linecap:round;fill-opacity:0.5;stroke-dasharray:none;"
   d="M 4.5 2.6 C 6.5 2.6 6.5 3.5 6.5 3.5 C 6.5 3.5 6.5 4.4 4.5 4.4 C 2.5 4.4 2.5 3.5 2.5 3.5 C 2.5 3.5 2.5 2.6 4.5 2.6 z "
   id="path619"
   sodipodi:nodetypes="ccccc" /><path
   style="font-size:12;fill:#00ff00;fill-rule:evenodd;stroke:#000000;stroke-width:0.0469;stroke-linecap:round;stroke-linejoin:round;fill-opacity:0.5;stroke-opacity:1;stroke-dasharray:none;"
   d="M 2.5 1.5 C 2.5 1.5 2.5 0.6 4.5 0.6 C 6.5 0.6 6.5 1.5 6.5 1.5 L 6.5 3.5 C 6.5 3.5 6.5 2.6 4.5 2.6 C 2.5 2.6 2.5 3.5 2.5 3.5 z "
   id="path620"
   sodipodi:nodetypes="ccccccc" /><path
   style="font-size:12;fill:#00ff00;fill-rule:evenodd;stroke:#000000;stroke-width:0.0469;stroke-linecap:round;stroke-linejoin:round;fill-opacity:0.5;stroke-opacity:1;stroke-dasharray:none;"
   d="M 2.5 1.5 C 2.5 1.5 2.5 2.4 4.5 2.4 C 6.5 2.4 6.5 1.5 6.5 1.5 L 6.5 3.5 C 6.5 3.5 6.5 4.4 4.5 4.4 C 2.5 4.4 2.5 3.5 2.5 3.5 z "
   id="path621"
   sodipodi:nodetypes="ccccccc" /><path
   style="fill:#00ff00;fill-rule:evenodd;stroke:#000000;stroke-opacity:1;stroke-width:0.0469;stroke-linejoin:round;stroke-linecap:round;fill-opacity:0.5;stroke-dasharray:none;"
   d="M 4.5 0.6 C 6.5 0.6 6.5 1.5 6.5 1.5 C 6.5 1.5 6.5 2.4 4.5 2.4 C 2.5 2.4 2.5 1.5 2.5 1.5 C 2.5 1.5 2.5 0.6 4.5 0.6 z "
   id="path622"
   sodipodi:nodetypes="ccccc" /></g><g
   id="Dot1"
   style="fill:#00ff00;fill-opacity:0.5;stroke:#000000;stroke-opacity:1;stroke-width:0.0469;stroke-dasharray:none;stroke-linejoin:round;stroke-linecap:round;"><path
   style="fill:#00ff00;fill-rule:evenodd;stroke:#000000;stroke-opacity:1;stroke-width:0.0469;stroke-linejoin:round;stroke-linecap:round;fill-opacity:0.5;stroke-dasharray:none;"
   d="M 4.5 2.6 C 6.5 2.6 6.5 3.5 6.5 3.5 C 6.5 3.5 6.5 4.4 4.5 4.4 C 2.5 4.4 2.5 3.5 2.5 3.5 C 2.5 3.5 2.5 2.6 4.5 2.6 z "
   id="dotLidBot"
   sodipodi:nodetypes="ccccc" /><path
   style="font-size:12;fill:#00ff00;fill-rule:evenodd;stroke:#000000;stroke-width:0.0469;stroke-linecap:round;stroke-linejoin:round;fill-opacity:0.5;stroke-opacity:1;stroke-dasharray:none;"
   d="M 2.5 1.5 C 2.5 1.5 2.5 0.6 4.5 0.6 C 6.5 0.6 6.5 1.5 6.5 1.5 L 6.5 3.5 C 6.5 3.5 6.5 2.6 4.5 2.6 C 2.5 2.6 2.5 3.5 2.5 3.5 z "
   id="dotBack"
   sodipodi:nodetypes="ccccccc" /><path
   style="font-size:12;fill:#00ff00;fill-rule:evenodd;stroke:#000000;stroke-width:0.0469;stroke-linecap:round;stroke-linejoin:round;fill-opacity:0.5;stroke-opacity:1;stroke-dasharray:none;"
   d="M 2.5 1.5 C 2.5 1.5 2.5 2.4 4.5 2.4 C 6.5 2.4 6.5 1.5 6.5 1.5 L 6.5 3.5 C 6.5 3.5 6.5 4.4 4.5 4.4 C 2.5 4.4 2.5 3.5 2.5 3.5 z "
   id="dotFront"
   sodipodi:nodetypes="ccccccc" /><path
   style="fill:#00ff00;fill-rule:evenodd;stroke:#000000;stroke-opacity:1;stroke-width:0.0469;stroke-linejoin:round;stroke-linecap:round;fill-opacity:0.5;stroke-dasharray:none;"
   d="M 4.5 0.6 C 6.5 0.6 6.5 1.5 6.5 1.5 C 6.5 1.5 6.5 2.4 4.5 2.4 C 2.5 2.4 2.5 1.5 2.5 1.5 C 2.5 1.5 2.5 0.6 4.5 0.6 z "
   id="dotLidTop"
   sodipodi:nodetypes="ccccc" /></g><g
   id="Dot3"
   transform="translate(12,4)"
   style="fill:#00ff00;fill-opacity:0.5;stroke:#000000;stroke-opacity:1;stroke-width:0.0469;stroke-dasharray:none;stroke-linejoin:round;stroke-linecap:round;"><path
   style="fill:#00ff00;fill-rule:evenodd;stroke:#000000;stroke-opacity:1;stroke-width:0.0469;stroke-linejoin:round;stroke-linecap:round;fill-opacity:0.5;stroke-dasharray:none;"
   d="M 4.5 2.6 C 6.5 2.6 6.5 3.5 6.5 3.5 C 6.5 3.5 6.5 4.4 4.5 4.4 C 2.5 4.4 2.5 3.5 2.5 3.5 C 2.5 3.5 2.5 2.6 4.5 2.6 z "
   id="path624"
   sodipodi:nodetypes="ccccc" /><path
   style="font-size:12;fill:#00ff00;fill-rule:evenodd;stroke:#000000;stroke-width:0.0469;stroke-linecap:round;stroke-linejoin:round;fill-opacity:0.5;stroke-opacity:1;stroke-dasharray:none;"
   d="M 2.5 1.5 C 2.5 1.5 2.5 0.6 4.5 0.6 C 6.5 0.6 6.5 1.5 6.5 1.5 L 6.5 3.5 C 6.5 3.5 6.5 2.6 4.5 2.6 C 2.5 2.6 2.5 3.5 2.5 3.5 z "
   id="path625"
   sodipodi:nodetypes="ccccccc" /><path
   style="font-size:12;fill:#00ff00;fill-rule:evenodd;stroke:#000000;stroke-width:0.0469;stroke-linecap:round;stroke-linejoin:round;fill-opacity:0.5;stroke-opacity:1;stroke-dasharray:none;"
   d="M 2.5 1.5 C 2.5 1.5 2.5 2.4 4.5 2.4 C 6.5 2.4 6.5 1.5 6.5 1.5 L 6.5 3.5 C 6.5 3.5 6.5 4.4 4.5 4.4 C 2.5 4.4 2.5 3.5 2.5 3.5 z "
   id="path626"
   sodipodi:nodetypes="ccccccc" /><path
   style="fill:#00ff00;fill-rule:evenodd;stroke:#000000;stroke-opacity:1;stroke-width:0.0469;stroke-linejoin:round;stroke-linecap:round;fill-opacity:0.5;stroke-dasharray:none;"
   d="M 4.5 0.6 C 6.5 0.6 6.5 1.5 6.5 1.5 C 6.5 1.5 6.5 2.4 4.5 2.4 C 2.5 2.4 2.5 1.5 2.5 1.5 C 2.5 1.5 2.5 0.6 4.5 0.6 z "
   id="path627"
   sodipodi:nodetypes="ccccc" /></g><g
   id="Dot4"
   transform="translate(4,4)"
   style="fill:#00ff00;fill-opacity:0.5;stroke:#000000;stroke-opacity:1;stroke-width:0.0469;stroke-dasharray:none;stroke-linejoin:round;stroke-linecap:round;"><path
   style="fill:#00ff00;fill-rule:evenodd;stroke:#000000;stroke-opacity:1;stroke-width:0.0469;stroke-linejoin:round;stroke-linecap:round;fill-opacity:0.5;stroke-dasharray:none;"
   d="M 4.5 2.6 C 6.5 2.6 6.5 3.5 6.5 3.5 C 6.5 3.5 6.5 4.4 4.5 4.4 C 2.5 4.4 2.5 3.5 2.5 3.5 C 2.5 3.5 2.5 2.6 4.5 2.6 z "
   id="path629"
   sodipodi:nodetypes="ccccc" /><path
   style="font-size:12;fill:#00ff00;fill-rule:evenodd;stroke:#000000;stroke-width:0.0469;stroke-linecap:round;stroke-linejoin:round;fill-opacity:0.5;stroke-opacity:1;stroke-dasharray:none;"
   d="M 2.5 1.5 C 2.5 1.5 2.5 0.6 4.5 0.6 C 6.5 0.6 6.5 1.5 6.5 1.5 L 6.5 3.5 C 6.5 3.5 6.5 2.6 4.5 2.6 C 2.5 2.6 2.5 3.5 2.5 3.5 z "
   id="path630"
   sodipodi:nodetypes="ccccccc" /><path
   style="font-size:12;fill:#00ff00;fill-rule:evenodd;stroke:#000000;stroke-width:0.0469;stroke-linecap:round;stroke-linejoin:round;fill-opacity:0.5;stroke-opacity:1;stroke-dasharray:none;"
   d="M 2.5 1.5 C 2.5 1.5 2.5 2.4 4.5 2.4 C 6.5 2.4 6.5 1.5 6.5 1.5 L 6.5 3.5 C 6.5 3.5 6.5 4.4 4.5 4.4 C 2.5 4.4 2.5 3.5 2.5 3.5 z "
   id="path631"
   sodipodi:nodetypes="ccccccc" /><path
   style="fill:#00ff00;fill-rule:evenodd;stroke:#000000;stroke-opacity:1;stroke-width:0.0469;stroke-linejoin:round;stroke-linecap:round;fill-opacity:0.5;stroke-dasharray:none;"
   d="M 4.5 0.6 C 6.5 0.6 6.5 1.5 6.5 1.5 C 6.5 1.5 6.5 2.4 4.5 2.4 C 2.5 2.4 2.5 1.5 2.5 1.5 C 2.5 1.5 2.5 0.6 4.5 0.6 z "
   id="path632"
   sodipodi:nodetypes="ccccc" /></g><path
   style="font-size:12;fill:#00ffff;fill-rule:evenodd;stroke:#000000;stroke-width:0.0469;stroke-linejoin:round;stroke-linecap:round;fill-opacity:0.2471;stroke-opacity:1;stroke-dasharray:none;"
   d="M 0 -0.5 L 7 6.5 L 7 9.5 L 0 2.5 L 0 -0.5 z "
   id="cellWallW" /><path
   style="font-size:12;fill:#00ffff;fill-rule:evenodd;stroke:#000000;stroke-width:0.0469;stroke-linejoin:round;stroke-linecap:round;fill-opacity:0.2471;stroke-opacity:1;stroke-dasharray:none;"
   d="M 7 6.5 L 7 9.5 L 21 9.5 L 21 6.5 L 7 6.5 z "
   id="cellWallS" /><path
   style="font-size:12;fill:#00ffff;fill-rule:evenodd;stroke:#000000;stroke-width:0.0469;stroke-linejoin:round;stroke-linecap:round;fill-opacity:0.25;stroke-opacity:1;stroke-dasharray:none;"
   d="M 0 -0.5 L 7 6.5 L 21 6.5 L 14 -0.5 L 0 -0.5 z "
   id="cellLidTop"
   sodipodi:nodetypes="cccccc" /></g><g
   id="Input B"
   transform="matrix(0.833625,0,0,0.833625,-9.924937,14.99869)"
   style="font-size:12;"><path
   style="font-size:12;fill:#003fff;fill-rule:evenodd;stroke:#000000;stroke-width:0.0469;stroke-linejoin:round;stroke-linecap:round;fill-opacity:0.2471;stroke-opacity:1;stroke-dasharray:none;"
   d="M 0 2.5 L 7 9.5 L 21 9.5 L 14 2.5 L 0 2.5 z "
   id="path891"
   sodipodi:nodetypes="cccccc" /><path
   style="font-size:12;fill:#003fff;fill-rule:evenodd;stroke:#000000;stroke-width:0.0469;fill-opacity:0.2471;stroke-opacity:1;stroke-dasharray:none;"
   d="M 0 -0.5 L 0 2.5 L 14 2.5 L 14 -0.5 L 0 -0.5 z "
   id="path892"
   sodipodi:nodetypes="cccccc" /><path
   style="font-size:12;fill:#003fff;fill-rule:evenodd;stroke:#000000;stroke-width:0.0469;stroke-linejoin:round;stroke-linecap:round;fill-opacity:0.2471;stroke-opacity:1;stroke-dasharray:none;"
   d="M 14 -0.5 L 21 6.5 L 21 9.5 L 14 2.5 L 14 -0.5 z "
   id="path893" /><g
   id="g894"
   transform="translate(8,0)"
   style="fill:#00ff00;fill-opacity:0.5;stroke:#000000;stroke-opacity:1;stroke-width:0.0469;stroke-dasharray:none;stroke-linejoin:round;stroke-linecap:round;"><path
   style="fill:#00ff00;fill-rule:evenodd;stroke:#000000;stroke-opacity:1;stroke-width:0.0469;stroke-linejoin:round;stroke-linecap:round;fill-opacity:0.5;stroke-dasharray:none;"
   d="M 4.5 2.6 C 6.5 2.6 6.5 3.5 6.5 3.5 C 6.5 3.5 6.5 4.4 4.5 4.4 C 2.5 4.4 2.5 3.5 2.5 3.5 C 2.5 3.5 2.5 2.6 4.5 2.6 z "
   id="path895"
   sodipodi:nodetypes="ccccc" /><path
   style="font-size:12;fill:#00ff00;fill-rule:evenodd;stroke:#000000;stroke-width:0.0469;stroke-linecap:round;stroke-linejoin:round;fill-opacity:0.5;stroke-opacity:1;stroke-dasharray:none;"
   d="M 2.5 1.5 C 2.5 1.5 2.5 0.6 4.5 0.6 C 6.5 0.6 6.5 1.5 6.5 1.5 L 6.5 3.5 C 6.5 3.5 6.5 2.6 4.5 2.6 C 2.5 2.6 2.5 3.5 2.5 3.5 z "
   id="path896"
   sodipodi:nodetypes="ccccccc" /><path
   style="font-size:12;fill:#00ff00;fill-rule:evenodd;stroke:#000000;stroke-width:0.0469;stroke-linecap:round;stroke-linejoin:round;fill-opacity:0.5;stroke-opacity:1;stroke-dasharray:none;"
   d="M 2.5 1.5 C 2.5 1.5 2.5 2.4 4.5 2.4 C 6.5 2.4 6.5 1.5 6.5 1.5 L 6.5 3.5 C 6.5 3.5 6.5 4.4 4.5 4.4 C 2.5 4.4 2.5 3.5 2.5 3.5 z "
   id="path897"
   sodipodi:nodetypes="ccccccc" /><path
   style="fill:#00ff00;fill-rule:evenodd;stroke:#000000;stroke-opacity:1;stroke-width:0.0469;stroke-linejoin:round;stroke-linecap:round;fill-opacity:0.5;stroke-dasharray:none;"
   d="M 4.5 0.6 C 6.5 0.6 6.5 1.5 6.5 1.5 C 6.5 1.5 6.5 2.4 4.5 2.4 C 2.5 2.4 2.5 1.5 2.5 1.5 C 2.5 1.5 2.5 0.6 4.5 0.6 z "
   id="path898"
   sodipodi:nodetypes="ccccc" /></g><g
   id="g899"
   style="fill:#00ff00;fill-opacity:0.5;stroke:#000000;stroke-opacity:1;stroke-width:0.0469;stroke-dasharray:none;stroke-linejoin:round;stroke-linecap:round;"><path
   style="fill:#00ff00;fill-rule:evenodd;stroke:#000000;stroke-opacity:1;stroke-width:0.0469;stroke-linejoin:round;stroke-linecap:round;fill-opacity:0.5;stroke-dasharray:none;"
   d="M 4.5 2.6 C 6.5 2.6 6.5 3.5 6.5 3.5 C 6.5 3.5 6.5 4.4 4.5 4.4 C 2.5 4.4 2.5 3.5 2.5 3.5 C 2.5 3.5 2.5 2.6 4.5 2.6 z "
   id="path900"
   sodipodi:nodetypes="ccccc" /><path
   style="font-size:12;fill:#00ff00;fill-rule:evenodd;stroke:#000000;stroke-width:0.0469;stroke-linecap:round;stroke-linejoin:round;fill-opacity:0.5;stroke-opacity:1;stroke-dasharray:none;"
   d="M 2.5 1.5 C 2.5 1.5 2.5 0.6 4.5 0.6 C 6.5 0.6 6.5 1.5 6.5 1.5 L 6.5 3.5 C 6.5 3.5 6.5 2.6 4.5 2.6 C 2.5 2.6 2.5 3.5 2.5 3.5 z "
   id="path901"
   sodipodi:nodetypes="ccccccc" /><path
   style="font-size:12;fill:#00ff00;fill-rule:evenodd;stroke:#000000;stroke-width:0.0469;stroke-linecap:round;stroke-linejoin:round;fill-opacity:0.5;stroke-opacity:1;stroke-dasharray:none;"
   d="M 2.5 1.5 C 2.5 1.5 2.5 2.4 4.5 2.4 C 6.5 2.4 6.5 1.5 6.5 1.5 L 6.5 3.5 C 6.5 3.5 6.5 4.4 4.5 4.4 C 2.5 4.4 2.5 3.5 2.5 3.5 z "
   id="path902"
   sodipodi:nodetypes="ccccccc" /><path
   style="fill:#00ff00;fill-rule:evenodd;stroke:#000000;stroke-opacity:1;stroke-width:0.0469;stroke-linejoin:round;stroke-linecap:round;fill-opacity:0.5;stroke-dasharray:none;"
   d="M 4.5 0.6 C 6.5 0.6 6.5 1.5 6.5 1.5 C 6.5 1.5 6.5 2.4 4.5 2.4 C 2.5 2.4 2.5 1.5 2.5 1.5 C 2.5 1.5 2.5 0.6 4.5 0.6 z "
   id="path903"
   sodipodi:nodetypes="ccccc" /></g><g
   id="g904"
   transform="translate(12,4)"
   style="fill:#00ff00;fill-opacity:0.5;stroke:#000000;stroke-opacity:1;stroke-width:0.0469;stroke-dasharray:none;stroke-linejoin:round;stroke-linecap:round;"><path
   style="fill:#00ff00;fill-rule:evenodd;stroke:#000000;stroke-opacity:1;stroke-width:0.0469;stroke-linejoin:round;stroke-linecap:round;fill-opacity:0.5;stroke-dasharray:none;"
   d="M 4.5 2.6 C 6.5 2.6 6.5 3.5 6.5 3.5 C 6.5 3.5 6.5 4.4 4.5 4.4 C 2.5 4.4 2.5 3.5 2.5 3.5 C 2.5 3.5 2.5 2.6 4.5 2.6 z "
   id="path905"
   sodipodi:nodetypes="ccccc" /><path
   style="font-size:12;fill:#00ff00;fill-rule:evenodd;stroke:#000000;stroke-width:0.0469;stroke-linecap:round;stroke-linejoin:round;fill-opacity:0.5;stroke-opacity:1;stroke-dasharray:none;"
   d="M 2.5 1.5 C 2.5 1.5 2.5 0.6 4.5 0.6 C 6.5 0.6 6.5 1.5 6.5 1.5 L 6.5 3.5 C 6.5 3.5 6.5 2.6 4.5 2.6 C 2.5 2.6 2.5 3.5 2.5 3.5 z "
   id="path906"
   sodipodi:nodetypes="ccccccc" /><path
   style="font-size:12;fill:#00ff00;fill-rule:evenodd;stroke:#000000;stroke-width:0.0469;stroke-linecap:round;stroke-linejoin:round;fill-opacity:0.5;stroke-opacity:1;stroke-dasharray:none;"
   d="M 2.5 1.5 C 2.5 1.5 2.5 2.4 4.5 2.4 C 6.5 2.4 6.5 1.5 6.5 1.5 L 6.5 3.5 C 6.5 3.5 6.5 4.4 4.5 4.4 C 2.5 4.4 2.5 3.5 2.5 3.5 z "
   id="path907"
   sodipodi:nodetypes="ccccccc" /><path
   style="fill:#00ff00;fill-rule:evenodd;stroke:#000000;stroke-opacity:1;stroke-width:0.0469;stroke-linejoin:round;stroke-linecap:round;fill-opacity:0.5;stroke-dasharray:none;"
   d="M 4.5 0.6 C 6.5 0.6 6.5 1.5 6.5 1.5 C 6.5 1.5 6.5 2.4 4.5 2.4 C 2.5 2.4 2.5 1.5 2.5 1.5 C 2.5 1.5 2.5 0.6 4.5 0.6 z "
   id="path908"
   sodipodi:nodetypes="ccccc" /></g><g
   id="g909"
   transform="translate(4,4)"
   style="fill:#00ff00;fill-opacity:0.5;stroke:#000000;stroke-opacity:1;stroke-width:0.0469;stroke-dasharray:none;stroke-linejoin:round;stroke-linecap:round;"><path
   style="fill:#00ff00;fill-rule:evenodd;stroke:#000000;stroke-opacity:1;stroke-width:0.0469;stroke-linejoin:round;stroke-linecap:round;fill-opacity:0.5;stroke-dasharray:none;"
   d="M 4.5 2.6 C 6.5 2.6 6.5 3.5 6.5 3.5 C 6.5 3.5 6.5 4.4 4.5 4.4 C 2.5 4.4 2.5 3.5 2.5 3.5 C 2.5 3.5 2.5 2.6 4.5 2.6 z "
   id="path910"
   sodipodi:nodetypes="ccccc" /><path
   style="font-size:12;fill:#00ff00;fill-rule:evenodd;stroke:#000000;stroke-width:0.0469;stroke-linecap:round;stroke-linejoin:round;fill-opacity:0.5;stroke-opacity:1;stroke-dasharray:none;"
   d="M 2.5 1.5 C 2.5 1.5 2.5 0.6 4.5 0.6 C 6.5 0.6 6.5 1.5 6.5 1.5 L 6.5 3.5 C 6.5 3.5 6.5 2.6 4.5 2.6 C 2.5 2.6 2.5 3.5 2.5 3.5 z "
   id="path911"
   sodipodi:nodetypes="ccccccc" /><path
   style="font-size:12;fill:#00ff00;fill-rule:evenodd;stroke:#000000;stroke-width:0.0469;stroke-linecap:round;stroke-linejoin:round;fill-opacity:0.5;stroke-opacity:1;stroke-dasharray:none;"
   d="M 2.5 1.5 C 2.5 1.5 2.5 2.4 4.5 2.4 C 6.5 2.4 6.5 1.5 6.5 1.5 L 6.5 3.5 C 6.5 3.5 6.5 4.4 4.5 4.4 C 2.5 4.4 2.5 3.5 2.5 3.5 z "
   id="path912"
   sodipodi:nodetypes="ccccccc" /><path
   style="fill:#00ff00;fill-rule:evenodd;stroke:#000000;stroke-opacity:1;stroke-width:0.0469;stroke-linejoin:round;stroke-linecap:round;fill-opacity:0.5;stroke-dasharray:none;"
   d="M 4.5 0.6 C 6.5 0.6 6.5 1.5 6.5 1.5 C 6.5 1.5 6.5 2.4 4.5 2.4 C 2.5 2.4 2.5 1.5 2.5 1.5 C 2.5 1.5 2.5 0.6 4.5 0.6 z "
   id="path913"
   sodipodi:nodetypes="ccccc" /></g><path
   style="font-size:12;fill:#003fff;fill-rule:evenodd;stroke:#000000;stroke-width:0.0469;stroke-linejoin:round;stroke-linecap:round;fill-opacity:0.2471;stroke-opacity:1;stroke-dasharray:none;"
   d="M 0 -0.5 L 7 6.5 L 7 9.5 L 0 2.5 L 0 -0.5 z "
   id="path914" /><path
   style="font-size:12;fill:#003fff;fill-rule:evenodd;stroke:#000000;stroke-width:0.0469;stroke-linejoin:round;stroke-linecap:round;fill-opacity:0.2471;stroke-opacity:1;stroke-dasharray:none;"
   d="M 7 6.5 L 7 9.5 L 21 9.5 L 21 6.5 L 7 6.5 z "
   id="path915" /><path
   style="font-size:12;fill:#003fff;fill-rule:evenodd;stroke:#000000;stroke-width:0.0469;stroke-linejoin:round;stroke-linecap:round;fill-opacity:0.25;stroke-opacity:1;stroke-dasharray:none;"
   d="M 0 -0.5 L 7 6.5 L 21 6.5 L 14 -0.5 L 0 -0.5 z "
   id="path916"
   sodipodi:nodetypes="cccccc" /></g><g
   id="Input C"
   transform="matrix(0.833625,0,0,0.833625,10.22515,21.87369)"
   style="font-size:12;"><path
   style="font-size:12;fill:#003fff;fill-rule:evenodd;stroke:#000000;stroke-width:0.0469;stroke-linejoin:round;stroke-linecap:round;fill-opacity:0.2471;stroke-opacity:1;stroke-dasharray:none;"
   d="M 0 2.5 L 7 9.5 L 21 9.5 L 14 2.5 L 0 2.5 z "
   id="path965"
   sodipodi:nodetypes="cccccc" /><path
   style="font-size:12;fill:#003fff;fill-rule:evenodd;stroke:#000000;stroke-width:0.0469;fill-opacity:0.2471;stroke-opacity:1;stroke-dasharray:none;"
   d="M 0 -0.5 L 0 2.5 L 14 2.5 L 14 -0.5 L 0 -0.5 z "
   id="path966"
   sodipodi:nodetypes="cccccc" /><path
   style="font-size:12;fill:#003fff;fill-rule:evenodd;stroke:#000000;stroke-width:0.0469;stroke-linejoin:round;stroke-linecap:round;fill-opacity:0.2471;stroke-opacity:1;stroke-dasharray:none;"
   d="M 14 -0.5 L 21 6.5 L 21 9.5 L 14 2.5 L 14 -0.5 z "
   id="path967" /><g
   id="g968"
   transform="translate(8,0)"
   style="fill:#00ff00;fill-opacity:0.5;stroke:#000000;stroke-opacity:1;stroke-width:0.0469;stroke-dasharray:none;stroke-linejoin:round;stroke-linecap:round;"><path
   style="fill:#00ff00;fill-rule:evenodd;stroke:#000000;stroke-opacity:1;stroke-width:0.0469;stroke-linejoin:round;stroke-linecap:round;fill-opacity:0.5;stroke-dasharray:none;"
   d="M 4.5 2.6 C 6.5 2.6 6.5 3.5 6.5 3.5 C 6.5 3.5 6.5 4.4 4.5 4.4 C 2.5 4.4 2.5 3.5 2.5 3.5 C 2.5 3.5 2.5 2.6 4.5 2.6 z "
   id="path969"
   sodipodi:nodetypes="ccccc" /><path
   style="font-size:12;fill:#00ff00;fill-rule:evenodd;stroke:#000000;stroke-width:0.0469;stroke-linecap:round;stroke-linejoin:round;fill-opacity:0.5;stroke-opacity:1;stroke-dasharray:none;"
   d="M 2.5 1.5 C 2.5 1.5 2.5 0.6 4.5 0.6 C 6.5 0.6 6.5 1.5 6.5 1.5 L 6.5 3.5 C 6.5 3.5 6.5 2.6 4.5 2.6 C 2.5 2.6 2.5 3.5 2.5 3.5 z "
   id="path970"
   sodipodi:nodetypes="ccccccc" /><path
   style="font-size:12;fill:#00ff00;fill-rule:evenodd;stroke:#000000;stroke-width:0.0469;stroke-linecap:round;stroke-linejoin:round;fill-opacity:0.5;stroke-opacity:1;stroke-dasharray:none;"
   d="M 2.5 1.5 C 2.5 1.5 2.5 2.4 4.5 2.4 C 6.5 2.4 6.5 1.5 6.5 1.5 L 6.5 3.5 C 6.5 3.5 6.5 4.4 4.5 4.4 C 2.5 4.4 2.5 3.5 2.5 3.5 z "
   id="path971"
   sodipodi:nodetypes="ccccccc" /><path
   style="fill:#00ff00;fill-rule:evenodd;stroke:#000000;stroke-opacity:1;stroke-width:0.0469;stroke-linejoin:round;stroke-linecap:round;fill-opacity:0.5;stroke-dasharray:none;"
   d="M 4.5 0.6 C 6.5 0.6 6.5 1.5 6.5 1.5 C 6.5 1.5 6.5 2.4 4.5 2.4 C 2.5 2.4 2.5 1.5 2.5 1.5 C 2.5 1.5 2.5 0.6 4.5 0.6 z "
   id="path972"
   sodipodi:nodetypes="ccccc" /></g><g
   id="g973"
   style="fill:#00ff00;fill-opacity:0.5;stroke:#000000;stroke-opacity:1;stroke-width:0.0469;stroke-dasharray:none;stroke-linejoin:round;stroke-linecap:round;"><path
   style="fill:#00ff00;fill-rule:evenodd;stroke:#000000;stroke-opacity:1;stroke-width:0.0469;stroke-linejoin:round;stroke-linecap:round;fill-opacity:0.5;stroke-dasharray:none;"
   d="M 4.5 2.6 C 6.5 2.6 6.5 3.5 6.5 3.5 C 6.5 3.5 6.5 4.4 4.5 4.4 C 2.5 4.4 2.5 3.5 2.5 3.5 C 2.5 3.5 2.5 2.6 4.5 2.6 z "
   id="path974"
   sodipodi:nodetypes="ccccc" /><path
   style="font-size:12;fill:#00ff00;fill-rule:evenodd;stroke:#000000;stroke-width:0.0469;stroke-linecap:round;stroke-linejoin:round;fill-opacity:0.5;stroke-opacity:1;stroke-dasharray:none;"
   d="M 2.5 1.5 C 2.5 1.5 2.5 0.6 4.5 0.6 C 6.5 0.6 6.5 1.5 6.5 1.5 L 6.5 3.5 C 6.5 3.5 6.5 2.6 4.5 2.6 C 2.5 2.6 2.5 3.5 2.5 3.5 z "
   id="path975"
   sodipodi:nodetypes="ccccccc" /><path
   style="font-size:12;fill:#00ff00;fill-rule:evenodd;stroke:#000000;stroke-width:0.0469;stroke-linecap:round;stroke-linejoin:round;fill-opacity:0.5;stroke-opacity:1;stroke-dasharray:none;"
   d="M 2.5 1.5 C 2.5 1.5 2.5 2.4 4.5 2.4 C 6.5 2.4 6.5 1.5 6.5 1.5 L 6.5 3.5 C 6.5 3.5 6.5 4.4 4.5 4.4 C 2.5 4.4 2.5 3.5 2.5 3.5 z "
   id="path976"
   sodipodi:nodetypes="ccccccc" /><path
   style="fill:#00ff00;fill-rule:evenodd;stroke:#000000;stroke-opacity:1;stroke-width:0.0469;stroke-linejoin:round;stroke-linecap:round;fill-opacity:0.5;stroke-dasharray:none;"
   d="M 4.5 0.6 C 6.5 0.6 6.5 1.5 6.5 1.5 C 6.5 1.5 6.5 2.4 4.5 2.4 C 2.5 2.4 2.5 1.5 2.5 1.5 C 2.5 1.5 2.5 0.6 4.5 0.6 z "
   id="path977"
   sodipodi:nodetypes="ccccc" /></g><g
   id="g978"
   transform="translate(12,4)"
   style="fill:#00ff00;fill-opacity:0.5;stroke:#000000;stroke-opacity:1;stroke-width:0.0469;stroke-dasharray:none;stroke-linejoin:round;stroke-linecap:round;"><path
   style="fill:#00ff00;fill-rule:evenodd;stroke:#000000;stroke-opacity:1;stroke-width:0.0469;stroke-linejoin:round;stroke-linecap:round;fill-opacity:0.5;stroke-dasharray:none;"
   d="M 4.5 2.6 C 6.5 2.6 6.5 3.5 6.5 3.5 C 6.5 3.5 6.5 4.4 4.5 4.4 C 2.5 4.4 2.5 3.5 2.5 3.5 C 2.5 3.5 2.5 2.6 4.5 2.6 z "
   id="path979"
   sodipodi:nodetypes="ccccc" /><path
   style="font-size:12;fill:#00ff00;fill-rule:evenodd;stroke:#000000;stroke-width:0.0469;stroke-linecap:round;stroke-linejoin:round;fill-opacity:0.5;stroke-opacity:1;stroke-dasharray:none;"
   d="M 2.5 1.5 C 2.5 1.5 2.5 0.6 4.5 0.6 C 6.5 0.6 6.5 1.5 6.5 1.5 L 6.5 3.5 C 6.5 3.5 6.5 2.6 4.5 2.6 C 2.5 2.6 2.5 3.5 2.5 3.5 z "
   id="path980"
   sodipodi:nodetypes="ccccccc" /><path
   style="font-size:12;fill:#00ff00;fill-rule:evenodd;stroke:#000000;stroke-width:0.0469;stroke-linecap:round;stroke-linejoin:round;fill-opacity:0.5;stroke-opacity:1;stroke-dasharray:none;"
   d="M 2.5 1.5 C 2.5 1.5 2.5 2.4 4.5 2.4 C 6.5 2.4 6.5 1.5 6.5 1.5 L 6.5 3.5 C 6.5 3.5 6.5 4.4 4.5 4.4 C 2.5 4.4 2.5 3.5 2.5 3.5 z "
   id="path981"
   sodipodi:nodetypes="ccccccc" /><path
   style="fill:#00ff00;fill-rule:evenodd;stroke:#000000;stroke-opacity:1;stroke-width:0.0469;stroke-linejoin:round;stroke-linecap:round;fill-opacity:0.5;stroke-dasharray:none;"
   d="M 4.5 0.6 C 6.5 0.6 6.5 1.5 6.5 1.5 C 6.5 1.5 6.5 2.4 4.5 2.4 C 2.5 2.4 2.5 1.5 2.5 1.5 C 2.5 1.5 2.5 0.6 4.5 0.6 z "
   id="path982"
   sodipodi:nodetypes="ccccc" /></g><g
   id="g983"
   transform="translate(4,4)"
   style="fill:#00ff00;fill-opacity:0.5;stroke:#000000;stroke-opacity:1;stroke-width:0.0469;stroke-dasharray:none;stroke-linejoin:round;stroke-linecap:round;"><path
   style="fill:#00ff00;fill-rule:evenodd;stroke:#000000;stroke-opacity:1;stroke-width:0.0469;stroke-linejoin:round;stroke-linecap:round;fill-opacity:0.5;stroke-dasharray:none;"
   d="M 4.5 2.6 C 6.5 2.6 6.5 3.5 6.5 3.5 C 6.5 3.5 6.5 4.4 4.5 4.4 C 2.5 4.4 2.5 3.5 2.5 3.5 C 2.5 3.5 2.5 2.6 4.5 2.6 z "
   id="path984"
   sodipodi:nodetypes="ccccc" /><path
   style="font-size:12;fill:#00ff00;fill-rule:evenodd;stroke:#000000;stroke-width:0.0469;stroke-linecap:round;stroke-linejoin:round;fill-opacity:0.5;stroke-opacity:1;stroke-dasharray:none;"
   d="M 2.5 1.5 C 2.5 1.5 2.5 0.6 4.5 0.6 C 6.5 0.6 6.5 1.5 6.5 1.5 L 6.5 3.5 C 6.5 3.5 6.5 2.6 4.5 2.6 C 2.5 2.6 2.5 3.5 2.5 3.5 z "
   id="path985"
   sodipodi:nodetypes="ccccccc" /><path
   style="font-size:12;fill:#00ff00;fill-rule:evenodd;stroke:#000000;stroke-width:0.0469;stroke-linecap:round;stroke-linejoin:round;fill-opacity:0.5;stroke-opacity:1;stroke-dasharray:none;"
   d="M 2.5 1.5 C 2.5 1.5 2.5 2.4 4.5 2.4 C 6.5 2.4 6.5 1.5 6.5 1.5 L 6.5 3.5 C 6.5 3.5 6.5 4.4 4.5 4.4 C 2.5 4.4 2.5 3.5 2.5 3.5 z "
   id="path986"
   sodipodi:nodetypes="ccccccc" /><path
   style="fill:#00ff00;fill-rule:evenodd;stroke:#000000;stroke-opacity:1;stroke-width:0.0469;stroke-linejoin:round;stroke-linecap:round;fill-opacity:0.5;stroke-dasharray:none;"
   d="M 4.5 0.6 C 6.5 0.6 6.5 1.5 6.5 1.5 C 6.5 1.5 6.5 2.4 4.5 2.4 C 2.5 2.4 2.5 1.5 2.5 1.5 C 2.5 1.5 2.5 0.6 4.5 0.6 z "
   id="path987"
   sodipodi:nodetypes="ccccc" /></g><path
   style="font-size:12;fill:#003fff;fill-rule:evenodd;stroke:#000000;stroke-width:0.0469;stroke-linejoin:round;stroke-linecap:round;fill-opacity:0.2471;stroke-opacity:1;stroke-dasharray:none;"
   d="M 0 -0.5 L 7 6.5 L 7 9.5 L 0 2.5 L 0 -0.5 z "
   id="path988" /><path
   style="font-size:12;fill:#003fff;fill-rule:evenodd;stroke:#000000;stroke-width:0.0469;stroke-linejoin:round;stroke-linecap:round;fill-opacity:0.2471;stroke-opacity:1;stroke-dasharray:none;"
   d="M 7 6.5 L 7 9.5 L 21 9.5 L 21 6.5 L 7 6.5 z "
   id="path989" /><path
   style="font-size:12;fill:#003fff;fill-rule:evenodd;stroke:#000000;stroke-width:0.0469;stroke-linejoin:round;stroke-linecap:round;fill-opacity:0.25;stroke-opacity:1;stroke-dasharray:none;"
   d="M 0 -0.5 L 7 6.5 L 21 6.5 L 14 -0.5 L 0 -0.5 z "
   id="path990"
   sodipodi:nodetypes="cccccc" /></g></g><g
   id="Majority Labels"><path
   style="font-size:18;font-weight:bold;stroke-width:1;font-family:Bitstream Vera Sans Mono;text-anchor:middle;"
   d="M 93.13803 120.6143 L 93.13803 118.3292 L 100.9515 118.3292 L 100.9515 120.6143 L 98.34116 120.6143 L 98.34116 129.1661 L 100.9515 129.1661 L 100.9515 131.4512 L 93.13803 131.4512 L 93.13803 129.1661 L 95.74838 129.1661 L 95.74838 120.6143 L 93.13803 120.6143 z M 111.8763 125.0616 L 111.8763 131.4512 L 109.3187 131.4512 L 109.3187 125.4571 C 109.3187 124.7422 109.2162 124.2325 109.0111 123.9278 C 108.8119 123.6172 108.4837 123.462 108.0267 123.462 C 107.5638 123.462 107.1976 123.67 106.9281 124.086 C 106.6644 124.502 106.5326 125.0792 106.5326 125.8174 L 106.5326 131.4512 L 103.9749 131.4512 L 103.9749 121.6075 L 106.5326 121.6075 L 106.5326 123.084 C 106.7142 122.5391 107.0247 122.1172 107.4642 121.8184 C 107.9037 121.5196 108.4339 121.3702 109.055 121.3702 C 109.9867 121.3702 110.6898 121.6807 111.1644 122.3018 C 111.639 122.9171 111.8763 123.837 111.8763 125.0616 z M 117.1849 130.0626 L 117.1849 135.1954 L 114.6185 135.1954 L 114.6185 121.6075 L 117.1849 121.6075 L 117.1849 123.084 C 117.4544 122.5157 117.8089 122.088 118.2484 121.8008 C 118.6878 121.5137 119.2035 121.3702 119.7953 121.3702 C 120.9203 121.3702 121.7933 121.8214 122.4144 122.7237 C 123.0355 123.626 123.346 124.8975 123.346 126.5381 C 123.346 128.2022 123.0296 129.4796 122.3968 130.3702 C 121.7699 131.2608 120.8734 131.7061 119.7074 131.7061 C 119.18 131.7061 118.7054 131.5714 118.2835 131.3018 C 117.8675 131.0264 117.5013 130.6133 117.1849 130.0626 z M 120.7708 126.5206 C 120.7708 125.5714 120.6126 124.8272 120.2962 124.2881 C 119.9798 123.7491 119.5433 123.4796 118.9867 123.4796 C 118.43 123.4796 117.9906 123.7491 117.6683 124.2881 C 117.346 124.8272 117.1849 125.5714 117.1849 126.5206 C 117.1849 127.4698 117.346 128.2139 117.6683 128.753 C 117.9906 129.2921 118.43 129.5616 118.9867 129.5616 C 119.5433 129.5616 119.9798 129.2921 120.2962 128.753 C 120.6126 128.2139 120.7708 127.4698 120.7708 126.5206 z M 125.5433 128.0147 L 125.5433 121.6075 L 128.1185 121.6075 L 128.1185 127.6192 C 128.1185 128.3282 128.2181 128.835 128.4173 129.1397 C 128.6165 129.4444 128.9476 129.5967 129.4105 129.5967 C 129.8734 129.5967 130.2337 129.3917 130.4915 128.9815 C 130.7552 128.5714 130.8871 127.9971 130.8871 127.2589 L 130.8871 121.6075 L 133.4622 121.6075 L 133.4622 131.4512 L 130.8871 131.4512 L 130.8871 129.9922 C 130.7054 130.5372 130.3949 130.959 129.9554 131.2579 C 129.5218 131.5567 128.9974 131.7061 128.3822 131.7061 C 127.4447 131.7061 126.7357 131.3956 126.2552 130.7745 C 125.7806 130.1534 125.5433 129.2335 125.5433 128.0147 z M 141.0384 118.8126 L 141.0384 121.6075 L 144.4046 121.6075 L 144.4046 123.585 L 141.0384 123.585 L 141.0384 128.2432 C 141.0384 128.6827 141.1439 128.9991 141.3548 129.1924 C 141.5716 129.3799 141.929 129.4737 142.4271 129.4737 L 144.4046 129.4737 L 144.4046 131.4512 L 142.2425 131.4512 C 140.766 131.4512 139.7669 131.2169 139.2455 130.7481 C 138.724 130.2735 138.4632 129.3975 138.4632 128.1202 L 138.4632 123.585 L 135.9496 123.585 L 135.9496 121.6075 L 138.4632 121.6075 L 138.4632 118.8126 L 141.0384 118.8126 z M 162.0619 120.7022 L 160.8402 126.0723 L 163.2923 126.0723 L 162.0619 120.7022 z M 160.4798 118.3292 L 163.6527 118.3292 L 167.1947 131.4512 L 164.6019 131.4512 L 163.7933 128.2081 L 160.3216 128.2081 L 159.5306 131.4512 L 156.9378 131.4512 L 160.4798 118.3292 z "
   id="Label: Input A" /><path
   style="font-size:18;font-weight:bold;stroke-width:1;font-family:Bitstream Vera Sans Mono;text-anchor:middle;"
   d="M 4.723114 208.0951 L 4.723114 205.81 L 12.53659 205.81 L 12.53659 208.0951 L 9.926239 208.0951 L 9.926239 216.6469 L 12.53659 216.6469 L 12.53659 218.9321 L 4.723114 218.9321 L 4.723114 216.6469 L 7.333465 216.6469 L 7.333465 208.0951 L 4.723114 208.0951 z M 23.46139 212.5424 L 23.46139 218.9321 L 20.90378 218.9321 L 20.90378 212.9379 C 20.90378 212.2231 20.80124 211.7133 20.59616 211.4086 C 20.39694 211.0981 20.06882 210.9428 19.61179 210.9428 C 19.1489 210.9428 18.78268 211.1508 18.51315 211.5668 C 18.24948 211.9828 18.11765 212.56 18.11765 213.2983 L 18.11765 218.9321 L 15.56003 218.9321 L 15.56003 209.0883 L 18.11765 209.0883 L 18.11765 210.5649 C 18.29929 210.0199 18.60983 209.5981 19.04929 209.2992 C 19.48874 209.0004 20.01901 208.851 20.64011 208.851 C 21.57175 208.851 22.27487 209.1615 22.74948 209.7826 C 23.22409 210.3979 23.46139 211.3178 23.46139 212.5424 z M 28.76999 217.5434 L 28.76999 222.6762 L 26.20358 222.6762 L 26.20358 209.0883 L 28.76999 209.0883 L 28.76999 210.5649 C 29.03952 209.9965 29.39401 209.5688 29.83347 209.2817 C 30.27292 208.9946 30.78854 208.851 31.38034 208.851 C 32.50534 208.851 33.37839 209.3022 33.99948 210.2045 C 34.62057 211.1069 34.93112 212.3783 34.93112 214.019 C 34.93112 215.683 34.61472 216.9604 33.9819 217.851 C 33.35495 218.7416 32.45847 219.1869 31.29245 219.1869 C 30.76511 219.1869 30.2905 219.0522 29.86862 218.7826 C 29.45261 218.5072 29.0864 218.0942 28.76999 217.5434 z M 32.35593 214.0014 C 32.35593 213.0522 32.19772 212.308 31.88132 211.769 C 31.56491 211.2299 31.12839 210.9604 30.57175 210.9604 C 30.01511 210.9604 29.57565 211.2299 29.25339 211.769 C 28.93112 212.308 28.76999 213.0522 28.76999 214.0014 C 28.76999 214.9506 28.93112 215.6947 29.25339 216.2338 C 29.57565 216.7729 30.01511 217.0424 30.57175 217.0424 C 31.12839 217.0424 31.56491 216.7729 31.88132 216.2338 C 32.19772 215.6947 32.35593 214.9506 32.35593 214.0014 z M 37.12839 215.4955 L 37.12839 209.0883 L 39.70358 209.0883 L 39.70358 215.1 C 39.70358 215.809 39.80319 216.3158 40.00241 216.6205 C 40.20163 216.9252 40.53268 217.0776 40.99557 217.0776 C 41.45847 217.0776 41.81882 216.8725 42.07663 216.4623 C 42.3403 216.0522 42.47214 215.478 42.47214 214.7397 L 42.47214 209.0883 L 45.04733 209.0883 L 45.04733 218.9321 L 42.47214 218.9321 L 42.47214 217.4731 C 42.2905 218.018 41.97995 218.4399 41.5405 218.7387 C 41.1069 219.0375 40.58249 219.1869 39.96725 219.1869 C 39.02975 219.1869 38.32077 218.8764 37.8403 218.2553 C 37.36569 217.6342 37.12839 216.7143 37.12839 215.4955 z M 52.6235 206.2934 L 52.6235 209.0883 L 55.98972 209.0883 L 55.98972 211.0658 L 52.6235 211.0658 L 52.6235 215.724 C 52.6235 216.1635 52.72897 216.4799 52.93991 216.6733 C 53.15671 216.8608 53.51413 216.9545 54.01218 216.9545 L 55.98972 216.9545 L 55.98972 218.9321 L 53.82761 218.9321 C 52.35104 218.9321 51.35202 218.6977 50.83054 218.2289 C 50.30905 217.7543 50.04831 216.8783 50.04831 215.601 L 50.04831 211.0658 L 47.53464 211.0658 L 47.53464 209.0883 L 50.04831 209.0883 L 50.04831 206.2934 L 52.6235 206.2934 z M 71.8364 212.9731 L 71.8364 216.8578 L 73.55905 216.8578 C 74.38522 216.8578 74.96237 216.7172 75.2905 216.436 C 75.62448 216.1547 75.79147 215.6655 75.79147 214.9682 C 75.79147 214.2592 75.61862 213.7494 75.27292 213.4389 C 74.92722 213.1283 74.35593 212.9731 73.55905 212.9731 L 71.8364 212.9731 z M 71.8364 207.8578 L 71.8364 210.9076 L 73.55905 210.9076 C 74.2153 210.9076 74.68112 210.7905 74.95651 210.5561 C 75.23776 210.3217 75.37839 209.935 75.37839 209.3959 C 75.37839 208.8569 75.23483 208.4672 74.94772 208.227 C 74.66647 207.9809 74.20358 207.8578 73.55905 207.8578 L 71.8364 207.8578 z M 69.33151 205.7924 L 73.55905 205.7924 C 75.01804 205.7924 76.11374 206.0707 76.84616 206.6274 C 77.58444 207.1781 77.95358 208.0043 77.95358 209.1059 C 77.95358 209.9496 77.73679 210.6088 77.30319 211.0834 C 76.8696 211.558 76.23386 211.8334 75.39597 211.9096 C 76.39792 212.0092 77.15085 212.3461 77.65475 212.9203 C 78.16452 213.4946 78.4194 214.2973 78.4194 215.3285 C 78.4194 216.5942 78.03854 217.5112 77.27682 218.0795 C 76.51511 218.6479 75.27585 218.9321 73.55905 218.9321 L 69.33151 218.9321 L 69.33151 205.7924 z "
   id="Label: Input B" /><path
   style="font-size:18;font-weight:bold;stroke-width:1;font-family:Bitstream Vera Sans Mono;text-anchor:middle;"
   d="M 200.2164 266.4157 L 200.2164 264.1305 L 208.0299 264.1305 L 208.0299 266.4157 L 205.4196 266.4157 L 205.4196 274.9674 L 208.0299 274.9674 L 208.0299 277.2526 L 200.2164 277.2526 L 200.2164 274.9674 L 202.8268 274.9674 L 202.8268 266.4157 L 200.2164 266.4157 z M 218.9547 270.8629 L 218.9547 277.2526 L 216.3971 277.2526 L 216.3971 271.2585 C 216.3971 270.5436 216.2946 270.0338 216.0895 269.7292 C 215.8903 269.4186 215.5621 269.2633 215.1051 269.2633 C 214.6422 269.2633 214.276 269.4713 214.0065 269.8874 C 213.7428 270.3034 213.611 270.8805 213.611 271.6188 L 213.611 277.2526 L 211.0534 277.2526 L 211.0534 267.4088 L 213.611 267.4088 L 213.611 268.8854 C 213.7926 268.3405 214.1032 267.9186 214.5426 267.6198 C 214.9821 267.321 215.5123 267.1715 216.1334 267.1715 C 217.0651 267.1715 217.7682 267.4821 218.2428 268.1032 C 218.7174 268.7184 218.9547 269.6383 218.9547 270.8629 z M 224.2633 275.8639 L 224.2633 280.9967 L 221.6969 280.9967 L 221.6969 267.4088 L 224.2633 267.4088 L 224.2633 268.8854 C 224.5329 268.317 224.8873 267.8893 225.3268 267.6022 C 225.7663 267.3151 226.2819 267.1715 226.8737 267.1715 C 227.9987 267.1715 228.8717 267.6227 229.4928 268.5251 C 230.1139 269.4274 230.4245 270.6989 230.4245 272.3395 C 230.4245 274.0036 230.108 275.2809 229.4752 276.1715 C 228.8483 277.0622 227.9518 277.5075 226.7858 277.5075 C 226.2584 277.5075 225.7838 277.3727 225.362 277.1032 C 224.9459 276.8278 224.5797 276.4147 224.2633 275.8639 z M 227.8493 272.3219 C 227.8493 271.3727 227.6911 270.6286 227.3746 270.0895 C 227.0582 269.5504 226.6217 269.2809 226.0651 269.2809 C 225.5084 269.2809 225.069 269.5504 224.7467 270.0895 C 224.4245 270.6286 224.2633 271.3727 224.2633 272.3219 C 224.2633 273.2711 224.4245 274.0153 224.7467 274.5544 C 225.069 275.0934 225.5084 275.3629 226.0651 275.3629 C 226.6217 275.3629 227.0582 275.0934 227.3746 274.5544 C 227.6911 274.0153 227.8493 273.2711 227.8493 272.3219 z M 232.6217 273.8161 L 232.6217 267.4088 L 235.1969 267.4088 L 235.1969 273.4206 C 235.1969 274.1295 235.2965 274.6364 235.4957 274.9411 C 235.695 275.2458 236.026 275.3981 236.4889 275.3981 C 236.9518 275.3981 237.3121 275.193 237.57 274.7829 C 237.8336 274.3727 237.9655 273.7985 237.9655 273.0602 L 237.9655 267.4088 L 240.5407 267.4088 L 240.5407 277.2526 L 237.9655 277.2526 L 237.9655 275.7936 C 237.7838 276.3385 237.4733 276.7604 237.0338 277.0592 C 236.6002 277.3581 236.0758 277.5075 235.4606 277.5075 C 234.5231 277.5075 233.8141 277.1969 233.3336 276.5758 C 232.859 275.9547 232.6217 275.0348 232.6217 273.8161 z M 248.1168 264.6139 L 248.1168 267.4088 L 251.483 267.4088 L 251.483 269.3864 L 248.1168 269.3864 L 248.1168 274.0446 C 248.1168 274.484 248.2223 274.8004 248.4332 274.9938 C 248.65 275.1813 249.0075 275.2751 249.5055 275.2751 L 251.483 275.2751 L 251.483 277.2526 L 249.3209 277.2526 C 247.8444 277.2526 246.8454 277.0182 246.3239 276.5495 C 245.8024 276.0749 245.5416 275.1989 245.5416 273.9215 L 245.5416 269.3864 L 243.028 269.3864 L 243.028 267.4088 L 245.5416 267.4088 L 245.5416 264.6139 L 248.1168 264.6139 z M 273.2272 276.8747 C 272.817 277.0856 272.3864 277.2438 271.9352 277.3493 C 271.484 277.4547 271.0094 277.5075 270.5114 277.5075 C 268.7418 277.5075 267.3912 276.9245 266.4596 275.7585 C 265.528 274.5924 265.0621 272.9079 265.0621 270.7047 C 265.0621 268.4958 265.528 266.8083 266.4596 265.6422 C 267.3912 264.4762 268.7418 263.8932 270.5114 263.8932 C 271.0094 263.8932 271.4869 263.946 271.944 264.0514 C 272.401 264.1569 272.8287 264.3151 273.2272 264.526 L 273.2272 267.4088 C 272.7819 266.9987 272.3483 266.6999 271.9264 266.5124 C 271.5104 266.319 271.0797 266.2223 270.6344 266.2223 C 269.6852 266.2223 268.9674 266.6003 268.4811 267.3561 C 268.0006 268.1061 267.7604 269.2223 267.7604 270.7047 C 267.7604 272.1813 268.0006 273.2975 268.4811 274.0534 C 268.9674 274.8034 269.6852 275.1784 270.6344 275.1784 C 271.0797 275.1784 271.5104 275.0846 271.9264 274.8971 C 272.3483 274.7038 272.7819 274.402 273.2272 273.9919 L 273.2272 276.8747 z "
   id="Label: Input C" /><path
   style="font-size:18;font-weight:bold;font-family:Bitstream Vera Sans Mono;text-anchor:middle;"
   d="M 374.7799 191.6393 C 374.1178 191.6393 373.6344 191.9937 373.3297 192.7027 C 373.025 193.4059 372.8727 194.5455 372.8727 196.1217 C 372.8727 197.692 373.025 198.8316 373.3297 199.5406 C 373.6344 200.2437 374.1178 200.5953 374.7799 200.5953 C 375.4479 200.5953 375.9342 200.2437 376.2389 199.5406 C 376.5436 198.8316 376.6959 197.692 376.6959 196.1217 C 376.6959 194.5455 376.5436 193.4059 376.2389 192.7027 C 375.9342 191.9937 375.4479 191.6393 374.7799 191.6393 z M 370.1744 196.1217 C 370.1744 193.8775 370.5612 192.1812 371.3346 191.0328 C 372.1139 189.8844 373.2623 189.3102 374.7799 189.3102 C 376.3033 189.3102 377.4518 189.8844 378.2252 191.0328 C 379.0045 192.1812 379.3942 193.8775 379.3942 196.1217 C 379.3942 198.36 379.0045 200.0533 378.2252 201.2018 C 377.4518 202.3502 376.3033 202.9244 374.7799 202.9244 C 373.2623 202.9244 372.1139 202.3502 371.3346 201.2018 C 370.5612 200.0533 370.1744 198.36 370.1744 196.1217 z M 381.609 199.233 L 381.609 192.8258 L 384.1842 192.8258 L 384.1842 198.8375 C 384.1842 199.5465 384.2838 200.0533 384.483 200.358 C 384.6823 200.6627 385.0133 200.815 385.4762 200.815 C 385.9391 200.815 386.2994 200.61 386.5573 200.1998 C 386.8209 199.7896 386.9528 199.2154 386.9528 198.4771 L 386.9528 192.8258 L 389.528 192.8258 L 389.528 202.6695 L 386.9528 202.6695 L 386.9528 201.2105 C 386.7711 201.7555 386.4606 202.1773 386.0211 202.4762 C 385.5875 202.775 385.0631 202.9244 384.4479 202.9244 C 383.5104 202.9244 382.8014 202.6139 382.3209 201.9928 C 381.8463 201.3717 381.609 200.4518 381.609 199.233 z M 397.1041 190.0309 L 397.1041 192.8258 L 400.4703 192.8258 L 400.4703 194.8033 L 397.1041 194.8033 L 397.1041 199.4615 C 397.1041 199.901 397.2096 200.2174 397.4205 200.4107 C 397.6373 200.5982 397.9948 200.692 398.4928 200.692 L 400.4703 200.692 L 400.4703 202.6695 L 398.3082 202.6695 C 396.8317 202.6695 395.8326 202.4352 395.3112 201.9664 C 394.7897 201.4918 394.5289 200.6158 394.5289 199.3385 L 394.5289 194.8033 L 392.0153 194.8033 L 392.0153 192.8258 L 394.5289 192.8258 L 394.5289 190.0309 L 397.1041 190.0309 z M 405.7614 201.2809 L 405.7614 206.4137 L 403.1949 206.4137 L 403.1949 192.8258 L 405.7614 192.8258 L 405.7614 194.3023 C 406.0309 193.734 406.3854 193.3062 406.8248 193.0191 C 407.2643 192.732 407.7799 192.5885 408.3717 192.5885 C 409.4967 192.5885 410.3698 193.0396 410.9908 193.942 C 411.6119 194.8443 411.9225 196.1158 411.9225 197.7564 C 411.9225 199.4205 411.6061 200.6978 410.9733 201.5885 C 410.3463 202.4791 409.4498 202.9244 408.2838 202.9244 C 407.7565 202.9244 407.2819 202.7896 406.86 202.5201 C 406.444 202.2447 406.0778 201.8316 405.7614 201.2809 z M 409.3473 197.7389 C 409.3473 196.7896 409.1891 196.0455 408.8727 195.5064 C 408.5563 194.9674 408.1198 194.6978 407.5631 194.6978 C 407.0065 194.6978 406.567 194.9674 406.2448 195.5064 C 405.9225 196.0455 405.7614 196.7896 405.7614 197.7389 C 405.7614 198.6881 405.9225 199.4322 406.2448 199.9713 C 406.567 200.5103 407.0065 200.7799 407.5631 200.7799 C 408.1198 200.7799 408.5563 200.5103 408.8727 199.9713 C 409.1891 199.4322 409.3473 198.6881 409.3473 197.7389 z M 414.1198 199.233 L 414.1198 192.8258 L 416.6949 192.8258 L 416.6949 198.8375 C 416.6949 199.5465 416.7946 200.0533 416.9938 200.358 C 417.193 200.6627 417.524 200.815 417.9869 200.815 C 418.4498 200.815 418.8102 200.61 419.068 200.1998 C 419.3317 199.7896 419.4635 199.2154 419.4635 198.4771 L 419.4635 192.8258 L 422.0387 192.8258 L 422.0387 202.6695 L 419.4635 202.6695 L 419.4635 201.2105 C 419.2819 201.7555 418.9713 202.1773 418.5319 202.4762 C 418.0983 202.775 417.5739 202.9244 416.9586 202.9244 C 416.0211 202.9244 415.3121 202.6139 414.8317 201.9928 C 414.3571 201.3717 414.1198 200.4518 414.1198 199.233 z M 429.6149 190.0309 L 429.6149 192.8258 L 432.9811 192.8258 L 432.9811 194.8033 L 429.6149 194.8033 L 429.6149 199.4615 C 429.6149 199.901 429.7203 200.2174 429.9313 200.4107 C 430.1481 200.5982 430.5055 200.692 431.0035 200.692 L 432.9811 200.692 L 432.9811 202.6695 L 430.819 202.6695 C 429.3424 202.6695 428.3434 202.4352 427.8219 201.9664 C 427.3004 201.4918 427.0397 200.6158 427.0397 199.3385 L 427.0397 194.8033 L 424.526 194.8033 L 424.526 192.8258 L 427.0397 192.8258 L 427.0397 190.0309 L 429.6149 190.0309 z "
   id="Label: Output" /></g></g></g></svg>
