<?xml version="1.0" encoding="UTF-8" standalone="no"?>
<!DOCTYPE svg PUBLIC "-//W3C//DTD SVG 20010904//EN"
"http://www.w3.org/TR/2001/REC-SVG-20010904/DTD/svg10.dtd">
<!-- Created with Sodipodi ("http://www.sodipodi.com/") -->
<svg
   xmlns="http://www.w3.org/2000/svg"
   xmlns:sodipodi="http://sodipodi.sourceforge.net/DTD/sodipodi-0.dtd"
   xmlns:xlink="http://www.w3.org/1999/xlink"
   id="svg602"
   sodipodi:version="0.34"
   width="30pt"
   height="30pt"
   xml:space="preserve"
   sodipodi:docname="q_cell_alt_circle.svg"><defs
   id="defs604" /><sodipodi:namedview
   id="base" /><g
   id="Circle Cell"
   transform="matrix(2,0,0,2,6.07352,9.693033)"><path
   style="font-size:12;fill:#00ffff;fill-opacity:0.2471;fill-rule:evenodd;stroke:#000000;stroke-width:0.0469;stroke-linecap:round;stroke-linejoin:round;"
   d="M 0 2.5 L 7 9.5 L 21 9.5 L 14 2.5 L 0 2.5 z "
   id="cellLidBot"
   sodipodi:nodetypes="cccccc"
   transform="matrix(0.833625,0,0,0.833625,-2.414825,0.777169)" /><path
   style="font-size:12;fill:#00ffff;fill-opacity:0.2471;fill-rule:evenodd;stroke:#000000;stroke-width:0.0469;"
   d="M 0 -0.5 L 0 2.5 L 14 2.5 L 14 -0.5 L 0 -0.5 z "
   id="cellWallN"
   sodipodi:nodetypes="cccccc"
   transform="matrix(0.833625,0,0,0.833625,-2.414825,0.777169)" /><path
   style="font-size:12;fill:#00ffff;fill-opacity:0.2471;fill-rule:evenodd;stroke:#000000;stroke-width:0.0469;stroke-linecap:round;stroke-linejoin:round;"
   d="M 14 -0.5 L 21 6.5 L 21 9.5 L 14 2.5 L 14 -0.5 z "
   id="cellWallE"
   transform="matrix(0.833625,0,0,0.833625,-2.414825,0.777169)" /><g
   id="Dot"><path
   style="font-size:12;fill:#00ff00;fill-opacity:0.5;fill-rule:evenodd;stroke:#000000;stroke-width:0.0375;stroke-linecap:round;stroke-linejoin:round;stroke-dasharray:none;"
   d="M 26.65944 12.14157 C 31.66119 12.14157 33.92164 14.39236 33.92164 14.39236 C 33.92164 14.39236 36.18207 16.64314 31.18032 16.64314 C 26.17857 16.64314 23.91813 14.39236 23.91813 14.39236 C 23.91813 14.39236 21.6577 12.14157 26.65944 12.14157 z M 27.29236 12.77178 C 30.89362 12.77178 32.52115 14.39236 32.52115 14.39236 C 32.52115 14.39236 32.92803 14.7975 32.88474 15.20264 C 32.84146 15.60777 32.34802 16.01291 30.54739 16.01291 C 26.94613 16.01291 25.31862 14.39236 25.31862 14.39236 C 25.31862 14.39236 24.91174 13.98722 24.95502 13.58207 C 24.9983 13.17693 25.49173 12.77178 27.29236 12.77178 z "
   id="Bottom Lid"
   transform="translate(-22.57053,-9.030247)" /><path
   style="font-size:12;fill:#00ff00;fill-opacity:0.5;fill-rule:evenodd;stroke:#000000;stroke-width:0.0375;stroke-linecap:round;stroke-linejoin:round;stroke-dasharray:none;"
   d="M 11.85611 4.820256 C 11.91622 4.257562 11.35111 3.69487 11.35111 3.69487 C 11.35111 3.69487 9.090662 1.444077 4.08891 1.444077 C 1.58804 1.444077 0.902713 2.006776 0.842603 2.569475 C 0.782493 3.132172 0.842603 2.569475 0.842603 4.236727 C 0.902713 3.674028 1.58804 3.111329 4.08891 3.111329 C 9.090662 3.111329 11.35111 5.362122 11.35111 5.362122 C 11.35111 5.362122 11.91622 5.924814 11.85611 6.487508 L 11.85611 4.820256 z "
   id="Outer Wall Top"
   sodipodi:nodetypes="cccscccs" /><path
   style="font-size:12;fill:#00ff00;fill-opacity:0.5;fill-rule:evenodd;stroke:#000000;stroke-width:0.0375;stroke-linecap:round;stroke-linejoin:round;stroke-dasharray:none;"
   d="M 10.31422 4.50515 C 10.35751 4.10001 9.95063 3.69487 9.95063 3.69487 C 9.95063 3.69487 8.3231 2.074299 4.72184 2.074299 C 2.92121 2.074299 2.42778 2.479441 2.3845 2.884586 C 2.3845 2.884586 2.3845 2.884586 2.3845 4.551837 C 2.42778 4.146693 2.92121 3.741548 4.72184 3.741548 C 8.3231 3.741548 9.95063 5.362122 9.95063 5.362122 C 9.95063 5.362122 10.35751 5.767262 10.31422 6.172402 L 10.31422 4.50515 z "
   id="Inner Wall Top"
   sodipodi:nodetypes="cccccccc" /><path
   style="font-size:12;fill:#00ff00;fill-opacity:0.5;fill-rule:evenodd;stroke:#000000;stroke-width:0.0375;stroke-linecap:round;stroke-linejoin:round;stroke-dasharray:none;"
   d="M 10.31422 4.50515 C 10.27094 4.910281 9.7775 5.315421 7.97687 5.315421 C 4.37561 5.315421 2.7481 3.69487 2.7481 3.69487 C 2.7481 3.69487 2.34122 3.289731 2.3845 2.884586 C 2.42778 2.479441 2.3845 2.884586 2.3845 4.551837 C 2.34122 4.956982 2.7481 5.362122 2.7481 5.362122 C 2.7481 5.362122 4.37561 6.982672 7.97687 6.982672 C 9.7775 6.982672 10.27094 6.57753 10.31422 6.172402 L 10.31422 4.50515 z "
   id="Inner Wall Bottom"
   sodipodi:nodetypes="cccccccc" /><path
   style="font-size:12;fill:#00ff00;fill-opacity:0.5;fill-rule:evenodd;stroke:#000000;stroke-width:0.0375;stroke-linecap:round;stroke-linejoin:round;stroke-dasharray:none;"
   d="M 18.5811 8.423822 C 23.58285 8.423822 25.8433 10.67461 25.8433 10.67461 C 25.8433 10.67461 28.10373 12.92539 23.10198 12.92539 C 18.10023 12.92539 15.83979 10.67461 15.83979 10.67461 C 15.83979 10.67461 13.57936 8.423822 18.5811 8.423822 z M 19.21402 9.054038 C 22.81528 9.054038 24.44281 10.67461 24.44281 10.67461 C 24.44281 10.67461 24.84969 11.07975 24.8064 11.48489 C 24.76312 11.89002 24.26968 12.29516 22.46905 12.29516 C 18.86779 12.29516 17.24028 10.67461 17.24028 10.67461 C 17.24028 10.67461 16.8334 10.26947 16.87668 9.864326 C 16.91996 9.459181 17.41339 9.054038 19.21402 9.054038 z "
   id="Top Lid"
   transform="translate(-14.49219,-6.97974)" /><path
   style="font-size:12;fill:#00ff00;fill-opacity:0.5;fill-rule:evenodd;stroke:#000000;stroke-width:0.0375;stroke-linecap:round;stroke-linejoin:round;stroke-dasharray:none;"
   d="M 11.85611 6.487508 C 11.79599 7.0502 11.11066 7.612891 8.609788 7.612891 C 3.60804 7.612891 1.3476 5.362122 1.3476 5.362122 C 1.3476 5.362122 0.782493 4.799423 0.842603 4.236727 C 0.902713 3.674028 0.842603 4.236727 0.842603 2.569475 C 0.782493 3.132172 1.3476 3.69487 1.3476 3.69487 C 1.3476 3.69487 3.60804 5.94564 8.609788 5.94564 C 11.11066 5.94564 11.79599 5.382948 11.85611 4.820256 L 11.85611 6.487508 z "
   id="Outer Wall Bottom"
   sodipodi:nodetypes="cccscccs" /></g><path
   style="font-size:12;fill:#00ffff;fill-opacity:0.2471;fill-rule:evenodd;stroke:#000000;stroke-width:0.0469;stroke-linecap:round;stroke-linejoin:round;"
   d="M 0 -0.5 L 7 6.5 L 7 9.5 L 0 2.5 L 0 -0.5 z "
   id="cellWallW"
   transform="matrix(0.833625,0,0,0.833625,-2.414825,0.777169)" /><path
   style="font-size:12;fill:#00ffff;fill-opacity:0.2471;fill-rule:evenodd;stroke:#000000;stroke-width:0.0469;stroke-linecap:round;stroke-linejoin:round;"
   d="M 7 6.5 L 7 9.5 L 21 9.5 L 21 6.5 L 7 6.5 z "
   id="cellWallS"
   transform="matrix(0.833625,0,0,0.833625,-2.414825,0.777169)" /><path
   style="font-size:12;fill:#00ffff;fill-opacity:0.25;fill-rule:evenodd;stroke:#000000;stroke-width:0.0469;stroke-linecap:round;stroke-linejoin:round;"
   d="M 0 -0.5 L 7 6.5 L 21 6.5 L 14 -0.5 L 0 -0.5 z "
   id="cellLidTop"
   sodipodi:nodetypes="cccccc"
   transform="matrix(0.833625,0,0,0.833625,-2.414825,0.777169)" /></g></svg>
